<?xml version="1.0" encoding="utf-8"?>
<!-- Generator: Adobe Illustrator 28.0.0, SVG Export Plug-In . SVG Version: 6.00 Build 0)  -->
<svg version="1.1" id="Layer_1" xmlns="http://www.w3.org/2000/svg" xmlns:xlink="http://www.w3.org/1999/xlink" x="0px" y="0px"
	 viewBox="0 0 105 76" style="enable-background:new 0 0 105 76;" xml:space="preserve">
<style type="text/css">
	.st0{fill:#030303;stroke:#000000;stroke-width:2;stroke-miterlimit:10;}
</style>
<g>
	<path class="st0" d="M55.6,18.2c10.5,0,21,0,31.6,0c3,0,4.4,1.4,4.4,4.4c0,12.6,0,25.2,0,37.8c0,2.8-1.5,4.3-4.3,4.3
		c-21.1,0-42.2,0-63.3,0c-2.9,0-4.3-1.5-4.3-4.3c0-12.6,0-25.2,0-37.8c0-2.8,1.5-4.3,4.3-4.3C34.4,18.2,45,18.2,55.6,18.2z
		 M22.9,19.8c0.1,0.4,0.4,0.5,0.6,0.7C33,27.7,42.4,35,51.8,42.2c2.6,2,4.8,2,7.4,0c8.7-6.7,17.4-13.4,26.2-20c1-0.7,1.9-1.5,3-2.4
		C66.4,19.8,44.7,19.8,22.9,19.8z M88.4,63.2c-0.2-0.2-0.3-0.3-0.4-0.4c-8.7-6.7-17.4-13.3-26.1-20c-0.4-0.3-0.7-0.2-1,0.1
		c-1,0.8-2,1.6-3.2,2c-2.7,0.8-5,0.1-7.1-1.8c-0.6-0.6-1-0.6-1.7,0C40.6,49.4,32.3,55.8,24,62.1c-0.4,0.3-0.8,0.6-1.3,1
		C44.7,63.2,66.4,63.2,88.4,63.2z M21.1,41.5c0,1.8,0,3.7,0,5.5c0,4.6,0,9.2,0,13.8c0,0.4,0,1,0.3,1.2c0.4,0.2,0.7-0.3,1-0.5
		c8.4-6.4,16.8-12.9,25.2-19.3c0.9-0.7,0.9-0.7,0-1.4c-8.4-6.4-16.8-12.9-25.3-19.3c-0.3-0.2-0.6-0.7-0.9-0.5
		c-0.4,0.2-0.3,0.7-0.3,1.1c0,0.2,0,0.5,0,0.7C21.1,29,21.1,35.2,21.1,41.5z M90,41.6c0-1.2,0-2.3,0-3.5c0-5.3,0-10.7,0-16
		c0-0.4,0-1-0.4-1.2c-0.3-0.2-0.6,0.3-0.9,0.5C80.3,28,71.9,34.4,63.4,40.9c-0.7,0.5-0.6,0.7,0,1.2c8.4,6.4,16.7,12.8,25.1,19.2
		c0.4,0.3,0.8,0.9,1.2,0.7c0.5-0.3,0.4-1,0.4-1.5C90,54.2,90,47.9,90,41.6z"/>
</g>
</svg>
