<svg width="62" height="48" viewBox="0 0 62 48" fill="none" xmlns="http://www.w3.org/2000/svg">
<g clip-path="url(#clip0_28_180)">
<path d="M0 1.38439C0.46608 0.755071 1.12798 0.601074 1.92744 0.624766C4.12352 0.691399 6.33416 0.482614 8.51891 0.721014C11.1309 1.00532 12.9353 2.3602 13.7963 4.63315C14.408 6.24864 14.8773 7.91004 15.3661 9.56107C15.4955 9.99937 15.6881 10.1193 16.1817 10.1193C30.0428 10.1045 43.9038 10.1119 57.7648 10.1001C59.0919 10.1001 60.236 10.4199 61.0921 11.3765C61.9725 12.3597 62.212 13.4776 61.8204 14.7007C59.9852 20.4416 58.1613 26.1854 56.3067 31.9204C55.4797 34.4791 53.0118 36.0842 49.9644 36.0887C44.5171 36.0975 39.0698 36.0916 33.6209 36.0916C31.14 36.0916 28.6575 36.0946 26.1766 36.0916C22.8444 36.0872 20.5075 34.4865 19.5883 31.5576C16.8938 22.9796 14.2057 14.3987 11.5161 5.81774C10.9351 3.96385 9.5951 3.02506 7.49936 3.01913C5.66255 3.01469 3.82736 2.99544 1.99217 3.02802C1.18138 3.04283 0.479027 2.93621 0.00323667 2.26988V1.38291L0 1.38439ZM37.445 12.4648C30.5849 12.4648 23.7232 12.4648 16.863 12.4633C16.5232 12.4633 16.2513 12.3893 16.4148 12.9061C18.3309 18.952 20.2114 25.0067 22.1178 31.0556C22.6583 32.7718 24.0711 33.7357 25.9953 33.7357C34.0061 33.7402 42.0168 33.7402 50.0292 33.7357C51.9081 33.7357 53.3613 32.7333 53.8857 31.0926C55.6723 25.5117 57.4557 19.9293 59.2391 14.3468C59.6437 13.0778 59.1517 12.4663 57.7276 12.4663C50.9678 12.4663 44.208 12.4663 37.4483 12.4663L37.445 12.4648Z" fill="black"/>
<path d="M45.5301 47.9211C45.4103 47.7345 45.1805 47.7671 45.0025 47.7153C42.4439 46.9764 40.9308 44.6797 41.426 42.2676C41.9163 39.8806 44.373 38.2607 47.1339 38.5035C49.618 38.7212 51.628 40.7795 51.6717 43.1487C51.7137 45.4527 49.8656 47.4473 47.3459 47.8249C47.3022 47.8308 47.2649 47.887 47.2261 47.9196H45.5301V47.9211ZM49.0678 43.1768C49.0597 41.8737 47.9139 40.8298 46.4946 40.8313C45.0753 40.8328 43.9344 41.8796 43.9296 43.1842C43.9247 44.5109 45.1061 45.5904 46.5335 45.5637C47.956 45.5371 49.0775 44.4828 49.0694 43.1768H49.0678Z" fill="black"/>
<path d="M27.3679 47.921C27.2627 47.7211 27.0329 47.7522 26.8532 47.6989C24.4743 46.9911 22.9158 44.7596 23.2897 42.5859C23.7007 40.1915 25.7641 38.5138 28.3405 38.4783C30.891 38.4442 33.0644 40.0879 33.5143 42.3904C34.0079 44.9136 32.1047 47.3983 29.3633 47.8129C29.2807 47.8248 29.2063 47.8322 29.1853 47.9195H27.3695L27.3679 47.921ZM28.4279 40.8312C27.0151 40.8268 25.8483 41.8766 25.8272 43.1693C25.8062 44.4635 27.0215 45.5785 28.436 45.5652C29.8439 45.5504 31.001 44.4783 30.9994 43.19C30.9978 41.8944 29.8423 40.8357 28.4279 40.8312Z" fill="black"/>
</g>
<path d="M47.561 23.266C46.721 23.458 45.539 23.62 44.015 23.752C42.491 23.884 40.697 23.95 38.633 23.95C37.841 23.95 37.049 23.938 36.257 23.914C35.477 23.89 34.733 23.854 34.025 23.806C33.329 23.758 32.723 23.704 32.207 23.644C32.171 23.524 32.135 23.356 32.099 23.14C32.075 22.912 32.051 22.678 32.027 22.438C32.015 22.186 32.003 21.958 31.991 21.754C31.979 21.55 31.973 21.4 31.973 21.304C32.273 21.328 32.663 21.358 33.143 21.394C33.635 21.418 34.193 21.436 34.817 21.448C35.441 21.448 36.095 21.448 36.779 21.448C38.255 21.448 39.689 21.424 41.081 21.376C42.473 21.328 43.739 21.256 44.879 21.16C46.019 21.064 46.937 20.962 47.633 20.854C47.645 21.118 47.645 21.418 47.633 21.754C47.621 22.09 47.609 22.396 47.597 22.672C47.585 22.948 47.573 23.146 47.561 23.266ZM40.415 14.266C40.583 15.07 40.721 15.958 40.829 16.93C40.937 17.89 41.015 18.91 41.063 19.99C41.123 21.058 41.153 22.144 41.153 23.248C41.153 24.496 41.111 25.762 41.027 27.046C40.955 28.318 40.847 29.536 40.703 30.7C40.607 30.712 40.451 30.718 40.235 30.718C40.031 30.718 39.803 30.718 39.551 30.718C39.299 30.706 39.059 30.7 38.831 30.7C38.603 30.688 38.423 30.682 38.291 30.682C38.399 29.842 38.477 28.906 38.525 27.874C38.573 26.842 38.597 25.768 38.597 24.652C38.597 23.764 38.579 22.852 38.543 21.916C38.507 20.98 38.453 20.056 38.381 19.144C38.309 18.232 38.231 17.368 38.147 16.552C38.063 15.724 37.967 14.974 37.859 14.302C37.931 14.29 38.051 14.284 38.219 14.284C38.399 14.272 38.603 14.266 38.831 14.266C39.059 14.266 39.281 14.266 39.497 14.266C39.725 14.266 39.917 14.266 40.073 14.266C40.241 14.266 40.355 14.266 40.415 14.266Z" fill="black"/>
<defs>
<clipPath id="clip0_28_180">
<rect width="62" height="47.3158" fill="white" transform="translate(0 0.605225)"/>
</clipPath>
</defs>
</svg>
