<svg width="59" height="46" viewBox="0 0 59 46" fill="none" xmlns="http://www.w3.org/2000/svg">
<g clip-path="url(#clip0_39_381)">
<path d="M0 0.758297C0.443528 0.14648 1.0734 -0.00323521 1.83417 0.0197979C3.92399 0.0845785 6.02767 -0.118401 8.10671 0.11337C10.5923 0.389767 12.3094 1.70697 13.1287 3.91671C13.7109 5.48728 14.1575 7.10248 14.6226 8.7076C14.7458 9.13371 14.929 9.25032 15.3987 9.25032C28.5891 9.23592 41.7794 9.24312 54.9697 9.2316C56.2326 9.2316 57.3214 9.54255 58.136 10.4725C58.9738 11.4284 59.2017 12.5153 58.8291 13.7043C57.0827 19.2856 55.3471 24.8696 53.5822 30.4451C52.7952 32.9327 50.4467 34.4932 47.5468 34.4975C42.3631 34.5061 37.1793 34.5004 31.9941 34.5004C29.6332 34.5004 27.2708 34.5032 24.9099 34.5004C21.739 34.496 19.5152 32.9399 18.6405 30.0924C16.0763 21.753 13.5184 13.4107 10.9588 5.06837C10.406 3.26603 9.13082 2.35334 7.13649 2.34758C5.38856 2.34326 3.64217 2.32455 1.89577 2.35622C1.12422 2.37061 0.455848 2.26697 0.00308006 1.61916V0.756857L0 0.758297ZM35.6332 11.5306C29.105 11.5306 22.5753 11.5306 16.0471 11.5292C15.7237 11.5292 15.465 11.4572 15.6205 11.9596C17.4439 17.8373 19.2334 23.7237 21.0476 29.6044C21.5619 31.2728 22.9064 32.21 24.7375 32.21C32.3606 32.2143 39.9837 32.2143 47.6084 32.21C49.3964 32.21 50.7793 31.2354 51.2783 29.6404C52.9785 24.2146 54.6756 18.7875 56.3727 13.3603C56.7577 12.1266 56.2896 11.532 54.9343 11.532C48.5016 11.532 42.0689 11.532 35.6362 11.532L35.6332 11.5306Z" fill="white"/>
<path d="M43.3271 46C43.2131 45.8186 42.9945 45.8503 42.825 45.7999C40.3903 45.0815 38.9503 42.8488 39.4216 40.5037C39.8882 38.1831 42.226 36.6082 44.8533 36.8443C47.2172 37.0559 49.1299 39.0569 49.1715 41.3602C49.2115 43.6002 47.4528 45.5393 45.055 45.9064C45.0134 45.9122 44.978 45.9669 44.9411 45.9985H43.3271V46ZM46.6936 41.3876C46.6859 40.1208 45.5956 39.1059 44.245 39.1073C42.8944 39.1088 41.8086 40.1265 41.804 41.3948C41.7994 42.6846 42.9236 43.7341 44.2819 43.7082C45.6356 43.6823 46.7028 42.6573 46.6951 41.3876H46.6936Z" fill="white"/>
<path d="M26.0434 46C25.9432 45.8056 25.7246 45.8359 25.5536 45.784C23.2898 45.0959 21.8067 42.9265 22.1625 40.8132C22.5536 38.4854 24.5172 36.8544 26.9689 36.8198C29.396 36.7867 31.4642 38.3847 31.8924 40.6232C32.3621 43.0762 30.551 45.4918 27.9422 45.8949C27.8637 45.9064 27.7928 45.9136 27.7728 45.9985H26.0449L26.0434 46ZM27.0521 39.1073C25.7076 39.103 24.5973 40.1237 24.5772 41.3804C24.5572 42.6386 25.7138 43.7226 27.0598 43.7096C28.3996 43.6952 29.5007 42.653 29.4992 41.4005C29.4976 40.1409 28.3981 39.1116 27.0521 39.1073Z" fill="white"/>
</g>
<defs>
<clipPath id="clip0_39_381">
<rect width="59" height="46" fill="white"/>
</clipPath>
</defs>
</svg>
