<svg width="118" height="93" viewBox="0 0 118 93" fill="none" xmlns="http://www.w3.org/2000/svg">
<g clip-path="url(#clip0_50_317)">
<path d="M59.3846 -0.000143258C74.298 -0.000143258 89.2114 -0.000143258 104.125 -0.000143258C112.249 -0.000143258 117.541 5.44519 117.603 14.3859C117.704 29.2992 117.496 44.2126 117.524 59.1259C117.535 65.4543 117.867 71.7888 117.929 78.1172C118.008 86.1871 112.738 92.4847 105.262 92.6197C88.1023 92.9263 70.937 92.9815 53.7773 92.9815C40.1813 92.9815 26.5796 92.8527 12.9836 92.6074C5.58033 92.4909 0.248885 86.2055 0.293923 78.1785C0.41215 57.133 0.519116 36.0936 0.614824 15.0543C0.659862 5.64755 5.78864 0.00598888 14.3629 -0.000143258C29.372 -0.0062754 44.3755 -0.000143258 59.3846 -0.000143258ZM105.031 10.9396H12.9892C14.2953 12.166 15.2636 13.0797 16.232 13.9873C28.9497 25.8959 41.645 37.8229 54.3909 49.6886C57.9771 53.0245 60.2291 52.9202 63.7815 49.6089C69.7604 44.0347 75.7505 38.479 81.7125 32.8804C89.3578 25.7119 96.9806 18.5128 105.026 10.9396H105.031ZM44.5556 51.89C34.6922 62.376 24.8175 72.868 15.1116 83.1884H104.046C93.8504 72.2242 84.0432 61.6769 74.2361 51.1358C63.3311 63.7741 54.8413 63.2897 44.5556 51.89ZM108.865 17.7585C98.9341 27.2695 89.3803 36.4186 79.8547 45.5432C89.6787 56.0169 99.3789 66.3619 108.865 76.4737V17.7647V17.7585ZM9.51558 17.8076V77.3629C19.2327 66.509 28.6851 55.9556 38.1207 45.4145C28.5163 36.1427 19.1426 27.0978 9.51558 17.8076Z" fill="white"/>
</g>
<defs>
<clipPath id="clip0_50_317">
<rect width="117.63" height="93" fill="white" transform="translate(0.293945)"/>
</clipPath>
</defs>
</svg>
