<svg width="29" height="27" viewBox="0 0 29 27" fill="none" xmlns="http://www.w3.org/2000/svg">
<g clip-path="url(#clip0_89_418)">
<path d="M0.0566406 8.38293C0.152242 7.80009 0.205354 7.20552 0.349819 6.63512C1.1118 3.63301 2.80997 1.43927 5.71909 0.489576C8.82296 -0.523087 11.5303 0.293341 13.7709 2.73677C14.035 3.02453 14.2694 3.34158 14.5322 3.6623C14.785 3.35257 15.0215 3.04064 15.2807 2.75068C16.515 1.37264 17.9929 0.417086 19.8165 0.176185C22.6349 -0.195784 25.0427 0.693866 26.8959 2.93593C28.7492 5.178 29.2895 7.82718 28.8639 10.7019C28.5941 12.5237 27.7861 14.1126 26.7331 15.5734C25.3507 17.4911 23.6674 19.1115 21.931 20.6733C19.8837 22.5148 17.8258 24.3432 15.7686 26.173C14.9776 26.8767 14.1285 26.9096 13.3686 26.2287C10.6854 23.8226 7.99512 21.4238 5.34448 18.9797C3.99968 17.74 2.79227 16.3568 1.80438 14.7848C0.870317 13.3013 0.246428 11.7021 0.0984221 9.925C0.0927568 9.85836 0.0708038 9.79393 0.0566406 9.72803C0.0566406 9.27991 0.0566406 8.83179 0.0566406 8.38367V8.38293ZM14.5222 24.9495C14.5966 24.8894 14.6561 24.8448 14.712 24.795C17.0001 22.7499 19.3016 20.7216 21.5699 18.6538C23.154 17.2091 24.661 15.6795 25.8351 13.8424C26.9526 12.0938 27.505 10.1908 27.2486 8.08419C26.9717 5.81137 26.0306 3.9237 24.0775 2.73603C22.2575 1.62965 20.3377 1.49345 18.4044 2.45266C17.2614 3.01941 16.418 3.94493 15.7127 5.01398C15.6121 5.16701 15.5215 5.32737 15.4159 5.47601C14.95 6.13501 14.12 6.13208 13.647 5.4804C13.2348 4.91293 12.8574 4.31031 12.3886 3.79776C10.8724 2.1422 9.00142 1.50004 6.84224 1.98258C4.5138 2.50319 2.98489 4.02841 2.21016 6.32319C1.31009 8.99068 1.73923 11.5 3.22566 13.8395C4.14769 15.2907 5.2772 16.5619 6.5179 17.7166C8.56944 19.6255 10.6628 21.4868 12.7405 23.3649C13.3276 23.8958 13.9231 24.4171 14.5222 24.9495Z" fill="#222426"/>
</g>
<defs>
<clipPath id="clip0_89_418">
<rect width="28.9432" height="26.6558" fill="white" transform="translate(0.0566406 0.0649414)"/>
</clipPath>
</defs>
</svg>
