<svg width="265" height="150" viewBox="0 0 265 150" fill="none" xmlns="http://www.w3.org/2000/svg">
<g clip-path="url(#clip0_57_312)">
<path d="M9.57891 117.423C5.51983 116.667 2.78685 114.099 1.01648 110.667C-0.188459 108.334 -0.154802 105.61 0.255818 102.96C0.982818 98.2601 1.61558 93.547 2.34258 88.8474C2.97533 84.7412 3.7158 80.6484 4.35529 76.5421C4.94766 72.773 5.46598 68.9904 6.02469 65.2145C6.7113 60.5554 7.39791 55.8895 8.09799 51.2304C9 45.2362 9.95587 39.242 10.831 33.2411C11.7061 27.2266 16.8085 23.026 22.6649 23.0665C29.632 23.1137 36.5991 23.1474 43.5661 23.1946C52.8623 23.262 62.1517 23.3294 71.4479 23.4103C75.7359 23.444 80.0373 23.3092 84.3118 23.6126C88.492 23.916 92.1405 26.3838 93.7224 30.598C94.6782 33.1467 94.934 35.9786 95.3379 38.7093C96.2669 44.9058 97.115 51.1225 97.9565 57.3324C98.5152 61.4522 98.9594 65.5854 99.5182 69.6984C100.245 75.0453 101.053 80.3854 101.78 85.7323C102.44 90.587 103.093 95.4484 103.651 100.317C103.947 102.865 104.358 105.461 104.143 107.983C103.806 111.975 101.706 114.935 98.0507 116.883C94.9542 118.528 91.7164 118.151 88.4853 118.164C82.7231 118.185 76.9543 118.164 71.1921 118.117C64.9722 118.07 58.7523 117.976 52.5392 117.922C47.78 117.881 43.0142 117.908 38.255 117.868C33.1391 117.82 28.0232 117.733 22.9072 117.665C18.8953 117.611 14.8833 117.564 10.8714 117.504C10.4338 117.504 10.003 117.443 9.56545 117.409L9.57891 117.423ZM49.4629 53.1385C53.4614 53.806 56.9483 53.6105 60.3881 52.3901C63.6461 51.2304 66.4733 49.5042 68.7553 46.8544C72.1345 42.9302 73.1981 37.9811 74.8406 33.2883C75.3454 31.8521 74.78 30.9553 73.5279 30.5373C72.0268 30.0383 71.4748 31.0834 70.9969 32.1016C70.593 32.9646 70.4113 33.9288 70.0747 34.8256C68.9707 37.8126 68.2841 40.9883 66.1906 43.5438C62.4547 48.1018 57.6147 50.0639 51.8324 49.3694C46.1376 48.6817 41.6746 45.9779 39.4061 40.4557C38.2348 37.6103 37.3261 34.657 36.2557 31.7712C35.6634 30.1867 34.8018 29.7416 33.516 30.2136C32.4794 30.598 32.0822 32.0139 32.5871 33.3422C32.9977 34.4278 33.3612 35.5335 33.7382 36.6326C34.7546 39.5724 35.5759 42.5256 37.4405 45.1755C40.5572 49.5986 44.7374 52.0799 49.4629 53.1385Z" fill="white"/>
<path d="M32.1495 19.0409C33.9805 12.6827 36.1278 6.76939 42.1054 2.99352C49.2273 -1.5038 59.2572 -0.869995 65.6857 4.38924C69.2669 7.31554 71.3065 11.1858 72.4643 15.6022C72.7942 16.8631 73.2789 18.0902 73.7164 19.405C72.4711 19.4253 71.3469 19.5534 70.2631 19.4185C69.8391 19.3646 69.2871 18.7847 69.1323 18.333C67.9812 14.874 66.9311 11.4083 64.2452 8.70452C60.5698 5.01631 56.1001 3.58687 51.0717 4.16674C43.6402 5.02305 39.231 9.47318 37.2722 16.5462C36.5385 19.1758 36.424 19.2837 33.7449 19.1691C33.2872 19.1488 32.8294 19.0949 32.1495 19.0409Z" fill="white"/>
<path d="M78.8121 126.121C76.4157 126.667 74.3222 125.905 72.5451 124.448C71.3402 123.457 70.7209 121.96 70.317 120.416C69.6102 117.679 68.8495 114.955 68.1427 112.211C67.5234 109.817 66.9647 107.41 66.3521 105.016C65.7867 102.818 65.1876 100.627 64.6019 98.4286C63.8817 95.7181 63.1614 93.0076 62.4479 90.297C61.5324 86.8044 60.6506 83.3117 59.7149 79.8258C58.7792 76.3331 60.5833 72.8337 63.7942 71.4784C67.6109 69.8602 71.4277 68.2352 75.2444 66.6237C80.3401 64.4661 85.4359 62.3152 90.5316 60.171C92.8809 59.1799 95.2032 58.0876 97.6064 57.2515C99.9624 56.4289 102.534 56.9211 104.392 58.8495C105.516 60.016 106.317 61.5061 107.179 62.9018C109.144 66.0708 111.063 69.2668 112.981 72.4628C114.253 74.58 115.472 76.7309 116.744 78.8548C118.4 81.6058 120.09 84.3366 121.745 87.0808C123.247 89.5756 124.748 92.0838 126.195 94.6056C126.956 95.9271 127.79 97.2487 128.268 98.6781C129.022 100.937 128.571 103.047 127.03 104.976C125.724 106.607 123.866 107.16 122.102 107.929C118.959 109.298 115.802 110.646 112.644 111.981C109.238 113.424 105.812 114.833 102.406 116.27C99.7941 117.369 97.1958 118.508 94.5907 119.607C91.7836 120.787 88.9699 121.947 86.1561 123.113C83.9482 124.03 81.747 124.947 79.5391 125.864C79.2968 125.965 79.0477 126.033 78.8054 126.121H78.8121ZM85.5032 81.5923C87.8457 81.0125 89.7036 80.0887 91.299 78.6054C92.8068 77.2029 93.9445 75.5914 94.5705 73.6091C95.4927 70.6693 94.9138 67.716 94.7118 64.7628C94.6513 63.8593 94.1262 63.5019 93.3453 63.5693C92.4097 63.6502 92.3491 64.3515 92.3289 65.019C92.3087 65.5854 92.4366 66.1585 92.4635 66.7249C92.5578 68.6195 92.9347 70.5142 92.3895 72.4021C91.4201 75.7735 89.2324 77.985 85.9138 78.9695C82.6423 79.9404 79.566 79.5089 77.0283 77.0276C75.7223 75.7465 74.5309 74.3508 73.2654 73.0225C72.572 72.2943 71.9931 72.2538 71.4007 72.8202C70.9228 73.2719 71.0372 74.1417 71.6296 74.7486C72.1075 75.2475 72.5653 75.7667 73.0298 76.2724C74.2751 77.6412 75.4194 79.0639 77.0619 80.0685C79.8084 81.7542 82.6692 82.125 85.5032 81.5856V81.5923Z" fill="#329FD9"/>
<path d="M68.0282 67.0486C67.5368 63.1446 67.3214 59.4025 69.6976 55.9368C72.5316 51.8035 78.1591 49.7808 82.9115 51.1428C85.557 51.8979 87.5832 53.5297 89.2458 55.6738C89.7238 56.2874 90.2758 56.8403 90.8277 57.4606C90.1546 57.764 89.569 58.1011 88.9429 58.2832C88.7006 58.3574 88.2563 58.1686 88.0678 57.9528C86.6273 56.3346 85.2406 54.6894 83.1337 53.8466C80.2593 52.6936 77.486 52.97 74.8674 54.4736C71.0103 56.6919 69.6438 60.1644 70.2362 64.4864C70.4583 66.0979 70.4179 66.1788 68.9235 66.7519C68.6677 66.8463 68.4052 66.9272 68.0215 67.0553L68.0282 67.0486Z" fill="#329FD9"/>
<path d="M92.8659 59.4639L68.2802 69.73L77.3742 91.5807L101.96 81.3146L92.8659 59.4639Z" fill="#329FD9"/>
<path d="M112.698 97.0667C112.914 97.6129 113.015 98.159 113.015 98.7254C113.015 100.209 112.469 101.49 111.379 102.569C110.288 103.654 108.875 104.544 107.125 105.252C105.375 105.953 103.395 106.486 101.194 106.837C98.9931 107.187 96.7851 107.363 94.5637 107.363C91.9654 107.363 89.5825 107.181 87.4284 106.837C85.2743 106.493 83.3491 105.933 81.6393 105.165C79.9363 104.403 78.4688 103.412 77.2302 102.178C75.9983 100.957 74.9819 99.4603 74.1943 97.7073C73.925 97.1881 73.6356 96.9319 73.3192 96.9319C73.2519 96.9319 73.1442 96.9453 73.0028 96.9656C72.8615 96.9858 72.6999 97.006 72.5316 97.033C72.3566 97.0532 72.1951 97.0735 72.0402 97.0937C71.8787 97.1207 71.7575 97.1274 71.67 97.1274C71.044 97.1274 70.492 96.8644 70.0208 96.3318C69.5429 95.8058 69.3073 95.1046 69.3073 94.2281C69.3073 93.6482 69.5025 93.0818 69.8794 92.5424C70.2631 92.003 70.8555 91.558 71.6633 91.1939C71.9123 91.086 72.1075 90.9512 72.2489 90.8096C72.4037 90.6612 72.471 90.4522 72.471 90.1825C72.471 89.461 72.4576 88.6991 72.4239 87.8765C72.3903 87.0539 72.3431 86.0965 72.2691 84.9907C72.2489 84.7682 72.1749 84.5524 72.047 84.3569C71.9258 84.1479 71.7912 83.9186 71.6498 83.6691C71.495 83.4062 71.3738 83.123 71.2594 82.8061C71.1517 82.4892 71.0911 82.1048 71.0911 81.6261C71.0911 81.1946 71.1517 80.7159 71.2796 80.163C71.4075 79.6101 71.6565 79.0909 72.0537 78.6122C72.4509 78.1334 72.9961 77.7289 73.7029 77.3985C74.4164 77.0749 75.3387 76.913 76.483 76.913C76.9609 76.913 77.3514 76.9535 77.661 77.0411C77.9774 77.1288 78.2534 77.2434 78.489 77.358C78.7246 77.4794 78.94 77.594 79.1285 77.6817C79.317 77.7693 79.5122 77.8098 79.7141 77.8098C80.0709 77.8098 80.7912 77.7491 81.8682 77.6075C82.952 77.4794 84.2444 77.2839 85.759 77.0344C87.2736 76.7849 88.9497 76.5085 90.7807 76.1916C92.6116 75.8747 94.4695 75.5375 96.3543 75.16C98.2459 74.7891 100.077 74.4115 101.881 74.0339C103.671 73.6496 105.3 73.272 106.761 72.9147C107.212 72.8068 107.603 72.7461 107.939 72.7461C108.41 72.7461 108.787 72.8472 109.063 73.063C109.346 73.2788 109.555 73.5485 109.689 73.8586C109.817 74.1755 109.905 74.5261 109.938 74.924C109.972 75.3218 109.992 75.6859 109.992 76.023C109.992 76.6029 109.79 77.149 109.4 77.6547C109.01 78.1672 108.363 78.5582 107.461 78.8549C105.24 79.5022 102.998 80.0686 100.743 80.554C98.4882 81.0395 96.2197 81.4778 93.931 81.8756C91.6423 82.2734 89.3401 82.624 87.0312 82.9409C84.7156 83.2511 82.4202 83.568 80.1315 83.8782C79.8151 83.9254 79.5795 84.0467 79.4179 84.2355C79.2564 84.4243 79.1823 84.6805 79.1823 84.9907V86.3797C79.1823 86.7573 79.1891 87.1551 79.216 87.5596C79.2362 87.9574 79.2833 88.335 79.3708 88.6722C79.4449 89.0025 79.5593 89.279 79.6872 89.4948C79.8218 89.7105 80.0036 89.8184 80.2257 89.8184C80.7642 89.8184 81.6057 89.7038 82.7365 89.4813C83.8674 89.252 85.1531 88.9756 86.5802 88.6519C88.0006 88.3283 89.495 87.9709 91.0567 87.5731C92.6184 87.1753 94.0926 86.8179 95.486 86.4943C96.8794 86.1706 98.0978 85.8942 99.1546 85.6649C100.211 85.4424 100.952 85.3278 101.383 85.3278C102.009 85.3278 102.487 85.5638 102.81 86.0156C103.133 86.4808 103.355 87.0607 103.463 87.7552C103.463 87.863 103.476 87.9709 103.496 88.0586C103.517 88.1462 103.53 88.2474 103.53 88.362C103.53 89.0093 103.335 89.6094 102.944 90.1623C102.554 90.7152 101.847 91.1197 100.844 91.3894C100.568 91.4771 100.03 91.6254 99.2219 91.8075C98.4142 92.003 97.465 92.2188 96.361 92.4817C95.2638 92.738 94.0724 93.0144 92.7934 93.3043C91.5077 93.601 90.2556 93.8842 89.0237 94.1674C87.7919 94.4506 86.6408 94.7203 85.5705 94.9765C84.5069 95.2395 83.6318 95.4485 82.9654 95.6036C82.3596 95.7586 81.9961 95.88 81.8682 95.9677C81.7403 96.0553 81.6797 96.1767 81.6797 96.3048C81.7268 96.8038 81.9759 97.2555 82.4404 97.687C82.9048 98.1186 83.4837 98.5096 84.1905 98.867C84.8974 99.2244 85.6917 99.548 86.5802 99.8447C87.462 100.135 88.3843 100.377 89.3401 100.573C90.2893 100.762 91.2317 100.91 92.1539 101.031C93.0694 101.139 93.9243 101.2 94.7118 101.2H96.1591C96.7851 101.2 97.4785 101.186 98.2257 101.153C98.9729 101.119 99.747 101.072 100.548 100.998C101.349 100.923 102.063 100.829 102.709 100.708C103.342 100.586 103.873 100.431 104.291 100.236C104.708 100.04 104.91 99.8177 104.91 99.548C104.91 99.2985 104.829 99.0423 104.661 98.7726C104.486 98.4961 104.405 98.2062 104.405 97.8961C104.405 97.4376 104.526 96.9993 104.775 96.561C105.024 96.116 105.341 95.7249 105.731 95.3811C106.122 95.0304 106.573 94.754 107.078 94.5382C107.589 94.3225 108.101 94.2146 108.606 94.2146C109.259 94.2146 109.851 94.3427 110.389 94.5989C110.928 94.8619 111.399 95.199 111.79 95.617C112.18 96.0351 112.483 96.5071 112.698 97.0465V97.0667Z" fill="white"/>
<path d="M126.444 72.9079C126.444 72.1595 126.659 71.6201 127.09 71.3032C127.521 70.9863 128.235 70.8245 129.231 70.8245C129.574 70.8245 129.877 70.8582 130.14 70.9323C130.402 71.0065 130.618 71.1211 130.786 71.2897C130.954 71.4583 131.102 71.6808 131.21 71.964C131.318 72.2472 131.405 72.6045 131.479 73.036C131.668 74.3239 131.856 75.6724 132.051 77.0816C132.247 78.4908 132.435 79.8933 132.617 81.289C132.799 82.6847 132.967 84.04 133.128 85.3615C133.29 86.6831 133.425 87.9103 133.552 89.0498C133.674 90.1825 133.768 91.1872 133.835 92.0637C133.903 92.9402 133.929 93.628 133.929 94.1337C133.929 94.6394 133.882 95.0979 133.788 95.4552C133.694 95.8193 133.532 96.1025 133.31 96.325C133.088 96.5408 132.799 96.6959 132.442 96.7903C132.085 96.8847 131.654 96.9319 131.129 96.9319C130.604 96.9319 130.22 96.8038 129.931 96.5408C129.635 96.2778 129.487 95.88 129.487 95.3474C129.487 94.8147 129.446 94.0663 129.359 93.1493C129.271 92.2323 129.157 91.2074 129.015 90.0814C128.874 88.9554 128.706 87.7552 128.531 86.4808C128.349 85.2065 128.161 83.9523 127.965 82.7117C127.77 81.4711 127.582 80.2709 127.4 79.1246C127.218 77.9784 127.057 76.9602 126.915 76.0702C126.774 75.1802 126.653 74.452 126.572 73.8789C126.484 73.3057 126.444 72.9888 126.444 72.9147V72.9079Z" fill="white"/>
<path d="M155.793 92.8525C156.211 92.4884 156.621 92.3131 157.025 92.3131C157.254 92.3131 157.463 92.3738 157.651 92.4884C157.84 92.6031 158.048 92.7851 158.277 93.0279C158.493 93.3582 158.647 93.6347 158.742 93.8437C158.836 94.0527 158.883 94.2618 158.883 94.464C158.883 94.8956 158.668 95.3068 158.23 95.6979C157.537 96.2778 156.79 96.7902 155.982 97.2487C155.174 97.7072 154.333 98.0916 153.451 98.4085C152.569 98.7254 151.66 98.9681 150.725 99.1367C149.789 99.3052 148.853 99.3861 147.931 99.3861C146.766 99.3861 145.669 99.2378 144.639 98.9411C143.616 98.6445 142.701 98.2197 141.9 97.6735C141.098 97.1274 140.425 96.4666 139.873 95.6912C139.328 94.9158 138.938 94.046 138.709 93.0818C138.581 92.6772 138.46 92.4143 138.352 92.2929C138.244 92.1715 138.069 92.1109 137.82 92.1109C137.288 92.1109 136.878 91.9827 136.588 91.7198C136.299 91.4568 136.158 91.086 136.158 90.5938C136.158 90.3915 136.171 90.2634 136.205 90.2027L136.245 89.7712C136.319 89.252 136.461 88.8744 136.669 88.6452C136.878 88.4159 137.208 88.3013 137.652 88.3013H137.975C138.581 88.3013 139.005 88.0181 139.254 87.4585C139.698 86.4605 140.271 85.5503 140.964 84.7277C141.657 83.9051 142.438 83.1971 143.3 82.6173C144.168 82.0306 145.09 81.5789 146.08 81.2552C147.069 80.9316 148.072 80.7698 149.102 80.7698C150.132 80.7698 151.169 80.9249 152.098 81.235C153.027 81.5452 153.841 81.9767 154.535 82.5229C155.228 83.069 155.773 83.7163 156.17 84.4512C156.567 85.1862 156.763 85.9818 156.763 86.8381C156.763 87.4315 156.648 87.9709 156.419 88.4631C156.19 88.9553 155.861 89.3868 155.423 89.7509C154.992 90.1218 154.467 90.4185 153.855 90.6477C153.242 90.877 152.542 91.032 151.768 91.1062L144.262 91.8681C143.973 91.8681 143.737 91.9423 143.555 92.0839C143.374 92.2255 143.286 92.421 143.286 92.6705C143.286 93.0481 143.428 93.4054 143.71 93.7561C143.993 94.0999 144.37 94.4101 144.834 94.6798C145.306 94.9495 145.844 95.1585 146.457 95.3203C147.069 95.4822 147.702 95.5563 148.348 95.5563C148.995 95.5563 149.607 95.4956 150.267 95.3743C150.92 95.2529 151.573 95.0776 152.212 94.8416C152.852 94.6124 153.478 94.3292 154.084 94.0055C154.689 93.6819 155.262 93.311 155.793 92.8863V92.8525ZM150.967 87.2629C151.182 87.2225 151.371 87.1146 151.532 86.946C151.687 86.7774 151.768 86.5752 151.768 86.3257C151.768 86.1099 151.687 85.9076 151.532 85.7189C151.371 85.5301 151.155 85.3615 150.879 85.2064C150.603 85.0513 150.287 84.9367 149.93 84.8491C149.573 84.7614 149.19 84.7209 148.786 84.7209C148.193 84.7209 147.588 84.8086 146.968 84.9839C146.349 85.1592 145.784 85.3817 145.279 85.6649C144.774 85.9481 144.363 86.2583 144.047 86.5954C143.731 86.9325 143.569 87.2697 143.569 87.6C143.569 87.9304 143.771 88.099 144.175 88.099C144.417 88.099 144.814 88.072 145.366 88.0113C145.911 87.9507 146.517 87.8832 147.184 87.8023C147.85 87.7214 148.517 87.6338 149.196 87.5326C149.876 87.4315 150.462 87.3371 150.974 87.2494L150.967 87.2629Z" fill="white"/>
<path d="M167.89 79.7112C168.637 79.7112 169.371 79.8191 170.077 80.0348C170.784 80.2506 171.41 80.5473 171.949 80.9114C172.487 81.2822 172.925 81.7003 173.261 82.1655C173.598 82.6307 173.76 83.1162 173.76 83.6084C173.76 83.9253 173.692 84.2355 173.564 84.5322C173.436 84.8288 173.261 85.0918 173.046 85.3143C172.831 85.5368 172.582 85.7189 172.312 85.8537C172.043 85.9886 171.747 86.0627 171.444 86.0627C171.114 86.0627 170.811 85.9346 170.535 85.6851C170.259 85.4357 169.97 85.1525 169.66 84.8423C169.35 84.5322 169 84.249 168.623 83.9995C168.247 83.75 167.782 83.6219 167.25 83.6219C166.718 83.6219 166.261 83.7433 165.843 83.9927C165.426 84.2355 165.076 84.5793 164.793 85.0244C164.511 85.4626 164.295 85.9886 164.147 86.5819C163.992 87.182 163.918 87.836 163.918 88.544C163.918 90.5668 164.302 92.1108 165.063 93.1694C165.823 94.2348 166.92 94.7607 168.354 94.7607C169.034 94.7607 169.613 94.6528 170.098 94.4371C170.582 94.2213 171.006 93.9786 171.377 93.7223C171.747 93.4594 172.083 93.2234 172.38 93.0076C172.683 92.7919 172.992 92.684 173.309 92.684C173.484 92.684 173.652 92.7379 173.827 92.8458C174.002 92.9537 174.157 93.0885 174.291 93.2571C174.426 93.4257 174.54 93.6077 174.635 93.81C174.729 94.0123 174.776 94.2145 174.776 94.4168C174.776 94.8956 174.54 95.3878 174.069 95.8935C173.598 96.3992 172.999 96.8576 172.265 97.2689C171.531 97.6802 170.71 98.0174 169.808 98.2736C168.906 98.5366 168.031 98.6647 167.176 98.6647C166.039 98.6647 164.988 98.4422 164.039 98.0039C163.09 97.5656 162.262 96.952 161.576 96.1632C160.882 95.3743 160.344 94.4303 159.96 93.338C159.576 92.239 159.388 91.0253 159.388 89.697C159.388 88.2541 159.603 86.9258 160.027 85.7054C160.451 84.4917 161.044 83.4398 161.804 82.5498C162.558 81.6598 163.46 80.9653 164.497 80.4664C165.534 79.9674 166.671 79.7179 167.896 79.7179L167.89 79.7112Z" fill="white"/>
<path d="M177.321 72.564C177.321 71.7954 177.536 71.2627 177.967 70.9525C178.398 70.6424 179.111 70.4873 180.107 70.4873C180.464 70.4873 180.774 70.521 181.03 70.5817C181.279 70.6491 181.501 70.7638 181.676 70.9391C181.851 71.1144 181.999 71.3369 182.107 71.6201C182.214 71.9033 182.302 72.2606 182.376 72.6921C182.551 74.0339 182.739 75.4229 182.948 76.8523C183.157 78.2818 183.379 79.7179 183.608 81.1676C183.695 81.8149 184.032 82.1453 184.624 82.1453C184.786 82.1453 185.048 82.1251 185.412 82.0913C185.782 82.0576 186.213 82.0104 186.718 81.9632C187.223 81.916 187.768 81.8554 188.353 81.8014C188.939 81.7407 189.525 81.6868 190.104 81.6396C190.689 81.5924 191.241 81.5452 191.773 81.5115C192.298 81.4778 192.763 81.4575 193.166 81.4575C193.483 81.4575 193.739 81.5182 193.92 81.6396C194.109 81.761 194.257 81.9228 194.365 82.1183C194.472 82.3139 194.546 82.5296 194.58 82.7656C194.614 83.0016 194.634 83.2443 194.634 83.4938C194.634 83.7096 194.594 83.9321 194.513 84.1681C194.432 84.3973 194.324 84.6063 194.19 84.7884C194.055 84.9704 193.88 85.1188 193.678 85.2334C193.476 85.348 193.247 85.4087 192.985 85.4087C191.726 85.4087 190.46 85.4492 189.188 85.5301C187.909 85.611 186.637 85.7121 185.371 85.847C184.718 85.9346 184.395 86.2583 184.395 86.8247C184.395 86.8651 184.402 86.9191 184.416 86.9865C184.429 87.0539 184.436 87.1079 184.436 87.1483C184.611 88.4024 184.772 89.5824 184.92 90.6814C185.068 91.7805 185.203 92.7582 185.311 93.6212C185.419 94.4843 185.506 95.199 185.573 95.7654C185.641 96.3385 185.668 96.7161 185.668 96.9049C185.668 97.4241 185.62 97.8623 185.52 98.2129C185.419 98.5636 185.25 98.8535 185.021 99.0827C184.792 99.3052 184.483 99.4671 184.099 99.5615C183.715 99.6559 183.238 99.7031 182.659 99.7031C182.08 99.7031 181.709 99.5749 181.447 99.312C181.184 99.049 181.043 98.6512 181.016 98.1185C180.929 96.4127 180.794 94.7 180.606 92.9672C180.417 91.2411 180.202 89.515 179.953 87.7956C179.825 87.1753 179.502 86.8651 178.977 86.8651C178.936 86.8651 178.882 86.8719 178.822 86.8853C178.761 86.8988 178.714 86.9056 178.674 86.9056C177.778 87.1079 176.937 87.3101 176.143 87.5124C175.348 87.7147 174.608 87.9305 173.914 88.1597C173.524 88.2878 173.181 88.3822 172.878 88.4294C172.575 88.4766 172.299 88.5036 172.057 88.5036C171.727 88.5036 171.478 88.3552 171.323 88.0586C171.161 87.7619 171.087 87.391 171.087 86.9393C171.087 86.7775 171.101 86.5954 171.128 86.3864C171.155 86.1774 171.208 85.9684 171.289 85.7593C171.37 85.5503 171.484 85.3548 171.632 85.1727C171.781 84.9907 171.989 84.8423 172.252 84.7277C172.858 84.485 173.665 84.2288 174.675 83.959C175.685 83.6893 176.822 83.4399 178.095 83.2106C178.384 83.1365 178.613 83.0218 178.775 82.8533C178.936 82.6847 179.024 82.4352 179.024 82.1048V81.8756C179.024 81.7947 179.01 81.7138 178.983 81.6261C178.754 80.2978 178.532 79.0841 178.324 77.9986C178.115 76.9063 177.933 75.969 177.785 75.1936C177.63 74.4115 177.516 73.7979 177.428 73.3529C177.341 72.9079 177.3 72.6449 177.3 72.5708L177.321 72.564Z" fill="white"/>
<path d="M205.128 81.3833C204.596 81.3833 204.125 81.5249 203.721 81.8081C203.317 82.0913 202.974 82.4823 202.685 82.9813C202.395 83.4802 202.16 84.0668 201.971 84.7344C201.783 85.4086 201.635 86.1368 201.52 86.9325C201.406 87.7281 201.325 88.5574 201.285 89.4272C201.244 90.297 201.217 91.1668 201.217 92.0501C201.217 93.2098 201.264 94.3426 201.359 95.4619C201.453 96.5811 201.5 97.6195 201.5 98.5702C201.5 99.1905 201.271 99.676 200.807 100.033C200.342 100.384 199.689 100.566 198.834 100.566C198.673 100.566 198.498 100.553 198.296 100.526C198.094 100.499 197.905 100.438 197.724 100.35C197.542 100.263 197.387 100.141 197.246 99.9929C197.111 99.8378 197.03 99.6355 197.017 99.3726C196.889 98.0982 196.7 96.8036 196.451 95.4686C196.209 94.1403 195.899 92.812 195.529 91.4905C195.159 90.1689 194.721 88.8541 194.21 87.5528C193.698 86.2515 193.113 84.9838 192.446 83.7365C192.332 83.5207 192.231 83.3184 192.157 83.1296C192.076 82.9408 192.036 82.7588 192.036 82.5902C192.036 82.3744 192.13 82.1385 192.325 81.8822C192.52 81.6328 192.763 81.3968 193.059 81.181C193.355 80.9652 193.678 80.7899 194.035 80.6483C194.385 80.5135 194.728 80.4393 195.065 80.4393C195.61 80.4393 196.095 80.8169 196.512 81.5788C196.929 82.3407 197.32 83.5477 197.683 85.2064C197.757 85.4963 197.811 85.6986 197.858 85.8132C197.899 85.9278 197.959 85.9885 198.033 85.9885C198.188 85.9885 198.296 85.7458 198.336 85.2535C198.511 83.8781 198.807 82.6981 199.225 81.7069C199.642 80.7158 200.167 79.8999 200.793 79.2594C201.419 78.6188 202.139 78.1401 202.954 77.8367C203.768 77.5333 204.664 77.3782 205.647 77.3782C206.205 77.3782 206.777 77.4321 207.356 77.5333C207.935 77.6344 208.454 77.7895 208.911 77.9917C209.376 78.194 209.746 78.4368 210.035 78.7267C210.325 79.0166 210.466 79.3403 210.466 79.7044C210.466 79.9673 210.412 80.2708 210.305 80.6281C210.197 80.9855 210.056 81.3226 209.881 81.6462C209.706 81.9699 209.51 82.2463 209.288 82.4688C209.066 82.6914 208.837 82.806 208.608 82.806C208.346 82.806 208.097 82.7318 207.848 82.5767C207.605 82.4284 207.336 82.2598 207.06 82.0913C206.777 81.916 206.481 81.7541 206.172 81.6058C205.862 81.4507 205.512 81.3765 205.122 81.3765L205.128 81.3833Z" fill="white"/>
<path d="M209.369 90.3982C209.369 90.1555 209.396 89.879 209.457 89.5756C209.517 89.2722 209.544 88.9418 209.544 88.5777C209.544 88.3349 209.436 88.1462 209.228 88.0113C209.019 87.8765 208.783 87.7349 208.528 87.5798C208.265 87.418 208.036 87.2157 207.821 86.9729C207.612 86.7302 207.504 86.3729 207.504 85.9076C207.504 85.5772 207.592 85.2401 207.774 84.9097C207.955 84.5793 208.218 84.2759 208.561 83.9995C209.409 83.3656 210.298 82.7925 211.214 82.2868C212.129 81.7811 213.044 81.3563 213.96 81.0057C214.875 80.6619 215.784 80.3921 216.673 80.2034C217.568 80.0146 218.423 79.9202 219.251 79.9202C220.638 79.9202 221.937 80.1764 223.155 80.6888C224.374 81.2013 225.437 81.9025 226.339 82.7925C227.241 83.6825 227.955 84.7209 228.48 85.9144C229.005 87.1078 229.267 88.3821 229.267 89.7374C229.267 91.0927 228.991 92.3266 228.433 93.52C227.881 94.7135 227.133 95.7586 226.191 96.6553C225.255 97.5521 224.151 98.2601 222.893 98.7928C221.634 99.3254 220.301 99.5816 218.901 99.5816C217.528 99.5816 216.262 99.3524 215.091 98.8871C213.92 98.4219 212.91 97.7881 212.062 96.9655C211.207 96.1496 210.547 95.1787 210.069 94.0594C209.591 92.9402 209.356 91.713 209.356 90.3847L209.369 90.3982ZM219.386 95.6844C219.991 95.6844 220.617 95.563 221.27 95.3136C221.917 95.0708 222.516 94.7135 223.054 94.2415C223.593 93.7695 224.044 93.1964 224.394 92.5154C224.744 91.8344 224.926 91.0725 224.926 90.2161C224.926 89.3598 224.764 88.5372 224.448 87.7888C224.131 87.0404 223.694 86.3863 223.135 85.8267C222.576 85.2738 221.923 84.8355 221.163 84.5186C220.409 84.2017 219.587 84.0399 218.706 84.0399C217.104 84.0399 215.878 84.4579 215.024 85.2873C214.169 86.1166 213.745 87.391 213.745 89.1104C213.745 90.0476 213.886 90.9174 214.169 91.7197C214.451 92.5221 214.842 93.2166 215.347 93.8032C215.852 94.3898 216.444 94.8483 217.13 95.1787C217.817 95.5091 218.564 95.6777 219.372 95.6777L219.386 95.6844Z" fill="white"/>
<path d="M229.368 103.095C228.19 103.708 227.039 104.308 225.868 104.915C225.787 104.585 225.706 104.268 225.632 103.958C225.518 103.465 225.403 102.98 225.289 102.488C225.188 102.063 225.094 101.638 224.993 101.213C224.872 100.708 224.751 100.195 224.629 99.6895C224.495 99.1231 224.367 98.55 224.225 97.9836C224.098 97.4307 223.956 96.8846 223.828 96.3384C223.734 95.9541 223.64 95.5698 223.552 95.1854C223.546 95.145 223.579 95.0776 223.62 95.0573C224.589 94.5516 225.565 94.0527 226.541 93.547C227.154 93.2301 227.766 92.9064 228.379 92.5828C228.406 92.5693 228.439 92.5626 228.46 92.5491L229.059 98.9343C230.418 98.2264 231.765 97.5251 233.145 96.8104C232.761 101.84 232.384 106.83 232.007 111.813C231.994 111.813 231.98 111.819 231.967 111.826C231.105 108.927 230.243 106.021 229.382 103.101L229.368 103.095Z" fill="white"/>
</g>
<path d="M140.996 121.561C141.737 121.561 142.501 121.66 143.287 121.859C144.072 122.048 144.792 122.297 145.445 122.606C146.098 122.905 146.635 123.243 147.055 123.619C147.476 123.995 147.686 124.361 147.686 124.715C147.686 124.892 147.609 125.091 147.454 125.312C147.299 125.523 147.11 125.728 146.889 125.927C146.668 126.115 146.424 126.275 146.159 126.408C145.904 126.53 145.677 126.591 145.478 126.591C145.212 126.591 144.914 126.48 144.581 126.259C144.261 126.037 143.901 125.794 143.502 125.528C143.115 125.252 142.689 125.003 142.224 124.781C141.759 124.56 141.256 124.449 140.713 124.449C140.359 124.449 140.066 124.538 139.833 124.715C139.612 124.881 139.501 125.119 139.501 125.429C139.501 125.705 139.634 125.988 139.9 126.275C140.165 126.552 140.514 126.84 140.946 127.139C141.388 127.438 141.886 127.753 142.44 128.085C142.993 128.417 143.558 128.771 144.133 129.147C144.72 129.524 145.29 129.933 145.843 130.376C146.397 130.819 146.889 131.3 147.321 131.82C147.763 132.34 148.118 132.91 148.383 133.53C148.649 134.139 148.782 134.803 148.782 135.522C148.782 136.142 148.671 136.707 148.45 137.216C148.228 137.725 147.913 138.162 147.503 138.527C147.094 138.893 146.607 139.175 146.042 139.374C145.478 139.573 144.858 139.673 144.183 139.673C143.331 139.673 142.545 139.54 141.826 139.274C141.106 139.02 140.486 138.666 139.966 138.212C139.446 137.758 139.037 137.216 138.738 136.585C138.45 135.954 138.306 135.262 138.306 134.51C138.306 133.536 138.478 132.827 138.821 132.385C139.175 131.942 139.728 131.721 140.481 131.721C140.946 131.721 141.317 131.809 141.593 131.986C141.87 132.163 142.008 132.379 142.008 132.634C142.008 132.767 141.986 132.905 141.942 133.049C141.898 133.182 141.848 133.326 141.792 133.48C141.748 133.624 141.704 133.779 141.66 133.945C141.626 134.111 141.61 134.277 141.61 134.443C141.61 134.731 141.676 135.008 141.809 135.273C141.942 135.539 142.119 135.771 142.34 135.971C142.573 136.181 142.838 136.347 143.137 136.469C143.436 136.59 143.751 136.651 144.083 136.651C144.969 136.651 145.412 136.286 145.412 135.556C145.412 134.98 145.185 134.438 144.731 133.929C144.277 133.409 143.707 132.905 143.021 132.418C142.335 131.92 141.593 131.422 140.796 130.924C140.011 130.426 139.275 129.906 138.588 129.363C137.902 128.821 137.332 128.245 136.878 127.637C136.425 127.017 136.198 126.347 136.198 125.628C136.198 125.03 136.319 124.482 136.563 123.984C136.817 123.486 137.161 123.06 137.592 122.706C138.024 122.341 138.527 122.059 139.103 121.859C139.69 121.66 140.32 121.561 140.996 121.561ZM148.914 119.983C148.914 118.788 149.689 118.19 151.239 118.19C151.504 118.19 151.737 118.262 151.936 118.406C152.135 118.55 152.251 118.749 152.285 119.004C152.384 119.679 152.473 120.349 152.55 121.013C152.628 121.677 152.7 122.424 152.766 123.254C152.844 124.073 152.915 125.025 152.982 126.109C153.059 127.183 153.142 128.467 153.231 129.961C153.231 130.116 153.253 130.227 153.297 130.293C153.353 130.359 153.414 130.393 153.48 130.393C153.58 130.393 153.679 130.293 153.779 130.094C154.155 129.264 154.576 128.522 155.04 127.869C155.505 127.205 156.003 126.646 156.535 126.192C157.066 125.728 157.625 125.379 158.211 125.146C158.809 124.903 159.418 124.781 160.038 124.781C160.857 124.781 161.598 125.014 162.262 125.479C162.926 125.943 163.491 126.602 163.956 127.454C164.42 128.306 164.78 129.341 165.035 130.559C165.289 131.765 165.416 133.115 165.416 134.609C165.416 135.019 165.383 135.356 165.317 135.622C165.261 135.877 165.162 136.081 165.018 136.236C164.874 136.391 164.675 136.496 164.42 136.552C164.166 136.618 163.85 136.651 163.474 136.651C162.954 136.651 162.578 136.552 162.345 136.353C162.124 136.153 162.013 135.843 162.013 135.423C162.013 134.382 161.941 133.403 161.797 132.484C161.664 131.555 161.476 130.741 161.233 130.044C160.989 129.347 160.702 128.793 160.37 128.384C160.049 127.974 159.7 127.77 159.324 127.77C158.471 127.77 157.619 128.461 156.767 129.845C155.926 131.228 155.046 133.314 154.127 136.104C154.039 136.358 153.939 136.568 153.829 136.734C153.718 136.9 153.585 137.033 153.43 137.133C153.286 137.232 153.109 137.299 152.899 137.332C152.689 137.376 152.44 137.398 152.152 137.398C151.565 137.398 151.145 137.288 150.89 137.066C150.647 136.845 150.514 136.48 150.492 135.971C150.425 134.045 150.303 132.208 150.126 130.459C149.96 128.699 149.783 127.111 149.595 125.694C149.418 124.267 149.258 123.06 149.114 122.075C148.981 121.079 148.914 120.382 148.914 119.983ZM167.857 130.459C167.857 130.271 167.879 130.061 167.923 129.828C167.968 129.596 167.99 129.341 167.99 129.064C167.99 128.876 167.907 128.732 167.741 128.633C167.586 128.533 167.409 128.423 167.209 128.301C167.01 128.179 166.828 128.024 166.662 127.836C166.507 127.648 166.429 127.377 166.429 127.022C166.429 126.768 166.496 126.513 166.628 126.259C166.772 126.004 166.977 125.772 167.243 125.562C167.896 125.075 168.571 124.637 169.268 124.25C169.976 123.863 170.679 123.536 171.376 123.271C172.085 123.005 172.782 122.8 173.468 122.656C174.154 122.512 174.813 122.44 175.444 122.44C176.506 122.44 177.502 122.64 178.432 123.038C179.373 123.425 180.186 123.962 180.872 124.648C181.57 125.324 182.118 126.12 182.516 127.039C182.926 127.947 183.13 128.921 183.13 129.961C183.13 130.979 182.914 131.948 182.483 132.866C182.062 133.774 181.492 134.571 180.773 135.257C180.053 135.943 179.207 136.485 178.233 136.884C177.27 137.293 176.252 137.498 175.178 137.498C174.127 137.498 173.153 137.321 172.256 136.967C171.36 136.613 170.585 136.126 169.932 135.506C169.279 134.875 168.77 134.133 168.405 133.281C168.039 132.418 167.857 131.477 167.857 130.459ZM175.543 134.51C176.008 134.51 176.49 134.416 176.988 134.228C177.486 134.039 177.94 133.768 178.349 133.414C178.77 133.049 179.113 132.606 179.378 132.086C179.655 131.566 179.793 130.979 179.793 130.326C179.793 129.662 179.672 129.042 179.428 128.467C179.185 127.891 178.847 127.393 178.415 126.973C177.995 126.541 177.491 126.203 176.905 125.96C176.329 125.716 175.704 125.595 175.029 125.595C173.8 125.595 172.859 125.916 172.206 126.558C171.553 127.188 171.227 128.162 171.227 129.479C171.227 130.199 171.332 130.868 171.542 131.488C171.764 132.097 172.068 132.628 172.456 133.082C172.843 133.525 173.297 133.873 173.817 134.128C174.348 134.382 174.924 134.51 175.543 134.51ZM183.695 124.383C183.695 123.951 183.888 123.625 184.276 123.403C184.663 123.171 185.217 123.055 185.936 123.055C186.102 123.055 186.251 123.077 186.384 123.121C186.517 123.165 186.633 123.254 186.733 123.387C186.844 123.508 186.943 123.68 187.032 123.901C187.12 124.123 187.209 124.405 187.297 124.748C187.386 125.135 187.474 125.329 187.563 125.329C187.64 125.329 187.734 125.169 187.845 124.848C188.044 124.217 188.304 123.669 188.625 123.204C188.957 122.728 189.328 122.335 189.738 122.025C190.147 121.704 190.59 121.466 191.066 121.312C191.553 121.157 192.062 121.079 192.593 121.079C193.667 121.079 194.668 121.284 195.598 121.693C196.528 122.092 197.33 122.651 198.005 123.37C198.68 124.078 199.212 124.92 199.599 125.894C199.986 126.856 200.18 127.902 200.18 129.031C200.18 130.227 199.97 131.333 199.549 132.352C199.14 133.37 198.564 134.25 197.823 134.991C197.081 135.722 196.196 136.292 195.166 136.701C194.148 137.122 193.03 137.332 191.813 137.332L190.966 137.299C190.468 137.299 190.219 137.581 190.219 138.146L191.066 145.766C191.055 145.954 190.988 146.125 190.867 146.28C190.756 146.446 190.601 146.59 190.402 146.712C190.214 146.834 189.987 146.928 189.721 146.994C189.467 147.061 189.201 147.094 188.924 147.094C188.127 147.094 187.696 146.834 187.629 146.313C187.397 144.299 187.137 142.384 186.849 140.569C186.572 138.754 186.285 137.066 185.986 135.506C185.698 133.934 185.416 132.507 185.139 131.223C184.862 129.939 184.613 128.821 184.392 127.869C184.182 126.917 184.016 126.143 183.894 125.545C183.761 124.947 183.695 124.56 183.695 124.383ZM189.09 128.766C189.09 129.485 189.118 130.199 189.173 130.907C189.229 131.604 189.317 132.363 189.439 133.182C189.505 133.68 189.776 133.962 190.252 134.028C190.54 134.095 190.861 134.161 191.215 134.228C191.581 134.283 191.885 134.311 192.128 134.311C192.837 134.311 193.479 134.205 194.054 133.995C194.63 133.785 195.122 133.486 195.532 133.099C195.941 132.7 196.257 132.23 196.478 131.688C196.699 131.145 196.81 130.542 196.81 129.878C196.81 129.07 196.699 128.317 196.478 127.62C196.257 126.912 195.952 126.298 195.565 125.777C195.189 125.257 194.74 124.848 194.22 124.549C193.711 124.25 193.158 124.101 192.56 124.101C192.04 124.101 191.564 124.217 191.132 124.449C190.712 124.671 190.346 124.986 190.037 125.396C189.738 125.794 189.505 126.281 189.339 126.856C189.173 127.432 189.09 128.068 189.09 128.766Z" fill="white"/>
<defs>
<clipPath id="clip0_57_312">
<rect width="233.138" height="132.405" fill="white"/>
</clipPath>
</defs>
</svg>
