<svg width="118" height="112" viewBox="0 0 118 112" fill="none" xmlns="http://www.w3.org/2000/svg">
<path d="M74.9601 111.995C74.9601 109.779 74.9601 107.848 74.9601 105.917C74.9601 97.3672 74.9739 88.8176 74.9555 80.268C74.9417 75.0702 71.8864 71.6834 67.1285 71.6384C61.7311 71.5883 56.3337 71.5833 50.9363 71.6384C46.2935 71.6884 43.229 75.1052 43.2198 80.193C43.1968 89.9932 43.2106 99.7885 43.2106 109.589C43.2106 110.274 43.2106 110.954 43.2106 111.85C42.6032 111.905 42.0602 111.99 41.5173 111.99C34.9695 112 28.4263 112.005 21.8786 111.99C18.1699 111.98 16.9045 110.604 16.8999 106.597C16.8907 93.1149 16.8999 79.6377 16.8999 66.1554C16.8999 65.415 16.8999 64.6746 16.8999 63.5991C15.8232 63.5991 14.8799 63.5991 13.932 63.5991C11.6359 63.5991 9.33983 63.6391 7.04374 63.5741C3.92861 63.489 1.60491 61.7131 0.66623 58.8215C-0.277053 55.91 0.477573 52.9884 2.84268 50.7422C7.20479 46.595 11.5991 42.4778 15.9796 38.3455C28.6426 26.4091 41.3102 14.4778 53.964 2.52635C57.5255 -0.835447 60.613 -0.855458 64.2205 2.54636C71.1593 9.08987 78.089 15.6434 85.0233 22.1869C85.3546 22.5021 85.7135 22.7822 86.3623 23.3425C86.3623 21.5966 86.3347 20.1958 86.3669 18.8001C86.4451 15.7684 88.005 14.0976 90.8164 14.0625C93.2275 14.0325 95.6387 14.0325 98.0498 14.0625C100.926 14.1026 102.463 15.8085 102.476 18.9902C102.495 24.9834 102.518 30.9716 102.453 36.9648C102.44 38.2105 102.808 39.0259 103.668 39.8213C107.648 43.4983 111.615 47.1953 115.512 50.9773C118.71 54.079 118.719 59.2017 115.42 61.8932C114.265 62.8387 112.632 63.3639 111.164 63.524C108.72 63.7892 106.231 63.5891 103.765 63.6091C100.962 63.6291 101.239 63.2689 101.239 66.2655C101.229 79.5576 101.239 92.8547 101.239 106.147C101.239 110.809 100.139 112 95.8411 112C89.5833 112 83.3254 112 77.0675 112H74.9601V111.995Z" fill="white"/>
</svg>
