<svg width="54" height="53" viewBox="0 0 54 53" fill="none" xmlns="http://www.w3.org/2000/svg">
<g clip-path="url(#clip0_53_544)">
<path d="M26.6064 0.00564777C30.0902 0.00564777 33.5739 -0.00541176 37.0577 0.00564777C46.027 0.0388263 52.9723 6.98974 52.9945 15.9701C53.0111 22.9707 53.0111 29.9742 52.9945 36.9749C52.9751 46.0271 46.0436 52.9669 37.0024 52.9863C29.999 53.0029 22.9955 53.0029 15.9948 52.9863C6.96473 52.9669 0.022119 46.0077 0.00829464 36.9721C-0.00276488 30.0046 -0.00276488 23.0371 0.00829464 16.0696C0.0193542 6.96209 6.95091 0.0277668 16.0529 0.00564777C19.5726 -0.00264688 23.0895 0.00564777 26.6092 0.00564777H26.6064ZM26.4793 47.6473C29.9298 47.6473 33.3776 47.6611 36.8282 47.6445C43.1957 47.6141 47.6306 43.2014 47.65 36.8449C47.6721 29.9465 47.6721 23.0509 47.65 16.1525C47.6306 9.79056 43.1791 5.36952 36.8227 5.36122C29.9575 5.35293 23.095 5.35569 16.2298 5.36122C9.81256 5.36675 5.3694 9.78503 5.35281 16.2078C5.33622 23.0703 5.33622 29.9327 5.35281 36.7979C5.3694 43.2124 9.8015 47.6224 16.2326 47.6473C19.6472 47.6611 23.0619 47.6473 26.4765 47.6473H26.4793Z" fill="white"/>
<path d="M26.4793 47.6473C23.0646 47.6473 19.65 47.6583 16.2354 47.6473C9.80427 47.6224 5.37217 43.2124 5.35558 36.7979C5.33899 29.9355 5.33899 23.073 5.35558 16.2078C5.37217 9.78777 9.81257 5.36949 16.2326 5.36119C23.0978 5.35566 29.9603 5.3529 36.8255 5.36119C43.1819 5.36949 47.6306 9.79053 47.6527 16.1525C47.6748 23.0509 47.6748 29.9465 47.6527 36.8449C47.6334 43.2013 43.1985 47.6141 36.831 47.6445C33.3804 47.6611 29.9326 47.6473 26.482 47.6473H26.4793ZM12.8097 26.4517C12.7848 34.033 18.8344 40.1351 26.424 40.1849C33.9832 40.2346 40.1654 34.1325 40.1875 26.5955C40.2097 18.9478 34.1325 12.8181 26.5152 12.8125C18.9284 12.807 12.8346 18.8704 12.8097 26.4517ZM40.276 16.1636C42.123 16.1691 43.6409 14.6899 43.6685 12.8513C43.6962 10.9794 42.1561 9.41451 40.2843 9.40898C38.4595 9.40621 36.9222 10.9103 36.8835 12.7351C36.8448 14.6042 38.3821 16.1553 40.276 16.1608V16.1636Z" fill="#329FD9"/>
<path d="M12.8097 26.4487C12.8346 18.8702 18.9284 12.804 26.5152 12.8096C34.1325 12.8151 40.2097 18.9421 40.1875 26.5925C40.1654 34.1296 33.9859 40.2317 26.424 40.1819C18.8344 40.1321 12.7876 34.0328 12.8097 26.4487ZM26.4848 34.8484C31.1187 34.8595 34.8264 31.1767 34.8541 26.5372C34.8817 21.906 31.21 18.1873 26.5677 18.143C21.9006 18.0988 18.1404 21.8341 18.1459 26.504C18.1514 31.1352 21.8509 34.8346 26.4848 34.8457V34.8484Z" fill="white"/>
<path d="M40.2788 16.1608C38.3849 16.1553 36.8504 14.6014 36.8863 12.7351C36.925 10.9075 38.4595 9.40342 40.2871 9.40895C42.1617 9.41172 43.7017 10.9794 43.6713 12.8512C43.6437 14.6899 42.1257 16.1691 40.2788 16.1636V16.1608Z" fill="white"/>
<path d="M26.4876 34.8485C21.8536 34.8375 18.157 31.1381 18.1487 26.5069C18.1432 21.837 21.9034 18.1017 26.5705 18.1459C31.2128 18.1901 34.8817 21.9089 34.8569 26.5401C34.8292 31.1768 31.1187 34.8624 26.4876 34.8513V34.8485Z" fill="#329FD9"/>
</g>
<defs>
<clipPath id="clip0_53_544">
<rect width="53.0111" height="53" fill="white"/>
</clipPath>
</defs>
</svg>
