<svg width="75" height="75" viewBox="0 0 75 75" fill="none" xmlns="http://www.w3.org/2000/svg">
<g clip-path="url(#clip0_53_556)">
<path d="M75 35.1617V39.7019C74.9577 39.937 74.9083 40.1697 74.8754 40.4072C74.6731 41.879 74.5414 43.365 74.2615 44.8227C71.3426 59.9196 59.126 71.8447 43.9552 74.424C42.591 74.6567 41.2127 74.8095 39.8415 75H35.1538C34.968 74.9577 34.7846 74.8895 34.5964 74.8754C31.2424 74.6379 27.9871 73.9278 24.8283 72.7899C6.2847 66.1079 -3.90676 46.3345 1.40183 27.3512C7.98759 3.80888 35.048 -7.22987 56.2894 5.09967C66.3021 10.9118 72.3187 19.7075 74.4355 31.1154C74.6848 32.4532 74.8142 33.8122 75 35.1617ZM39.4675 34.139C39.4675 33.5183 39.4746 33.0621 39.4675 32.606C39.4487 31.5292 39.0724 31.1365 38.0186 31.1295C36.3346 31.1177 34.6505 31.1177 32.9664 31.1295C31.9174 31.1365 31.5152 31.548 31.5152 32.6131C31.5105 40.0052 31.5105 47.3972 31.5152 54.7917C31.5152 55.8403 31.9362 56.247 32.9876 56.2517C34.5988 56.2565 36.2099 56.2541 37.8187 56.2517C39.0794 56.2517 39.4252 55.9061 39.4252 54.6506C39.4252 50.8934 39.4134 47.1363 39.4322 43.3791C39.4393 41.9942 39.745 40.6658 40.4789 39.4714C41.4362 37.9126 42.8874 37.4212 44.6303 37.6493C46.2156 37.8562 47.2222 38.8202 47.5868 40.3108C47.869 41.4582 47.9961 42.6643 48.0125 43.847C48.0643 47.5054 48.0243 51.1662 48.029 54.8269C48.029 55.845 48.4335 56.247 49.4426 56.2517C51.176 56.2588 52.9072 56.2565 54.6406 56.2517C55.7437 56.2494 56.1271 55.8662 56.1271 54.7517C56.1295 50.6536 56.1695 46.5532 56.1036 42.4551C56.0777 40.8774 55.9366 39.281 55.6308 37.7363C55.0287 34.6915 53.5422 32.1593 50.3763 31.2894C46.352 30.1843 42.5252 30.4147 39.4699 34.1413L39.4675 34.139ZM20.0419 43.6659C20.0419 47.3244 20.0395 50.9828 20.0419 54.6412C20.0419 55.8426 20.4605 56.2494 21.6789 56.2517C23.2148 56.2541 24.753 56.2541 26.2889 56.2517C27.5308 56.2494 27.9589 55.8238 27.9589 54.5801C27.9589 47.3126 27.9589 40.0451 27.9589 32.7777C27.9589 31.5762 27.5261 31.1342 26.3383 31.1271C24.7766 31.1177 23.2172 31.1177 21.6554 31.1271C20.4417 31.1342 20.0419 31.5433 20.0395 32.7659C20.0372 36.3985 20.0395 40.0334 20.0395 43.6659H20.0419ZM18.8776 23.8479C18.8682 26.6858 21.1426 28.9923 23.9557 29.0017C26.7711 29.0111 29.0855 26.7257 29.1161 23.9067C29.1467 21.1159 26.8229 18.7694 24.0145 18.7576C21.1826 18.7459 18.8847 21.0218 18.8776 23.8479Z" fill="#329FD9"/>
<path d="M39.4675 34.1391C42.5228 30.4125 46.352 30.1821 50.374 31.2871C53.5398 32.1571 55.0263 34.6893 55.6285 37.734C55.9342 39.2788 56.0754 40.8752 56.1012 42.4528C56.1671 46.5509 56.1271 50.6514 56.1247 54.7495C56.1247 55.8639 55.7414 56.2472 54.6383 56.2495C52.9048 56.2542 51.1737 56.2566 49.4402 56.2495C48.4288 56.2448 48.0266 55.8428 48.0266 54.8247C48.0219 51.1639 48.0619 47.5055 48.0102 43.8447C47.9937 42.6621 47.8667 41.4536 47.5844 40.3086C47.2199 38.8179 46.2132 37.8563 44.6279 37.647C42.885 37.419 41.4338 37.9104 40.4765 39.4692C39.7427 40.6636 39.4369 41.992 39.4299 43.3769C39.4134 47.134 39.4252 50.8912 39.4228 54.6484C39.4228 55.9039 39.0747 56.2495 37.8163 56.2495C36.2052 56.2495 34.594 56.2542 32.9852 56.2495C31.9339 56.2448 31.5152 55.8381 31.5128 54.7894C31.5081 47.3974 31.5081 40.0053 31.5128 32.6108C31.5128 31.5458 31.915 31.1343 32.9641 31.1273C34.6481 31.1155 36.3322 31.1155 38.0163 31.1273C39.0723 31.1343 39.4487 31.5293 39.4651 32.6038C39.4722 33.0599 39.4651 33.516 39.4651 34.1368L39.4675 34.1391Z" fill="white"/>
<path d="M20.0419 43.6658C20.0419 40.0333 20.0419 36.3984 20.0419 32.7658C20.0419 31.5432 20.4441 31.1341 21.6577 31.1271C23.2195 31.12 24.7789 31.1176 26.3407 31.1271C27.5285 31.1341 27.9612 31.5761 27.9612 32.7776C27.9636 40.045 27.9612 47.3125 27.9612 54.58C27.9612 55.8238 27.5308 56.2493 26.2913 56.2517C24.7554 56.254 23.2171 56.254 21.6813 56.2517C20.4629 56.2517 20.0442 55.8426 20.0442 54.6411C20.0395 50.9827 20.0442 47.3243 20.0442 43.6658H20.0419Z" fill="white"/>
<path d="M18.8799 23.8479C18.8894 21.0218 21.185 18.7459 24.0168 18.7576C26.8252 18.7694 29.149 21.1135 29.1184 23.9067C29.0879 26.7257 26.7734 29.0111 23.958 29.0017C21.145 28.9923 18.8705 26.6858 18.8799 23.8479Z" fill="white"/>
</g>
<defs>
<clipPath id="clip0_53_556">
<rect width="75" height="75" fill="white"/>
</clipPath>
</defs>
</svg>
