<svg width="53" height="53" viewBox="0 0 53 53" fill="none" xmlns="http://www.w3.org/2000/svg">
<g clip-path="url(#clip0_53_553)">
<path d="M9.88359 52.9999C9.88359 50.0518 9.91283 47.2866 9.85435 44.5287C9.84704 44.0897 9.59118 43.5191 9.2549 43.2412C-3.54551 32.8606 -2.98992 14.5795 10.4319 5.01825C20.4982 -2.15083 34.8996 -1.58755 44.3007 6.34965C56.9183 17.0082 55.639 35.7429 41.6105 44.7262C34.98 48.9691 27.7428 50.0664 20.0815 48.3693C19.2116 48.1791 18.5244 48.2595 17.7568 48.6984C15.5491 49.9713 13.2975 51.1784 11.0606 52.4073C10.7316 52.5829 10.3953 52.7439 9.88359 52.9926V52.9999ZM29.1317 33.0728C33.8396 28.0764 38.489 23.1385 43.1457 18.1933C43.1018 18.1421 43.0579 18.0909 43.0068 18.0396C38.891 20.3147 34.768 22.5898 30.623 24.8868C28.3057 22.4874 26.0395 20.1318 23.6928 17.6958C18.9996 22.6776 14.3502 27.6155 9.70814 32.5534C9.75932 32.6119 9.81049 32.6631 9.86166 32.7216C14.0212 30.4465 18.1881 28.1715 22.377 25.8817C24.6359 28.2812 26.8436 30.6441 29.1317 33.0728Z" fill="white"/>
<path d="M29.139 33.0657C26.8582 30.637 24.6432 28.2741 22.3843 25.8746C18.1881 28.1644 14.0286 30.4394 9.86897 32.7145C9.8178 32.656 9.76663 32.6048 9.71545 32.5463C14.3648 27.6084 19.0069 22.6778 23.7001 17.6887C26.0468 20.1174 28.313 22.473 30.6304 24.8797C34.7753 22.59 38.8984 20.3076 43.0141 18.0325C43.0579 18.0838 43.1018 18.135 43.153 18.1862C38.5036 23.1241 33.8469 28.0619 29.139 33.0657Z" fill="#329FD9"/>
</g>
<defs>
<clipPath id="clip0_53_553">
<rect width="53" height="53" fill="white"/>
</clipPath>
</defs>
</svg>
