<svg width="63" height="63" viewBox="0 0 63 63" fill="none" xmlns="http://www.w3.org/2000/svg">
<g clip-path="url(#clip0_52_450)">
<path d="M20.1283 62.9921C15.9611 62.9921 11.7965 62.9737 7.6293 63C5.63515 63.0132 4.1198 62.2789 3.29373 60.4052C2.54395 58.7025 2.96751 57.0471 4.49338 55.505C5.30104 54.6891 6.09028 53.8496 6.9374 53.0785C7.46356 52.5996 7.55038 52.2785 7.06105 51.6574C2.26771 45.5598 -0.0579225 38.5832 -4.47175e-05 30.8566C0.102557 17.7797 8.82369 5.86867 21.2253 1.7106C38.9675 -4.23965 57.4568 5.84762 62.0634 23.9905C66.3542 40.8833 55.4653 58.5182 38.4703 62.2158C36.0894 62.7342 33.6875 63.0026 31.2513 62.9974C27.5445 62.9895 23.8377 62.9974 20.1309 62.9974L20.1283 62.9921ZM7.11629 58.8051H7.95026C15.7243 58.8051 23.501 58.8077 31.275 58.8025C32.8509 58.8025 34.4267 58.6893 35.9763 58.4209C52.945 55.4786 62.9 38.0753 57.057 22.2878C51.5717 7.46347 34.4215 0.0763222 20.3019 6.57396C3.31477 14.3927 -0.999752 35.5225 11.0678 49.9626C13.1408 52.4443 13.1645 52.7812 10.8862 55.0628C9.69449 56.255 8.49484 57.4419 7.11893 58.8077L7.11629 58.8051Z" fill="white"/>
<path d="M7.11639 58.8051C8.49231 57.4392 9.69196 56.2523 10.8837 55.0602C13.1646 52.7785 13.1409 52.4416 11.0652 49.96C-0.999655 35.5225 3.31487 14.3927 20.302 6.57393C34.4189 0.0762897 51.5718 7.46344 57.0571 22.2877C62.9001 38.0779 52.9451 55.4786 35.9764 58.4208C34.4242 58.6893 32.851 58.8024 31.2751 58.8024C23.5011 58.8103 15.7244 58.8051 7.95036 58.8051H7.11639ZM31.4409 27.3037C35.5081 27.3037 39.5753 27.309 43.6426 27.3011C45.2 27.2985 46.1892 26.4484 46.1787 25.1668C46.1681 23.8878 45.1842 23.0799 43.611 23.0615C43.4137 23.0615 43.2164 23.0615 43.0217 23.0615C36.4604 23.0615 29.9018 23.0615 23.3406 23.0615C21.9305 23.0615 20.5204 23.0457 19.1103 23.0667C17.9527 23.0851 17.1977 23.6036 16.8951 24.522C16.4058 26.0116 17.4607 27.2906 19.2392 27.2985C23.3064 27.3143 27.3736 27.3037 31.4409 27.3037ZM31.4856 39.9069C33.4534 39.9069 35.4213 39.9069 37.3891 39.9069C39.5543 39.9069 41.7194 39.9306 43.8846 39.899C45.2368 39.878 46.1523 39.0095 46.1787 37.8226C46.205 36.6068 45.2579 35.7225 43.8609 35.6673C43.632 35.6567 43.4005 35.6673 43.1716 35.6673C38.4493 35.6673 33.7244 35.6673 29.0021 35.6673C25.7557 35.6673 22.5066 35.662 19.2602 35.6699C18.0079 35.6725 17.2371 36.1515 16.9083 37.0752C16.369 38.5884 17.4502 39.899 19.2839 39.9043C23.3511 39.9174 27.4184 39.9095 31.4856 39.9095V39.9069Z" fill="white"/>
<path d="M31.4409 27.3038C27.3736 27.3038 23.3064 27.3143 19.2392 27.2985C17.4634 27.2906 16.4058 26.0116 16.8951 24.5221C17.1977 23.6063 17.9527 23.0852 19.1103 23.0668C20.5204 23.0431 21.9305 23.0615 23.3406 23.0615C29.9018 23.0615 36.4604 23.0615 43.0217 23.0615C43.219 23.0615 43.4163 23.0615 43.611 23.0615C45.1842 23.0799 46.1681 23.8852 46.1787 25.1669C46.1892 26.4485 45.2 27.2985 43.6426 27.3012C39.5753 27.3117 35.5081 27.3038 31.4409 27.3038Z" fill="#329FD9"/>
<path d="M31.4855 39.9069C27.4183 39.9069 23.3511 39.9148 19.2839 39.9017C17.4502 39.8964 16.3715 38.5858 16.9082 37.0726C17.2371 36.1489 18.0079 35.6699 19.2602 35.6673C22.5066 35.6567 25.7556 35.6646 29.0021 35.6646C33.7244 35.6646 38.4493 35.6646 43.1716 35.6646C43.4005 35.6646 43.632 35.6567 43.8609 35.6646C45.2578 35.7225 46.2049 36.6042 46.1786 37.82C46.1523 39.0043 45.2342 39.8753 43.8846 39.8964C41.7194 39.928 39.5542 39.9043 37.3891 39.9043C35.4212 39.9043 33.4534 39.9043 31.4855 39.9043V39.9069Z" fill="#329FD9"/>
</g>
<defs>
<clipPath id="clip0_52_450">
<rect width="63" height="63" fill="white"/>
</clipPath>
</defs>
</svg>
