<svg width="112" height="125" viewBox="0 0 112 125" fill="none" xmlns="http://www.w3.org/2000/svg">
<g clip-path="url(#clip0_50_320)">
<path d="M0.377923 29.5815C-0.0422618 16.7644 10.4806 5.79819 18.0866 1.41304C23.0679 -1.4529 28.4146 0.112753 31.3863 5.42668C35.2167 12.2665 38.5721 19.4446 41.7692 26.6757C43.6813 31.0078 42.5913 35.1143 39.2054 38.2987C37.5186 39.8843 35.7648 41.3902 33.9805 42.8431C29.8944 46.1734 29.1758 48.1504 31.9344 52.8341C35.1497 58.2873 38.5904 63.714 42.6644 68.3977C48.6505 75.2773 55.1603 81.646 61.6823 87.9418C66.7062 92.7913 69.1177 92.4596 73.825 87.2718C82.1617 78.0702 85.7181 77.5594 95.7234 84.5385C99.8095 87.3845 103.859 90.3633 107.598 93.7135C112.044 97.7006 112.878 103.479 109.437 108.448C103.792 116.601 97.0692 123.388 87.1613 124.794C80.7977 125.697 74.9272 123.607 69.2395 120.927C53.6074 113.569 40.8253 101.96 29.2306 88.645C18.2571 76.0402 9.06174 62.1351 3.88555 45.5299C2.27789 40.3752 1.52277 34.9021 0.377923 29.5815Z" fill="white"/>
</g>
<defs>
<clipPath id="clip0_50_320">
<rect width="111.197" height="125" fill="white" transform="translate(0.365723)"/>
</clipPath>
</defs>
</svg>
