<svg width="29" height="28" viewBox="0 0 29 28" fill="none" xmlns="http://www.w3.org/2000/svg">
<g clip-path="url(#clip0_89_425)">
<path fill-rule="evenodd" clip-rule="evenodd" d="M24.3477 25.8935C23.3953 25.1291 22.5181 24.3182 21.6045 23.5527C20.7064 22.6908 19.8963 21.7149 18.9191 20.949C15.7131 23.4639 11.1962 24.0667 7.48081 22.4209C3.12853 20.5793 0.157127 15.8058 0.524557 10.9959C0.718068 6.3418 3.96101 2.04246 8.30675 0.60654C12.6692 -0.939642 17.8536 0.546156 20.7636 4.20438C23.7672 7.76809 24.2848 13.2314 21.9805 17.3037C21.8425 17.8288 20.9241 18.3852 21.6612 18.7879C23.1335 20.3364 24.6735 21.8225 26.0826 23.431C30.2689 28.2098 28.9493 29.5869 24.3477 25.8935ZM13.3446 20.4925C17.4763 19.8911 20.7997 15.9315 20.72 11.6804C20.7997 7.58361 17.7291 3.73041 13.7826 2.94752C10.0466 2.05786 5.94544 4.06891 4.20023 7.52603C2.29846 11.0651 3.18937 15.8471 6.23794 18.4282C8.15861 20.1615 10.8215 20.8902 13.3446 20.4925Z" fill="#222426"/>
</g>
<defs>
<clipPath id="clip0_89_425">
<rect width="28.1147" height="28" fill="white" transform="translate(0.494385)"/>
</clipPath>
</defs>
</svg>
