<svg width="51" height="66" viewBox="0 0 51 66" fill="none" xmlns="http://www.w3.org/2000/svg">
<g clip-path="url(#clip0_52_465)">
<path d="M0.00873164 32.9357C0.00873164 25.2557 0.00294998 17.5756 0.00873164 9.89549C0.00873164 7.28484 0.604243 4.88911 2.48328 2.90318C4.42303 0.859931 6.84265 0.0346088 9.57448 0.0202803C16.3477 -0.00837673 23.1209 0.000220377 29.897 0.0174146C32.7242 0.0260117 35.1439 0.986022 37.1588 3.03213C40.7087 6.63432 44.302 10.1964 47.9358 13.7155C49.9969 15.7129 50.974 18.1115 50.9769 20.9141C50.9914 32.7724 51.0232 44.6335 50.9654 56.4918C50.9394 62.2118 47.1264 65.9429 41.3418 65.9687C30.7845 66.0145 20.2272 66.0117 9.66699 65.9687C3.79572 65.9458 0.0405308 62.1544 0.0174041 56.2969C-0.014395 48.5108 0.00873164 40.7219 0.00873164 32.9357Z" fill="white"/>
<path d="M4.26397 32.8868C4.26397 25.095 4.26108 17.306 4.26397 9.51416C4.26397 6.02087 6.07074 4.22981 9.58599 4.22694C14.9947 4.22121 20.4006 4.22408 25.8093 4.22694C27.2287 4.22694 27.2374 4.26133 27.2663 5.67126C27.3299 8.74042 27.1073 11.8153 27.4195 14.8845C27.8647 19.2576 31.5707 22.9257 35.9908 23.3698C39.084 23.6793 42.1859 23.4558 45.2848 23.5217C46.6984 23.5504 46.7302 23.559 46.7302 24.9775C46.7302 35.5548 46.736 46.135 46.7274 56.7123C46.7245 59.9047 44.8396 61.7559 41.599 61.7588C30.8567 61.7674 20.1144 61.7674 9.36918 61.7588C6.14301 61.7588 4.26975 59.8904 4.26686 56.6865C4.25819 48.7542 4.26397 40.8191 4.26397 32.8868Z" fill="white"/>
<path d="M41.1567 19.3005C39.7518 19.3005 38.3497 19.3263 36.9448 19.2948C33.9586 19.226 31.5881 16.9277 31.5361 13.9903C31.4869 11.1017 31.5129 8.21022 31.5245 5.31873C31.5274 4.38451 31.7586 4.27275 32.6317 4.71693C33.2127 5.01496 33.7013 5.43336 34.1638 5.889C37.8005 9.49979 41.4458 13.102 45.0767 16.7185C45.7329 17.3719 46.7071 18.1542 46.3602 19.0111C46.0711 19.7218 44.8657 19.2374 44.0707 19.289C43.1023 19.3521 42.128 19.3034 41.1567 19.3034V19.2976V19.3005Z" fill="#329FD9"/>
<path d="M25.4711 38.9621C20.6405 38.9621 15.8129 38.9621 10.9823 38.9621C10.3665 38.9621 9.75368 38.9592 9.17263 38.7242C8.30538 38.3746 7.86886 37.6955 7.8891 36.7985C7.90645 35.9474 8.34585 35.3083 9.16974 34.9788C9.68141 34.7753 10.2191 34.7438 10.7626 34.7438C20.5654 34.7438 30.3682 34.7438 40.171 34.7466C42.0905 34.7466 43.1167 35.4975 43.1167 36.8501C43.1167 38.2027 42.0905 38.9535 40.1739 38.9564C35.271 38.965 30.3711 38.9592 25.4682 38.9592L25.4711 38.9621Z" fill="#329FD9"/>
<path d="M25.4595 50.5424C20.6665 50.5424 15.8735 50.5424 11.0805 50.5424C10.4677 50.5424 9.85191 50.551 9.26507 50.3389C8.38337 50.0237 7.90639 49.3732 7.89193 48.4762C7.87459 47.5306 8.35735 46.8485 9.28242 46.519C9.79988 46.3356 10.3405 46.3241 10.8839 46.3241C20.6145 46.3241 30.345 46.3241 40.0784 46.3241C40.6219 46.3241 41.1596 46.3356 41.6828 46.5104C42.6166 46.8227 43.1109 47.499 43.108 48.4419C43.1051 49.3875 42.5992 50.0552 41.6655 50.3619C41.1076 50.5453 40.5294 50.5424 39.9541 50.5424C35.1235 50.5424 30.2959 50.5424 25.4653 50.5424H25.4595Z" fill="#329FD9"/>
<path d="M17.689 23.1664C19.9583 23.1664 22.2305 23.1664 24.4998 23.1664C25.0404 23.1664 25.581 23.175 26.1013 23.3498C27.035 23.6621 27.5294 24.3356 27.5265 25.2812C27.5236 26.2269 27.0206 26.8946 26.0868 27.2041C25.6012 27.3646 25.0982 27.3847 24.5923 27.3847C20.0161 27.3847 15.4399 27.3904 10.8637 27.3818C8.92111 27.3789 7.90932 26.6682 7.87463 25.3214C7.83705 23.9401 8.8922 23.1778 10.8811 23.1692C13.1504 23.1606 15.4226 23.1692 17.6919 23.1692L17.689 23.1664Z" fill="#329FD9"/>
</g>
<defs>
<clipPath id="clip0_52_465">
<rect width="51" height="66" fill="white"/>
</clipPath>
</defs>
</svg>
