<svg width="26" height="31" viewBox="0 0 26 31" fill="none" xmlns="http://www.w3.org/2000/svg">
<g clip-path="url(#clip0_89_414)">
<path d="M14.0218 0.799988C14.5927 0.92852 15.1794 1.00876 15.7324 1.19415C19.0183 2.2933 21.2102 5.66552 20.9449 9.17094C20.6631 12.8953 18.0901 15.8484 14.6151 16.4373C10.3248 17.1641 6.34016 13.9757 5.89701 9.46072C5.47627 5.17631 8.47897 1.30633 12.5757 0.850622C12.6482 0.842832 12.7192 0.817125 12.791 0.799988C13.2012 0.799988 13.6115 0.799988 14.0218 0.799988ZM13.418 2.54958C10.1828 2.54413 7.54109 5.28459 7.53287 8.65214C7.5254 12.0251 10.15 14.782 13.3806 14.7944C16.6277 14.8069 19.2776 12.0579 19.2799 8.67629C19.2821 5.30485 16.6508 2.55504 13.418 2.54958Z" fill="#222426"/>
<path d="M13.3881 30.6545C9.54838 30.6545 5.70869 30.6545 1.86901 30.6545C1.11796 30.6545 0.812307 30.3351 0.822769 29.5624C0.896005 24.1001 4.74242 19.4029 9.92727 18.4611C10.4481 18.3668 10.981 18.3131 11.5101 18.303C12.7401 18.2796 13.9717 18.2562 15.2003 18.3014C19.5362 18.4588 22.7056 20.6025 24.7719 24.5387C25.6044 26.1247 25.9661 27.8541 25.9907 29.659C25.9997 30.2962 25.6597 30.653 25.0461 30.6537C21.1601 30.6545 17.2741 30.6537 13.3873 30.6537L13.3881 30.6545ZM24.2943 28.8932C24.2211 28.4461 24.1665 28.0332 24.0851 27.6266C23.2272 23.3399 19.4637 20.1032 15.2661 20.0479C14.0173 20.0315 12.7678 20.0245 11.5198 20.0557C10.9556 20.0697 10.3794 20.1273 9.83161 20.2644C6.26694 21.154 3.96148 23.4661 2.86368 27.093C2.6903 27.6671 2.6223 28.2755 2.49974 28.8948H24.2936L24.2943 28.8932Z" fill="#222426"/>
</g>
<defs>
<clipPath id="clip0_89_414">
<rect width="25.168" height="29.8545" fill="white" transform="translate(0.822754 0.799988)"/>
</clipPath>
</defs>
</svg>
