<svg width="62" height="69" viewBox="0 0 62 69" fill="none" xmlns="http://www.w3.org/2000/svg">
<g clip-path="url(#clip0_51_399)">
<path d="M30.8275 68.9736C23.5236 68.9736 16.2197 68.9868 8.92249 68.9604C7.8279 68.9604 6.67361 68.9604 5.63873 68.6628C1.4395 67.4527 -0.623627 65.0657 0.165802 60.4106C1.84417 50.4656 11.5827 41.1289 22.4025 40.3883C28.897 39.9453 35.3982 39.6676 41.833 40.8181C52.0027 42.6299 60.0098 50.6904 61.8407 60.7412C62.6766 65.3236 60.1823 67.6247 56.202 68.6826C55.1538 68.9604 54.0128 68.9802 52.9182 68.9802C45.5546 69.0066 38.1911 68.9934 30.8275 68.9934V68.967V68.9736Z" fill="white"/>
<path d="M30.8208 34.9728C21.0425 35.0389 13.2942 27.3289 13.2411 17.4765C13.188 7.92824 20.8568 0.27774 30.3034 2.10577e-05C39.3652 -0.264473 48.1883 7.43893 48.2878 17.0599C48.3873 27.3091 40.9441 34.9001 30.8275 34.9728H30.8208Z" fill="white"/>
</g>
<defs>
<clipPath id="clip0_51_399">
<rect width="62" height="69" fill="white"/>
</clipPath>
</defs>
</svg>
