<?xml version="1.0" encoding="utf-8"?>
<!-- Generator: Adobe Illustrator 28.0.0, SVG Export Plug-In . SVG Version: 6.00 Build 0)  -->
<svg version="1.1" id="Layer_1" xmlns="http://www.w3.org/2000/svg" xmlns:xlink="http://www.w3.org/1999/xlink" x="0px" y="0px"
	 viewBox="0 0 786 895" style="enable-background:new 0 0 786 895;" xml:space="preserve">
<style type="text/css">
	.st0{clip-path:url(#SVGID_00000071552173249724248000000017052556088097683103_);}
	.st1{opacity:0.3;fill:#00E5D9;enable-background:new    ;}
	.st2{fill:#00E5D9;}
	.st3{fill:#FFFFFF;}
	.st4{fill:#0E1530;}
	.st5{fill:#00C9BF;}
	.st6{opacity:0.5;fill:#00E5D9;enable-background:new    ;}
	.st7{fill:none;stroke:#0E1530;stroke-width:0.5;stroke-linecap:round;stroke-linejoin:round;}
	.st8{fill:#F47F22;}
	.st9{fill:#0F0E13;}
	.st10{clip-path:url(#SVGID_00000147902776848179875290000014754684653878643876_);}
	.st11{fill:#014B68;}
	.st12{fill:#F39C94;}
	.st13{fill:#181E4C;}
	.st14{fill:#EAACA8;}
	.st15{fill:#DD3D60;}
	.st16{fill:none;stroke:#000000;stroke-width:0.4;stroke-linecap:round;stroke-linejoin:round;}
	.st17{fill:#E9A134;}
	.st18{fill:none;stroke:#FFFFFF;stroke-width:0.5;stroke-linecap:round;stroke-linejoin:round;}
	.st19{fill:none;stroke:#FFFFFF;stroke-width:0.75;stroke-linejoin:round;}
	.st20{fill:none;stroke:#0F0E13;stroke-linecap:round;stroke-linejoin:round;}
	.st21{fill:#5EBDC4;}
	.st22{fill:none;stroke:#0F0E13;stroke-width:0.5;stroke-linecap:round;stroke-linejoin:round;}
	.st23{fill:#FFFFFF;filter:url(#Adobe_OpacityMaskFilter);}
	.st24{mask:url(#mask0_15_398_00000015329277359113640360000001064868532702868642_);}
	.st25{fill:none;stroke:#0F0E13;stroke-linejoin:round;}
	.st26{clip-path:url(#SVGID_00000075847247835320273230000008035972621734994589_);}
	.st27{fill:#329FD9;}
	.st28{fill:#626262;}
</style>
<g>
	<defs>
		<rect id="SVGID_1_" x="5" width="954" height="684"/>
	</defs>
	<clipPath id="SVGID_00000070119635226930495080000008151731964220744876_">
		<use xlink:href="#SVGID_1_"  style="overflow:visible;"/>
	</clipPath>
	<g style="clip-path:url(#SVGID_00000070119635226930495080000008151731964220744876_);">
		<path class="st1" d="M647.1,91.4c0-7-1-13.7-3-20.1l22.8-8.9L647.5,29l-19.1,15.3c-9.2-9.8-21.2-16.9-34.8-20.1L597.3,0h-38.6
			l3.7,24.2c-13.6,3.1-25.6,10.3-34.8,20.1L508.5,29l-19.3,33.4l22.7,8.9c-1.9,6.4-3,13.1-3,20.1c0,7,1,13.7,3,20.1l-22.7,8.9
			l19.3,33.4l19.1-15.3c9.2,9.8,21.2,16.9,34.8,20.1l-3.7,24.2h38.6l-3.7-24.2c13.6-3.1,25.6-10.3,34.8-20.1l19.1,15.3l19.3-33.4
			l-22.8-8.9C646,105.2,647.1,98.4,647.1,91.4z M578,136.7c-25,0-45.2-20.3-45.2-45.2c0-25,20.3-45.2,45.2-45.2
			c25,0,45.2,20.3,45.2,45.2C623.3,116.4,603,136.7,578,136.7z"/>
		<path class="st2" d="M286.9,424.2c0-2.6-0.4-5.2-1.1-7.6l8.6-3.4l-7.3-12.6l-7.2,5.8c-3.5-3.7-8-6.4-13.1-7.6l1.4-9.1h-14.6
			l1.4,9.1c-5.1,1.2-9.7,3.9-13.1,7.6l-7.2-5.8l-7.3,12.6l8.6,3.4c-0.7,2.4-1.1,4.9-1.1,7.6c0,2.7,0.4,5.2,1.1,7.6l-8.6,3.4
			l7.3,12.6l7.2-5.8c3.5,3.7,8,6.4,13.1,7.6l-1.4,9.1h14.6l-1.4-9.1c5.1-1.2,9.7-3.9,13.1-7.6l7.2,5.8l7.3-12.6l-8.6-3.4
			C286.5,429.4,286.9,426.8,286.9,424.2z M260.9,441.3c-9.4,0-17.1-7.6-17.1-17.1c0-9.4,7.6-17.1,17.1-17.1
			c9.4,0,17.1,7.7,17.1,17.1C277.9,433.6,270.3,441.3,260.9,441.3z"/>
		<path class="st3" d="M574.5,118.3H331.1c-12.6,0-22.8,10.2-22.8,22.8v472.6c0,12.6,10.2,22.8,22.8,22.8h243.4
			c12.6,0,22.8-10.2,22.8-22.8V141.1C597.3,128.5,587.1,118.3,574.5,118.3z"/>
		<path class="st4" d="M597.5,188.1h10.4c1.8,0,3.3,1.5,3.3,3.3v46.3c0,1.8-1.5,3.3-3.3,3.3h-10.4V188.1L597.5,188.1z"/>
		<path class="st4" d="M308,240.9h-10.4c-1.8,0-3.3-1.5-3.3-3.3v-46.3c0-1.8,1.5-3.3,3.3-3.3H308V240.9L308,240.9z"/>
		<path class="st4" d="M597.5,249.4h10.4c1.8,0,3.3,1.5,3.3,3.3V299c0,1.8-1.5,3.3-3.3,3.3h-10.4V249.4L597.5,249.4z"/>
		<path class="st5" d="M570,92.7H335.6c-19,0-34.3,15.4-34.3,34.3v528.6c0,19,15.4,34.4,34.4,34.4H570c19,0,34.4-15.4,34.4-34.4V127
			C604.4,108.1,589,92.7,570,92.7z M315.3,618.6V147.5c0-8.6,7-15.6,15.6-15.6h243.8c8.6,0,15.6,7,15.6,15.6v471.1
			c0,8.6-7,15.6-15.6,15.6H330.9C322.3,634.2,315.3,627.3,315.3,618.6L315.3,618.6z"/>
		<path class="st4" d="M499.8,109.8h-85c-1.8,0-3.3-1.5-3.3-3.3c0-1.8,1.5-3.3,3.3-3.3h85c1.8,0,3.3,1.5,3.3,3.3
			C503.1,108.4,501.6,109.8,499.8,109.8z"/>
		<path class="st4" d="M481.2,641.9h-56.8c-6,0-10.8,4.8-10.8,10.8c0,6,4.8,10.8,10.8,10.8h56.8c6,0,10.8-4.8,10.8-10.8
			C492,646.8,487.1,641.9,481.2,641.9z"/>
		<path class="st6" d="M233.6,178.6h-212c0,0-31-39.7-8.3-59c22-18.8,55.5,3.6,55.5,3.6S67.2,63.8,112,58.5
			c57.5-6.9,66.5,68.3,66.5,68.3s26.5-40.6,57.9-23.8C278.7,125.5,233.6,178.6,233.6,178.6L233.6,178.6z"/>
		<path class="st7" d="M218.6,424.2H103.4c-7.5,0-13.6-6.1-13.6-13.6v-83.7"/>
		<path class="st4" d="M86.4,326.8c0,1.9,1.5,3.4,3.4,3.4s3.4-1.5,3.4-3.4c0-1.9-1.5-3.4-3.4-3.4S86.4,325,86.4,326.8z"/>
		<path d="M45,242.6c0,0,53.6-8.4,101.9-20.3l-8.3,44.3H45V242.6z"/>
		<path class="st8" d="M155,243.5l-9,75.8h-116l-12.3-87.8h44.5l4.1,12H155z"/>
		<path class="st8" d="M264,545.6h88.5c5.1,0,9.2,4.1,9.2,9.2v70.6c0,5.1-4.1,9.2-9.2,9.2H264c-5.1,0-9.2-4.1-9.2-9.2v-70.6
			C254.8,549.7,258.9,545.6,264,545.6z"/>
		<path class="st9" d="M349.7,545.6h-11.2v-17.2c0-16.7-13.6-30.3-30.3-30.3c-16.7,0-30.3,13.6-30.3,30.3v17.2h-11.2v-17.2
			c0-22.9,18.6-41.5,41.5-41.5s41.5,18.6,41.5,41.5V545.6z"/>
		<path class="st9" d="M325.3,575.4c0-9.4-7.6-17-17-17c-9.4,0-17,7.6-17,17c0,7.2,4.5,13.3,10.7,15.8v28.5h12.6v-28.5
			C320.8,588.7,325.3,582.6,325.3,575.4L325.3,575.4z"/>
	</g>
</g>
<g>
	<defs>
		<rect id="SVGID_00000103232484103731837540000007178872636504864914_" x="14" y="244" width="445" height="633"/>
	</defs>
	<clipPath id="SVGID_00000002362212141317874620000010632132915153781136_">
		<use xlink:href="#SVGID_00000103232484103731837540000007178872636504864914_"  style="overflow:visible;"/>
	</clipPath>
	<g style="clip-path:url(#SVGID_00000002362212141317874620000010632132915153781136_);">
		<path class="st11" d="M206.8,877h-158V645.1h158V877z"/>
		<path class="st12" d="M381.1,778.8l8.7,48.2c0,0-20.5,7.8-50.8,6.9l-17.2-41.5L381.1,778.8L381.1,778.8z"/>
		<path class="st12" d="M174.8,793.6l9.2,37c0,0,19.7,10.6,46,2l-4.5-50.2"/>
		<path class="st11" d="M169.8,877h97.1c0,0,3.2-26.3-13-38.2c-2.7-2-13-8.1-16.7-9.1c-1.1-8.3-1.6-14.7-2-15.5
			c-0.8-1.6-27.4,1.3-36.4,3.2c-2.5,0.5-6.2,11.6-6.2,11.6l-8.6,1.5C165.6,847.6,169.7,877,169.8,877L169.8,877z"/>
		<path class="st13" d="M149.9,645.2h75.4c17.5,3.7,32.8,18.4,56.2,20c8.6,61,23.3,116.8,30.7,139c27.9,0,60.5-6.3,79.6-13.2
			c-13.6-68.2-30.5-158-36-179.8c-7.9-31.1-204.6-58.4-204.6-58.4s-1.2,7.5-2.3,17.7C142,600.2,142.9,633.6,149.9,645.2L149.9,645.2
			z"/>
		<path class="st13" d="M66.1,645.2h34.7c0,0,13.7,15.3,33.1,18.8c-8,25.5,11,136.8,11,136.8c52.3,3.3,84.6-5.7,84.6-5.7
			s-8.1-102.9-10.4-124.6c-0.8-8.4-5.3-38.2-6.9-45.6c-4.6-20.6-20.3-29.1-22-30c-0.1,0-9-14.7-18.2-16.7L122.7,567l-54-17.7
			c0,0-5,11-6,21.2C54.1,592.5,53.8,619.9,66.1,645.2L66.1,645.2z"/>
		<path class="st14" d="M205.5,411.4l19.6,74.3l35.6,49.3c0,0,21.2,6.7,23.7,9.7c6.9,8.2,20.7,26.3,20.9,27.4
			c0.2,1.1-1.7,3.4-4.4,3.1c-2.8-0.3-21.8-20.1-21.8-20.1s5,15.8,5,17.1c0,1.3,0.9,2.7-1.8,3c-2.7,0.3-5.5-2.6-5.5-2.6l-7.7-16.6
			c0,0-2.6,0.7-7,1.1c2.3,2.4,4.7,5.1,5.7,7.5c0.9,2,2,6.1-2.5,5.7c-2.8-0.2-11.5-6.1-14.7-9c-3.2-3-5-9.2-5-9.2s-45.4-26-59.5-50.2
			c-16.3-28-26.6-75.8-26.6-75.8L205.5,411.4L205.5,411.4z"/>
		<path class="st15" d="M150.2,422.3l18.2,54.8c25.3-5.1,43.7-12.6,53.9-17.4c-7.8-33.1-14.9-58.4-22.6-66.8
			C192.5,386.3,150.2,422.3,150.2,422.3z"/>
		<path class="st15" d="M61.9,394c0.5,13.6-5.5,72.7-3.1,123.6c0.9,18,4.8,41.4,4.8,44.3c0,2,2.6,4.1,3.6,4.7
			c3.7,2.2,11.1,3.7,19.9,4.8h0c17.5,2.1,41.1,2.5,55.4,2.5c19.1,0,47.9-3,51.5-7.8c3.3-4.4,0.3-10.8-1.3-19.7
			c-15.8-87.8,9-139.7,6.9-153.4c-10.5-12.3-51.8-21.8-52.4-22c-5.1-0.3-6.1-2.8-12.1-2.6c-5.2,0.2-16.6,0.8-25.3,2
			C109.9,370.3,78.4,378,61.9,394L61.9,394z"/>
		<path d="M85.4,438.8l-10.4,66l-22-11.4l19.6-52.7"/>
		<path d="M106.9,307.5c0,0-7.3-2.6-9.7,6.4c-2.2,8.2,8.7,15.3,8.7,15.3s-4.3,2.8-3,8.2c2.4,9.9,14.4,4.8,14.4,4.8l2-23.7
			L106.9,307.5z"/>
		<path d="M189,295.8c0,0-2.4,29.2-12.1,31.1c-9.7,2-7.3-10.4-7.3-10.4l1.4-13.9L189,295.8z"/>
		<path class="st12" d="M112.1,332c-4-6.2-5.9-16.4-1.5-19.5c-1-11.4,1.2-21.6,3.9-28.2c7.4-18,65.1-33.8,65.8,10
			c0,0,3.1,62.6-19.5,66.8c0,0-6.1,1.2-14.3-1c0.2,2.4,0.4,7.6,0.8,10.9c6,5.5,12.7,22.3-6.4,23.1c-19.4,0.8-33.9-15.9-31-23.8
			C110.8,357.9,111.6,341.5,112.1,332L112.1,332z"/>
		<path d="M114.3,278.4c-6.2-13.5,7.2-22.8,16.3-19.9c1.8-9.3,10.4-14.5,15.7-14.5c8.6,0,10.6,7,10.8,7.5c0,0,0,0,0.1,0
			c0.7-0.3,17.8-7.6,27.5,2.3c4.2,4.4,4.8,8.1,4.1,11c22-2,20,17.1,14,21c9.7,6.4-6.2,21.1-29.3,19c-17.5-1.6-38.1-11.9-40.1-11.7
			c3.6,16-2.9,29.7-8.7,30.5c-0.3-1.2-3.6-13.2-11.6-12.3c-4.4,0.5-5.6,4.9-4.9,9.9C98.5,307.5,91.6,281.8,114.3,278.4L114.3,278.4z
			"/>
		<path d="M121.4,341.9c6.9,10.1,18.4,16.4,25.2,18.2l0.5,7.2C147,367.3,124.4,363.2,121.4,341.9z"/>
		<path class="st12" d="M38,421.6l43.9,21.5c0,0-12.5,22.3-20.7,44.1c0,0,38.5,44.8,44.6,49.6c7.4,0.5,18.8,1.5,25.6,3.3
			c4.2,1.1,26.9,24.3,26.7,25.6c-0.2,1.4-2,2.9-4.9,2.3c-1.1-0.2-3.2-1.5-5.4-3.3c0,0,2.4,2.6,2.4,3.6c0,1-1.4,1.9-3.7,1.6
			c-2.1-0.3-4.1-2-6.5-4.4c0.4,0.6,0.7,1.1,0.8,1.3c0.4,0.8-1,2.9-4.8,2.1c-2.8-0.6-8.7-7.9-10.1-9c-0.5-0.4-2.1-0.6-4-0.5
			c0,0,5.5,8.1,5.2,9.5c-0.2,1.1-3.3,2.8-6.2,1.6c-2.5-1.1-5.7-5.2-9-10.1c-13.5,1.9-19.9-6.7-19.9-6.7v0
			C18.5,528,14.6,503.7,14.3,502C10.6,479.4,38,421.6,38,421.6L38,421.6z"/>
		<path class="st16" d="M61.2,487.3c0,0-14.5-7-24.9,0"/>
		<path class="st16" d="M139,564.5c0,0-10.1-11.6-11.9-13.3c-1.8-1.7-9.4-2.5-9.4-2.5"/>
		<path class="st16" d="M120.9,558.7c0,0-1.8-3.1-3.6-5.4"/>
		<path class="st16" d="M147,563c0,0-13.4-15.4-15.3-16.8c-1.9-1.5-9.1-3.2-9.1-3.2"/>
		<path class="st15" d="M20,454.9c14,7.9,45.3,17.5,54.4,18.8c10-24.9,33.7-102.9,33.7-102.9c-10.5,1.9-45.7,9.5-57.1,21.4
			C43.2,400.2,31.4,422.1,20,454.9z"/>
		<path class="st17" d="M18.8,455c14,7.9,46.5,18.2,55.6,19.4c0.9-2.3,2-5.9,3.1-9c-10.6-2.9-35.9-11.8-55.8-19.2
			C20.7,449.3,19.8,451.8,18.8,455z"/>
		<path class="st3" d="M103.6,577.1h66v-6.4h-66c-1.8,0-3.2,1.4-3.2,3.2C100.4,575.7,101.8,577.2,103.6,577.1L103.6,577.1z"/>
		<path class="st3" d="M139,571l33.7-121.4c1-3.6,4.3-6.1,8-6.1h159.9c1.1,0,2.1,0.5,2.9,1.2l3.9,3.1l-2.9,2l-33.6,120.9
			c-0.5,1.9-2.3,3.2-4.2,3.2H141.3C139.8,573.9,138.6,572.4,139,571L139,571z"/>
		<path class="st8" d="M145.3,577.2h165.3c2,0,3.7-1.3,4.2-3.2l33.8-121.8c0.8-2.7-1.3-5.4-4.1-5.4H184.8c-3.7,0-7,2.5-8,6.1
			l-33.7,121.4C142.7,575.7,143.8,577.2,145.3,577.2z"/>
		<path class="st11" d="M459,877H319.6c0,0-2.3-31.4,14.9-53.8l25.5,5.6c0,0,8.5-11.8,12.3-12.8c3.9-1,22.1-1.9,22.1-1.9l3.4,13.2
			l2.8,7.4l10.9,3.4c13.8-5.1,25.7-5.2,30.2-3.4C458.5,841.3,459,877,459,877L459,877z"/>
		<path class="st18" d="M215.1,643.4c-0.8-5.5-1.6-10.7-2.2-14.4c-2-12.1-6.2-17.9-6.2-17.9s-17.9-17.9-35.7-30.4"/>
		<path class="st19" d="M116.2,573.8v197.1c0,0,0,21.5-21.8,21.5c-20.2,0-21.9,11.8-21.9,28.1V877"/>
	</g>
</g>
<path class="st20" d="M667.8,695.3v125"/>
<path class="st21" d="M674.5,722.3c0,0,1.9-40.1,42.3-44.3C732.1,724.9,674.5,722.3,674.5,722.3z"/>
<path class="st22" d="M708.8,684.6c0,0-37.3,28.9-41,55.6"/>
<path class="st21" d="M672.5,772.6c0,0,1.4-28.1,29.7-31.1C712.9,774.4,672.5,772.6,672.5,772.6z"/>
<path class="st22" d="M696.6,746.1c0,0-26.2,20.3-28.8,39"/>
<path class="st21" d="M616.6,723.7c4.4-0.3,12.7-0.2,13.9,4.6c1,3.9-4.5,5.7-9.2,6.6c11.8,15.2,39.8,14,39.8,14s-1.9-40.1-42.3-44.4
	C616.3,712.2,615.8,718.5,616.6,723.7z"/>
<path class="st22" d="M626.9,711.1c0,0,37.3,28.9,41,55.6"/>
<path class="st22" d="M665.5,757.8c0,0-4.3-10.2-21.9-6.9"/>
<path class="st11" d="M639.6,877.4h56.5l10.7-84h-77.9L639.6,877.4z"/>
<defs>
	<filter id="Adobe_OpacityMaskFilter" filterUnits="userSpaceOnUse" x="623.7" y="786.5" width="93.6" height="96.6">
		<feColorMatrix  type="matrix" values="1 0 0 0 0  0 1 0 0 0  0 0 1 0 0  0 0 0 1 0"/>
	</filter>
</defs>
<mask maskUnits="userSpaceOnUse" x="623.7" y="786.5" width="93.6" height="96.6" id="mask0_15_398_00000015329277359113640360000001064868532702868642_">
	<path class="st23" d="M639.6,877.4h56.5l10.7-84h-77.9L639.6,877.4z"/>
</mask>
<g class="st24">
	<path class="st3" d="M716.8,816.8c-8.8,2.7-18.6,3.3-27.3,0c-7.7-2.9-14-8.9-16.3-17c-1.2-4.3-1.1-8.8,0.5-13
		c0.3-0.9,1.6-0.2,1.3,0.7c-2.8,7.1-0.4,15.4,4.5,20.9c5.4,6.2,13.7,8.9,21.8,9.1c5.1,0.1,10.1-0.7,15-2.1
		C717.3,815.1,717.7,816.5,716.8,816.8L716.8,816.8z"/>
	<path class="st3" d="M651,791.8c5.7,2.7,10.2,7.4,13.3,12.8c3.2,5.4,5.2,11.6,5.9,17.8c0.6,5.4,0.2,11.2-2.2,16.1
		c-2.2,4.3-6.1,7.3-11,7.6c-3,0.2-5.9-0.5-8.7-1.5c-4-1.5-8.1-3.5-10.6-7.1c-2-3-2.8-7.1-0.8-10.4c1.3-2,3.5-3.5,5.9-3.7
		c3.6-0.3,6.3,2.7,7.7,5.7c2,4,2.6,8.7,2.1,13.1c-0.5,4.9-2.4,9.7-6,13.2c-4.4,4.3-10.5,5.9-16.5,5.8c-2,0-4-0.2-6-0.5
		c-0.9-0.1-0.6-1.6,0.3-1.4c6.1,1,12.9,0.8,18.3-2.6c3.9-2.5,6.6-6.6,7.8-11.1c1.1-4.1,1.1-8.6-0.1-12.8c-0.9-2.9-2.6-6.5-5.4-7.6
		c-1.4-0.5-2.7-0.4-4,0.2c-2.9,1.3-4.2,4.4-3.6,7.4c0.8,4.4,4.4,7.1,8.2,9c2.8,1.4,5.8,2.5,8.9,2.8c4.5,0.4,8.7-1.2,11.2-5
		c2.7-4.1,3.5-9.2,3.3-14c-0.2-5.8-1.6-11.6-4.1-16.9c-2.5-5.2-6.1-10.2-10.9-13.6c-1.2-0.8-2.4-1.5-3.7-2.1
		C649.5,792.7,650.2,791.4,651,791.8L651,791.8z"/>
	<path class="st3" d="M704.8,851.5c-8.7-4.4-19-5-28.1-1.9c-9.1,3.1-15.9,9.5-20.1,17.7c-2.3,4.5-3.6,9.4-3.9,14.4
		c0,0.9-1.5,1-1.5,0c0.5-9.4,4.6-18.4,11.3-25c7.1-7,16.8-10.7,26.7-10.5c5.7,0.1,11.3,1.4,16.3,4
		C706.4,850.7,705.7,851.9,704.8,851.5L704.8,851.5z"/>
	<path class="st3" d="M701.8,855.4c-5.8-1.7-12.2-0.7-17.4,2.4c-5.2,3.1-8.9,8.4-10.4,14.2c-0.9,3.4-1.1,6.8-0.6,10.3
		c0.1,0.9-1.4,1-1.5,0c-0.9-6.4,0.6-13.2,4.2-18.6c3.6-5.4,9.1-9.1,15.4-10.3c3.5-0.7,7.2-0.6,10.7,0.4
		C703.1,854.2,702.7,855.6,701.8,855.4L701.8,855.4z"/>
</g>
<path d="M652.3,877.4l-10.7-84h-6.7l10.7,84H652.3z"/>
<path d="M0,877.4h786v5.9H0V877.4z"/>
<path class="st25" d="M258.4,894.3H79.3"/>
<path class="st25" d="M350,894.3h-80.1"/>
<path class="st25" d="M657,894.3h-97.8"/>
<g>
	<defs>
		
			<rect id="SVGID_00000012471493264648522280000001336915455661817791_" x="342.5" y="180.9" transform="matrix(1 -8.140911e-03 8.140911e-03 1 -1.9684 3.6957)" width="220.9" height="125.5"/>
	</defs>
	<clipPath id="SVGID_00000053508441967850771400000005524932045832117397_">
		<use xlink:href="#SVGID_00000012471493264648522280000001336915455661817791_"  style="overflow:visible;"/>
	</clipPath>
	<g style="clip-path:url(#SVGID_00000053508441967850771400000005524932045832117397_);">
		<path class="st27" d="M352,293c-3.9-0.7-6.5-3.1-8.2-6.3c-1.2-2.2-1.1-4.8-0.8-7.3c0.7-4.5,1.2-8.9,1.9-13.4
			c0.6-3.9,1.2-7.8,1.8-11.7c0.5-3.6,1-7.2,1.5-10.7c0.6-4.4,1.2-8.8,1.9-13.3c0.8-5.7,1.7-11.4,2.5-17.1c0.8-5.7,5.6-9.7,11.1-9.7
			c6.6,0,13.2,0,19.8,0c8.8,0,17.6,0,26.4,0c4.1,0,8.1-0.2,12.2,0.1c4,0.3,7.4,2.6,9,6.5c0.9,2.4,1.2,5.1,1.6,7.7
			c0.9,5.9,1.8,11.7,2.6,17.6c0.6,3.9,1,7.8,1.6,11.7c0.7,5.1,1.5,10.1,2.3,15.2c0.7,4.6,1.3,9.2,1.9,13.8c0.3,2.4,0.7,4.9,0.5,7.3
			c-0.3,3.8-2.3,6.6-5.7,8.5c-2.9,1.6-6,1.2-9.1,1.3c-5.5,0.1-10.9,0.1-16.4,0.1c-5.9,0-11.8,0-17.7,0c-4.5,0-9,0.1-13.5,0.1
			c-4.8,0-9.7,0-14.5-0.1c-3.8,0-7.6,0-11.4-0.1C352.8,293.1,352.4,293,352,293L352,293z M389.3,231.8c3.8,0.6,7.1,0.4,10.3-0.8
			c3.1-1.1,5.7-2.8,7.9-5.3c3.2-3.7,4.1-8.4,5.7-12.9c0.5-1.4-0.1-2.2-1.3-2.6c-1.4-0.5-1.9,0.5-2.4,1.5c-0.4,0.8-0.5,1.7-0.9,2.6
			c-1,2.8-1.6,5.9-3.6,8.3c-3.5,4.3-8.1,6.2-13.6,5.6c-5.4-0.6-9.7-3.1-11.8-8.3c-1.1-2.7-2-5.5-3.1-8.2c-0.6-1.5-1.4-1.9-2.6-1.5
			c-1,0.4-1.3,1.7-0.9,3c0.4,1,0.8,2.1,1.1,3.1c1,2.8,1.8,5.6,3.6,8.1C380.8,228.5,384.8,230.8,389.3,231.8z"/>
		<path class="st27" d="M372.6,199.6c1.7-6,3.7-11.7,9.3-15.3c6.7-4.3,16.2-3.8,22.4,1.1c3.4,2.7,5.4,6.4,6.5,10.6
			c0.3,1.2,0.8,2.4,1.2,3.6c-1.2,0-2.2,0.2-3.3,0c-0.4,0-0.9-0.6-1.1-1c-1.1-3.3-2.1-6.5-4.7-9.1c-3.5-3.5-7.8-4.8-12.5-4.2
			c-7,0.9-11.2,5.1-13,11.8c-0.7,2.5-0.8,2.6-3.3,2.5C373.7,199.7,373.3,199.6,372.6,199.6z"/>
		<path class="st3" d="M417.7,300.7c-2.3,0.5-4.3-0.2-6-1.5c-1.1-0.9-1.7-2.3-2.1-3.8c-0.7-2.6-1.4-5.2-2.1-7.8
			c-0.6-2.3-1.2-4.5-1.8-6.8c-0.6-2.1-1.1-4.1-1.7-6.2c-0.7-2.6-1.4-5.1-2.1-7.7c-0.9-3.3-1.8-6.6-2.7-9.9c-0.9-3.3,0.8-6.6,3.8-7.9
			c3.6-1.6,7.2-3.1,10.8-4.7c4.8-2.1,9.6-4.2,14.4-6.2c2.2-1,4.4-2,6.7-2.8c2.2-0.8,4.7-0.4,6.4,1.5c1.1,1.1,1.8,2.5,2.7,3.8
			c1.9,3,3.7,6,5.6,9c1.2,2,2.4,4,3.6,6c1.6,2.6,3.2,5.2,4.8,7.8c1.4,2.4,2.9,4.7,4.3,7.1c0.7,1.2,1.5,2.5,2,3.8
			c0.7,2.1,0.3,4.1-1.1,6c-1.2,1.6-3,2.1-4.6,2.8c-3,1.3-5.9,2.6-8.9,3.9c-3.2,1.4-6.5,2.8-9.7,4.1c-2.5,1.1-4.9,2.2-7.4,3.2
			c-2.7,1.1-5.3,2.3-8,3.4c-2.1,0.9-4.2,1.8-6.2,2.7C418.1,300.5,417.9,300.6,417.7,300.7L417.7,300.7z M423.7,258.5
			c2.2-0.6,4-1.5,5.5-2.9c1.4-1.3,2.5-2.9,3.1-4.8c0.9-2.8,0.3-5.6,0.1-8.4c-0.1-0.9-0.6-1.2-1.3-1.1c-0.9,0.1-0.9,0.7-1,1.4
			c0,0.5,0.1,1.1,0.1,1.6c0.1,1.8,0.5,3.6,0,5.4c-0.9,3.2-2.9,5.3-6.1,6.3c-3.1,0.9-6,0.6-8.4-1.8c-1.2-1.2-2.4-2.5-3.6-3.8
			c-0.7-0.7-1.2-0.7-1.8-0.2c-0.4,0.4-0.3,1.3,0.2,1.8c0.5,0.5,0.9,1,1.3,1.4c1.2,1.3,2.3,2.6,3.9,3.6
			C418.3,258.7,421,259,423.7,258.5L423.7,258.5z"/>
		<path class="st3" d="M407,244.8c-0.5-3.7-0.7-7.2,1.5-10.5c2.7-3.9,8-5.9,12.5-4.6c2.5,0.7,4.4,2.2,6,4.2c0.5,0.6,1,1.1,1.5,1.7
			c-0.6,0.3-1.2,0.6-1.8,0.8c-0.2,0.1-0.7-0.1-0.8-0.3c-1.4-1.5-2.7-3.1-4.7-3.9c-2.7-1.1-5.4-0.8-7.8,0.7c-3.6,2.1-4.9,5.4-4.3,9.5
			c0.2,1.5,0.2,1.6-1.2,2.2C407.6,244.6,407.3,244.7,407,244.8L407,244.8z"/>
		<path class="st3" d="M430.5,237.4l-23.2,9.9L416,268l23.2-9.9L430.5,237.4z"/>
		<path class="st27" d="M449.5,272.9c0.2,0.5,0.3,1,0.3,1.6c0,1.4-0.5,2.6-1.5,3.7c-1,1-2.4,1.9-4,2.6c-1.7,0.7-3.5,1.2-5.6,1.5
			c-2.1,0.3-4.2,0.5-6.3,0.5c-2.5,0-4.7-0.1-6.8-0.4c-2-0.3-3.9-0.8-5.5-1.5c-1.6-0.7-3-1.6-4.2-2.8c-1.2-1.1-2.2-2.6-2.9-4.2
			c-0.3-0.5-0.5-0.7-0.8-0.7c-0.1,0-0.2,0-0.3,0c-0.1,0-0.3,0-0.4,0.1c-0.2,0-0.3,0-0.5,0.1c-0.2,0-0.3,0-0.4,0
			c-0.6,0-1.1-0.2-1.6-0.7c-0.5-0.5-0.7-1.2-0.7-2c0-0.6,0.2-1.1,0.5-1.6c0.4-0.5,0.9-0.9,1.7-1.3c0.2-0.1,0.4-0.2,0.6-0.4
			c0.1-0.1,0.2-0.3,0.2-0.6c0-0.7,0-1.4-0.1-2.2c0-0.8-0.1-1.7-0.2-2.7c0-0.2-0.1-0.4-0.2-0.6c-0.1-0.2-0.2-0.4-0.4-0.6
			c-0.1-0.2-0.3-0.5-0.4-0.8c-0.1-0.3-0.2-0.7-0.2-1.1c0-0.4,0.1-0.9,0.2-1.4c0.1-0.5,0.3-1,0.7-1.5c0.4-0.5,0.9-0.8,1.6-1.2
			c0.7-0.3,1.5-0.5,2.6-0.5c0.5,0,0.8,0,1.1,0.1c0.3,0.1,0.6,0.2,0.8,0.3c0.2,0.1,0.4,0.2,0.6,0.3c0.2,0.1,0.4,0.1,0.6,0.1
			c0.3,0,1-0.1,2-0.2c1-0.1,2.2-0.3,3.7-0.6c1.4-0.2,3-0.5,4.8-0.8c1.7-0.3,3.5-0.6,5.3-1c1.8-0.4,3.5-0.7,5.2-1.1
			c1.7-0.4,3.2-0.7,4.6-1.1c0.4-0.1,0.8-0.2,1.1-0.2c0.4,0,0.8,0.1,1.1,0.3c0.3,0.2,0.5,0.5,0.6,0.7c0.1,0.3,0.2,0.6,0.2,1
			c0,0.4,0.1,0.7,0.1,1c0,0.5-0.2,1.1-0.5,1.6c-0.4,0.5-1,0.9-1.8,1.2c-2.1,0.6-4.2,1.2-6.4,1.7c-2.1,0.5-4.3,0.9-6.4,1.3
			c-2.2,0.4-4.3,0.7-6.5,1.1c-2.2,0.3-4.4,0.6-6.5,0.9c-0.3,0-0.5,0.2-0.7,0.3c-0.2,0.2-0.2,0.4-0.2,0.7l0,1.3c0,0.4,0,0.7,0,1.1
			c0,0.4,0.1,0.7,0.2,1.1c0.1,0.3,0.2,0.6,0.3,0.8c0.1,0.2,0.3,0.3,0.5,0.3c0.5,0,1.3-0.1,2.4-0.3c1.1-0.2,2.3-0.5,3.6-0.8
			c1.3-0.3,2.8-0.7,4.2-1.1c1.5-0.4,2.9-0.7,4.2-1.1c1.3-0.3,2.5-0.6,3.5-0.8c1-0.2,1.7-0.3,2.1-0.3c0.6,0,1,0.2,1.4,0.6
			c0.3,0.4,0.5,1,0.6,1.6c0,0.1,0,0.2,0,0.3c0,0.1,0,0.2,0,0.3c0,0.6-0.2,1.2-0.5,1.7c-0.4,0.5-1,0.9-2,1.2
			c-0.3,0.1-0.8,0.2-1.5,0.4c-0.8,0.2-1.7,0.4-2.7,0.7c-1,0.3-2.2,0.5-3.4,0.8c-1.2,0.3-2.4,0.6-3.6,0.8c-1.2,0.3-2.3,0.5-3.3,0.8
			c-1,0.3-1.8,0.5-2.5,0.6c-0.6,0.2-0.9,0.3-1,0.4c-0.1,0.1-0.2,0.2-0.2,0.3c0,0.5,0.3,0.9,0.7,1.3c0.4,0.4,1,0.8,1.7,1.1
			c0.7,0.3,1.4,0.6,2.3,0.9c0.8,0.3,1.7,0.5,2.6,0.7c0.9,0.2,1.8,0.3,2.7,0.4c0.9,0.1,1.7,0.1,2.4,0.1l1.4,0c0.6,0,1.2,0,2-0.1
			c0.7,0,1.4-0.1,2.2-0.2c0.8-0.1,1.4-0.2,2-0.3c0.6-0.1,1.1-0.3,1.5-0.5c0.4-0.2,0.6-0.4,0.6-0.7c0-0.2-0.1-0.5-0.2-0.7
			c-0.2-0.3-0.2-0.5-0.2-0.8c0-0.4,0.1-0.9,0.3-1.3c0.2-0.4,0.5-0.8,0.9-1.1c0.4-0.3,0.8-0.6,1.3-0.8c0.5-0.2,1-0.3,1.4-0.3
			c0.6,0,1.2,0.1,1.7,0.4c0.5,0.2,1,0.6,1.3,1C449,271.9,449.3,272.4,449.5,272.9L449.5,272.9z"/>
		<path class="st27" d="M462.4,249.9c0-0.7,0.2-1.2,0.6-1.5c0.4-0.3,1.1-0.5,2-0.5c0.3,0,0.6,0,0.9,0.1c0.2,0.1,0.5,0.2,0.6,0.3
			c0.2,0.2,0.3,0.4,0.4,0.6c0.1,0.3,0.2,0.6,0.3,1c0.2,1.2,0.4,2.5,0.6,3.8c0.2,1.3,0.4,2.7,0.6,4c0.2,1.3,0.4,2.6,0.5,3.9
			s0.3,2.4,0.4,3.5c0.1,1.1,0.2,2,0.3,2.9c0.1,0.8,0.1,1.5,0.1,2c0,0.5,0,0.9-0.1,1.3c-0.1,0.3-0.2,0.6-0.4,0.8
			c-0.2,0.2-0.5,0.4-0.8,0.4c-0.3,0.1-0.7,0.1-1.2,0.1c-0.5,0-0.9-0.1-1.1-0.4c-0.3-0.2-0.4-0.6-0.4-1.1c0-0.5,0-1.2-0.1-2.1
			c-0.1-0.9-0.2-1.8-0.3-2.9s-0.3-2.2-0.5-3.4c-0.2-1.2-0.4-2.4-0.6-3.6c-0.2-1.2-0.4-2.3-0.6-3.4c-0.2-1.1-0.3-2-0.5-2.9
			c-0.1-0.8-0.3-1.5-0.3-2.1C462.4,250.3,462.4,250,462.4,249.9L462.4,249.9z"/>
		<path class="st27" d="M490.3,268.6c0.4-0.3,0.8-0.5,1.2-0.5c0.2,0,0.4,0.1,0.6,0.2c0.2,0.1,0.4,0.3,0.6,0.5
			c0.2,0.3,0.4,0.6,0.4,0.8c0.1,0.2,0.1,0.4,0.1,0.6c0,0.4-0.2,0.8-0.6,1.2c-0.7,0.6-1.4,1-2.1,1.5c-0.8,0.4-1.6,0.8-2.4,1.1
			c-0.8,0.3-1.7,0.5-2.6,0.7c-0.9,0.2-1.8,0.3-2.6,0.3c-1.1,0-2.1-0.1-3.1-0.4c-1-0.3-1.8-0.7-2.6-1.2c-0.8-0.5-1.4-1.1-1.9-1.9
			c-0.5-0.7-0.9-1.6-1.1-2.5c-0.1-0.4-0.2-0.6-0.3-0.7c-0.1-0.1-0.3-0.2-0.5-0.2c-0.5,0-0.9-0.1-1.2-0.4c-0.3-0.2-0.4-0.6-0.4-1.1
			c0-0.2,0-0.3,0-0.4l0-0.4c0.1-0.5,0.2-0.9,0.4-1.1c0.2-0.2,0.5-0.3,0.9-0.3l0.3,0c0.6,0,1-0.3,1.2-0.8c0.4-0.9,0.9-1.8,1.6-2.6
			c0.7-0.8,1.4-1.5,2.2-2c0.8-0.6,1.7-1,2.6-1.3s1.9-0.5,2.9-0.5c1,0,2,0.1,2.8,0.4c0.9,0.3,1.7,0.7,2.3,1.2
			c0.7,0.5,1.2,1.1,1.6,1.8c0.4,0.7,0.6,1.4,0.6,2.3c0,0.6-0.1,1.1-0.3,1.5c-0.2,0.5-0.5,0.9-0.9,1.2c-0.4,0.4-0.9,0.6-1.5,0.9
			c-0.6,0.2-1.2,0.4-2,0.5l-7.1,0.8c-0.3,0-0.5,0.1-0.7,0.2c-0.2,0.1-0.3,0.3-0.2,0.6c0,0.4,0.1,0.7,0.4,1c0.3,0.3,0.6,0.6,1.1,0.9
			c0.4,0.3,1,0.4,1.5,0.6c0.6,0.1,1.2,0.2,1.8,0.2c0.6,0,1.2-0.1,1.8-0.2c0.6-0.1,1.2-0.3,1.8-0.5c0.6-0.2,1.2-0.5,1.8-0.8
			C489.3,269.4,489.8,269,490.3,268.6L490.3,268.6z M485.7,263.3c0.2,0,0.4-0.1,0.5-0.3c0.1-0.2,0.2-0.4,0.2-0.6
			c0-0.2-0.1-0.4-0.2-0.6c-0.2-0.2-0.4-0.3-0.6-0.5c-0.3-0.1-0.6-0.3-0.9-0.3c-0.3-0.1-0.7-0.1-1.1-0.1c-0.6,0-1.1,0.1-1.7,0.3
			c-0.6,0.2-1.1,0.4-1.6,0.7c-0.5,0.3-0.9,0.6-1.2,0.9c-0.3,0.3-0.4,0.6-0.4,1c0,0.3,0.2,0.5,0.6,0.5c0.2,0,0.6,0,1.1-0.1
			c0.5-0.1,1.1-0.1,1.7-0.2c0.6-0.1,1.3-0.2,1.9-0.3C484.7,263.5,485.2,263.4,485.7,263.3L485.7,263.3z"/>
		<path class="st27" d="M501.7,256c0.7,0,1.4,0.1,2.1,0.3c0.7,0.2,1.3,0.5,1.8,0.8c0.5,0.3,0.9,0.7,1.3,1.2c0.3,0.4,0.5,0.9,0.5,1.4
			c0,0.3-0.1,0.6-0.2,0.9c-0.1,0.3-0.3,0.5-0.5,0.7c-0.2,0.2-0.4,0.4-0.7,0.5s-0.5,0.2-0.8,0.2c-0.3,0-0.6-0.1-0.9-0.4
			c-0.3-0.2-0.5-0.5-0.8-0.8c-0.3-0.3-0.6-0.6-1-0.8c-0.4-0.2-0.8-0.4-1.3-0.3s-0.9,0.1-1.3,0.4c-0.4,0.2-0.7,0.6-1,1
			c-0.3,0.4-0.5,0.9-0.6,1.5c-0.1,0.6-0.2,1.2-0.2,1.9c0,1.9,0.4,3.4,1.1,4.4c0.7,1,1.8,1.5,3.1,1.5c0.6,0,1.2-0.1,1.6-0.3
			c0.5-0.2,0.9-0.4,1.2-0.7c0.3-0.3,0.7-0.5,0.9-0.7c0.3-0.2,0.6-0.3,0.9-0.3c0.2,0,0.3,0,0.5,0.2c0.2,0.1,0.3,0.2,0.4,0.4
			s0.2,0.3,0.3,0.5c0.1,0.2,0.1,0.4,0.1,0.6c0,0.5-0.2,0.9-0.7,1.4s-1,0.9-1.7,1.3c-0.7,0.4-1.5,0.7-2.3,1c-0.9,0.3-1.7,0.4-2.5,0.4
			c-1.1,0-2.1-0.2-3-0.6c-0.9-0.4-1.7-1-2.3-1.7c-0.7-0.7-1.2-1.6-1.6-2.7c-0.4-1-0.6-2.2-0.6-3.4c0-1.4,0.2-2.6,0.6-3.8
			c0.4-1.2,0.9-2.2,1.7-3c0.7-0.8,1.6-1.5,2.5-2C499.5,256.3,500.5,256.1,501.7,256L501.7,256z"/>
		<path class="st27" d="M510.6,249.2c0-0.7,0.2-1.2,0.6-1.5s1.1-0.4,2-0.5c0.3,0,0.6,0,0.9,0.1c0.2,0.1,0.4,0.2,0.6,0.3
			c0.2,0.2,0.3,0.4,0.4,0.6c0.1,0.3,0.2,0.6,0.3,1c0.2,1.3,0.4,2.6,0.6,3.9c0.2,1.4,0.4,2.7,0.7,4.1c0.1,0.6,0.4,0.9,1,0.9
			c0.2,0,0.4,0,0.7-0.1c0.3,0,0.8-0.1,1.2-0.1c0.5,0,1-0.1,1.5-0.2c0.6-0.1,1.1-0.1,1.7-0.2c0.6,0,1.1-0.1,1.6-0.1
			c0.5,0,0.9-0.1,1.3-0.1c0.3,0,0.5,0.1,0.7,0.2c0.2,0.1,0.3,0.3,0.4,0.5c0.1,0.2,0.2,0.4,0.2,0.6c0,0.2,0.1,0.5,0.1,0.7
			c0,0.2,0,0.4-0.1,0.6c-0.1,0.2-0.2,0.4-0.3,0.6c-0.1,0.2-0.3,0.3-0.5,0.4c-0.2,0.1-0.4,0.2-0.7,0.2c-1.2,0-2.4,0.1-3.6,0.1
			c-1.2,0.1-2.4,0.2-3.6,0.3c-0.6,0.1-0.9,0.4-0.9,0.9c0,0,0,0.1,0,0.2c0,0.1,0,0.1,0,0.2c0.2,1.2,0.3,2.3,0.5,3.3
			c0.1,1,0.3,2,0.4,2.8c0.1,0.8,0.2,1.5,0.3,2c0.1,0.5,0.1,0.9,0.1,1.1c0,0.5,0,0.9-0.1,1.2c-0.1,0.3-0.2,0.6-0.5,0.8
			c-0.2,0.2-0.5,0.4-0.9,0.5c-0.4,0.1-0.8,0.1-1.4,0.1c-0.5,0-0.9-0.1-1.2-0.4c-0.3-0.2-0.4-0.6-0.4-1.1c-0.1-1.6-0.2-3.2-0.4-4.9
			c-0.2-1.6-0.4-3.3-0.7-4.9c-0.1-0.6-0.4-0.9-0.9-0.9c0,0-0.1,0-0.1,0c-0.1,0-0.1,0-0.1,0c-0.8,0.2-1.6,0.4-2.4,0.6
			c-0.8,0.2-1.5,0.4-2.1,0.6c-0.4,0.1-0.7,0.2-1,0.3c-0.3,0-0.5,0.1-0.8,0.1c-0.3,0-0.6-0.1-0.7-0.4c-0.2-0.3-0.2-0.6-0.2-1.1
			c0-0.2,0-0.3,0-0.5c0-0.2,0.1-0.4,0.1-0.6c0.1-0.2,0.2-0.4,0.3-0.6c0.1-0.2,0.3-0.3,0.6-0.4c0.6-0.2,1.3-0.5,2.3-0.7
			c1-0.3,2-0.5,3.2-0.7c0.3-0.1,0.5-0.2,0.6-0.3c0.2-0.2,0.2-0.4,0.2-0.7l0-0.2c0-0.1,0-0.2,0-0.2c-0.2-1.3-0.4-2.4-0.7-3.4
			c-0.2-1-0.4-1.9-0.5-2.7c-0.2-0.7-0.3-1.3-0.4-1.7C510.6,249.5,510.6,249.3,510.6,249.2L510.6,249.2z"/>
		<path class="st27" d="M537,257.3c-0.5,0-0.9,0.1-1.3,0.4c-0.4,0.3-0.7,0.6-1,1.1c-0.3,0.5-0.5,1-0.7,1.7c-0.2,0.6-0.3,1.3-0.4,2.1
			s-0.2,1.5-0.2,2.4c0,0.8,0,1.6,0,2.5c0,1.1,0.1,2.2,0.2,3.2c0.1,1.1,0.1,2,0.2,2.9c0,0.6-0.2,1-0.6,1.4c-0.4,0.3-1.1,0.5-1.9,0.5
			c-0.2,0-0.3,0-0.5,0c-0.2,0-0.4-0.1-0.5-0.2c-0.2-0.1-0.3-0.2-0.5-0.3c-0.1-0.1-0.2-0.3-0.2-0.6c-0.1-1.2-0.3-2.4-0.6-3.7
			c-0.2-1.3-0.5-2.5-0.9-3.8c-0.4-1.2-0.8-2.5-1.3-3.7s-1.1-2.4-1.7-3.6c-0.1-0.2-0.2-0.4-0.3-0.6c-0.1-0.2-0.1-0.4-0.1-0.5
			c0-0.2,0.1-0.4,0.3-0.7c0.2-0.2,0.4-0.5,0.7-0.7c0.3-0.2,0.6-0.4,0.9-0.5c0.3-0.1,0.7-0.2,1-0.2c0.5,0,1,0.4,1.4,1.1
			c0.4,0.7,0.8,1.9,1.1,3.4c0.1,0.3,0.1,0.5,0.2,0.6c0,0.1,0.1,0.2,0.2,0.2c0.1,0,0.2-0.2,0.3-0.7c0.2-1.3,0.4-2.4,0.8-3.4
			c0.4-0.9,0.9-1.7,1.5-2.3c0.6-0.6,1.3-1.1,2-1.4c0.8-0.3,1.6-0.4,2.5-0.5c0.5,0,1.1,0,1.6,0.1c0.5,0.1,1,0.2,1.5,0.4
			c0.4,0.2,0.8,0.4,1.1,0.7c0.3,0.3,0.4,0.6,0.4,0.9c0,0.2,0,0.5-0.1,0.9c-0.1,0.3-0.2,0.7-0.4,1c-0.2,0.3-0.3,0.6-0.6,0.8
			c-0.2,0.2-0.4,0.3-0.6,0.3c-0.2,0-0.5-0.1-0.7-0.2c-0.2-0.1-0.5-0.3-0.8-0.5c-0.3-0.2-0.6-0.3-0.8-0.5
			C537.7,257.4,537.4,257.3,537,257.3L537,257.3z"/>
		<path class="st27" d="M541.1,265.8c0-0.2,0-0.5,0.1-0.8c0.1-0.3,0.1-0.6,0.1-0.9c0-0.2-0.1-0.4-0.3-0.5s-0.4-0.3-0.7-0.4
			c-0.2-0.2-0.5-0.3-0.7-0.6c-0.2-0.2-0.3-0.6-0.3-1c0-0.3,0.1-0.6,0.2-0.9c0.2-0.3,0.4-0.6,0.7-0.9c0.8-0.6,1.6-1.2,2.5-1.6
			c0.9-0.5,1.7-0.9,2.6-1.2c0.9-0.3,1.7-0.6,2.6-0.8c0.8-0.2,1.7-0.3,2.4-0.3c1.3,0,2.5,0.2,3.7,0.7c1.2,0.5,2.2,1.1,3,2
			c0.9,0.8,1.5,1.8,2.1,2.9c0.5,1.1,0.8,2.3,0.8,3.6c0,1.3-0.2,2.5-0.8,3.6c-0.5,1.1-1.2,2.1-2.1,3c-0.9,0.9-1.9,1.5-3.1,2.1
			c-1.2,0.5-2.5,0.8-3.8,0.8c-1.3,0-2.5-0.2-3.6-0.6c-1.1-0.4-2.1-1-2.9-1.8c-0.8-0.8-1.4-1.7-1.9-2.7
			C541.3,268.2,541.1,267.1,541.1,265.8L541.1,265.8z M550.6,270.8c0.6,0,1.2-0.1,1.8-0.4c0.6-0.2,1.2-0.6,1.7-1
			c0.5-0.5,0.9-1,1.3-1.6c0.3-0.6,0.5-1.4,0.5-2.2c0-0.8-0.2-1.6-0.5-2.3c-0.3-0.7-0.7-1.3-1.3-1.8c-0.5-0.5-1.2-0.9-1.9-1.2
			c-0.7-0.3-1.5-0.4-2.3-0.4c-1.5,0-2.7,0.4-3.5,1.2c-0.8,0.8-1.2,2-1.2,3.6c0,0.9,0.1,1.7,0.4,2.5c0.3,0.8,0.6,1.4,1.1,2
			c0.5,0.6,1,1,1.7,1.3C549.1,270.6,549.8,270.8,550.6,270.8L550.6,270.8z"/>
		<path class="st27" d="M560.1,277.7c-1.1,0.6-2.2,1.2-3.3,1.8c-0.1-0.3-0.2-0.6-0.2-0.9c-0.1-0.5-0.2-0.9-0.3-1.4
			c-0.1-0.4-0.2-0.8-0.3-1.2c-0.1-0.5-0.2-1-0.4-1.4c-0.1-0.5-0.3-1.1-0.4-1.6c-0.1-0.5-0.3-1-0.4-1.6c-0.1-0.4-0.2-0.7-0.3-1.1
			c0,0,0-0.1,0.1-0.1c0.9-0.5,1.8-1,2.8-1.5c0.6-0.3,1.2-0.6,1.7-0.9c0,0,0.1,0,0.1,0l0.6,6c1.3-0.7,2.6-1.4,3.9-2
			c-0.3,4.8-0.6,9.5-1,14.2c0,0,0,0,0,0C561.8,283.2,561,280.5,560.1,277.7L560.1,277.7z"/>
	</g>
</g>
<path class="st27" d="M468.5,296c0.9,0,1.8,0.1,2.7,0.4c0.9,0.2,1.8,0.5,2.5,0.9c0.8,0.4,1.4,0.7,1.9,1.2c0.5,0.4,0.7,0.9,0.7,1.3
	c0,0.2-0.1,0.4-0.3,0.7c-0.2,0.2-0.4,0.5-0.7,0.7c-0.3,0.2-0.5,0.4-0.9,0.6c-0.3,0.1-0.6,0.2-0.8,0.2c-0.3,0-0.7-0.1-1.1-0.4
	c-0.4-0.3-0.8-0.5-1.3-0.9c-0.5-0.3-1-0.6-1.5-0.9s-1.1-0.4-1.8-0.4c-0.4,0-0.8,0.1-1,0.3c-0.3,0.2-0.4,0.5-0.4,0.8
	c0,0.3,0.2,0.7,0.5,1c0.3,0.3,0.7,0.7,1.2,1c0.5,0.4,1.1,0.7,1.8,1.1c0.7,0.4,1.3,0.8,2,1.2c0.7,0.4,1.4,0.9,2,1.4
	c0.7,0.5,1.2,1.1,1.7,1.7c0.5,0.6,0.9,1.3,1.2,2c0.3,0.7,0.5,1.5,0.5,2.3c0,0.7-0.1,1.4-0.4,2c-0.3,0.6-0.6,1.1-1.1,1.5
	c-0.5,0.4-1.1,0.8-1.7,1s-1.4,0.4-2.2,0.4c-1,0-1.9-0.2-2.8-0.5c-0.8-0.3-1.6-0.7-2.2-1.2s-1.1-1.2-1.4-1.9
	c-0.3-0.7-0.5-1.6-0.5-2.4c0-1.1,0.2-2,0.6-2.5c0.4-0.5,1.1-0.8,2-0.8c0.5,0,1,0.1,1.3,0.3c0.3,0.2,0.5,0.5,0.5,0.8
	c0,0.2,0,0.3-0.1,0.5c-0.1,0.2-0.1,0.3-0.2,0.5c-0.1,0.2-0.1,0.4-0.2,0.5c0,0.2-0.1,0.4-0.1,0.6c0,0.3,0.1,0.7,0.2,1
	c0.2,0.3,0.4,0.6,0.6,0.8c0.3,0.2,0.6,0.4,0.9,0.6c0.4,0.1,0.7,0.2,1.1,0.2c1,0,1.6-0.4,1.6-1.3c0-0.7-0.3-1.3-0.8-1.9
	c-0.5-0.6-1.2-1.2-2-1.8c-0.8-0.6-1.7-1.2-2.6-1.8c-0.9-0.6-1.8-1.2-2.6-1.8c-0.8-0.6-1.5-1.3-2-2c-0.5-0.7-0.8-1.5-0.8-2.4
	c0-0.7,0.1-1.3,0.4-1.9c0.3-0.6,0.7-1.1,1.2-1.5c0.5-0.4,1.1-0.8,1.8-1C466.9,296.2,467.7,296,468.5,296z M477.8,294.2
	c0-1.4,0.9-2.1,2.7-2.1c0.3,0,0.6,0.1,0.8,0.3c0.2,0.2,0.4,0.4,0.4,0.7c0.1,0.8,0.2,1.6,0.3,2.4c0.1,0.8,0.2,1.7,0.3,2.6
	c0.1,1,0.2,2.1,0.3,3.4c0.1,1.3,0.2,2.8,0.3,4.5c0,0.2,0,0.3,0.1,0.4c0.1,0.1,0.1,0.1,0.2,0.1c0.1,0,0.2-0.1,0.4-0.4
	c0.4-1,0.9-1.8,1.5-2.6c0.5-0.8,1.1-1.4,1.8-2c0.6-0.5,1.3-1,2-1.2c0.7-0.3,1.4-0.4,2.1-0.4c1,0,1.8,0.3,2.6,0.8s1.4,1.3,2,2.3
	c0.5,1,1,2.2,1.3,3.7c0.3,1.4,0.4,3,0.4,4.8c0,0.5,0,0.9-0.1,1.2c-0.1,0.3-0.2,0.5-0.4,0.7c-0.2,0.2-0.4,0.3-0.7,0.4
	c-0.3,0.1-0.7,0.1-1.1,0.1c-0.6,0-1.1-0.1-1.3-0.4c-0.3-0.2-0.4-0.6-0.4-1.1c0-1.2-0.1-2.4-0.3-3.5c-0.2-1.1-0.4-2.1-0.7-2.9
	c-0.3-0.8-0.6-1.5-1-2c-0.4-0.5-0.8-0.7-1.2-0.7c-1,0-2,0.8-3,2.4c-1,1.6-2,4.1-3.1,7.4c-0.1,0.3-0.2,0.5-0.4,0.7
	c-0.1,0.2-0.3,0.4-0.5,0.5c-0.2,0.1-0.4,0.2-0.6,0.2c-0.2,0.1-0.5,0.1-0.9,0.1c-0.7,0-1.2-0.1-1.5-0.4c-0.3-0.3-0.4-0.7-0.5-1.3
	c-0.1-2.3-0.2-4.4-0.4-6.5c-0.2-2.1-0.4-3.9-0.6-5.6c-0.2-1.7-0.4-3.1-0.6-4.3C477.9,295.5,477.8,294.7,477.8,294.2z M500.1,306.5
	c0-0.2,0-0.5,0.1-0.7c0.1-0.3,0.1-0.6,0.1-0.9c0-0.2-0.1-0.4-0.3-0.5c-0.2-0.1-0.4-0.2-0.6-0.4c-0.2-0.1-0.4-0.3-0.6-0.5
	c-0.2-0.2-0.3-0.5-0.3-1c0-0.3,0.1-0.6,0.2-0.9c0.2-0.3,0.4-0.6,0.7-0.8c0.8-0.6,1.6-1.1,2.4-1.5c0.8-0.5,1.7-0.8,2.5-1.2
	c0.8-0.3,1.7-0.6,2.5-0.7c0.8-0.2,1.6-0.3,2.3-0.3c1.2,0,2.4,0.2,3.5,0.7c1.1,0.5,2.1,1.1,2.9,1.9c0.8,0.8,1.5,1.7,1.9,2.8
	c0.5,1.1,0.7,2.2,0.7,3.4c0,1.2-0.3,2.3-0.8,3.4c-0.5,1.1-1.2,2-2,2.8c-0.8,0.8-1.8,1.4-3,1.9c-1.1,0.5-2.3,0.7-3.6,0.7
	c-1.2,0-2.4-0.2-3.4-0.6c-1.1-0.4-2-1-2.7-1.7c-0.8-0.7-1.4-1.6-1.8-2.6C500.3,308.8,500.1,307.7,500.1,306.5z M509.1,311.3
	c0.5,0,1.1-0.1,1.7-0.3c0.6-0.2,1.1-0.5,1.6-1c0.5-0.4,0.9-1,1.2-1.6c0.3-0.6,0.5-1.3,0.5-2.1c0-0.8-0.1-1.5-0.4-2.2
	c-0.3-0.7-0.7-1.3-1.2-1.8c-0.5-0.5-1.1-0.9-1.8-1.2c-0.7-0.3-1.4-0.4-2.2-0.4c-1.4,0-2.6,0.4-3.3,1.1c-0.8,0.7-1.2,1.9-1.2,3.4
	c0,0.8,0.1,1.6,0.4,2.4c0.3,0.7,0.6,1.3,1.1,1.9c0.5,0.5,1,0.9,1.6,1.2C507.7,311.1,508.4,311.3,509.1,311.3z M518.7,299.4
	c0-0.5,0.2-0.9,0.7-1.2c0.5-0.3,1.1-0.4,2-0.4c0.2,0,0.4,0,0.5,0.1s0.3,0.2,0.4,0.3c0.1,0.1,0.2,0.3,0.4,0.6c0.1,0.3,0.2,0.6,0.3,1
	c0.1,0.5,0.2,0.7,0.3,0.7c0.1,0,0.2-0.2,0.3-0.6c0.2-0.7,0.5-1.4,0.9-1.9c0.4-0.6,0.8-1,1.3-1.4c0.5-0.4,1-0.7,1.6-0.8
	c0.6-0.2,1.2-0.3,1.8-0.3c1.3,0,2.4,0.2,3.5,0.7c1.1,0.5,2,1.1,2.8,2c0.8,0.8,1.4,1.8,1.9,3c0.5,1.1,0.7,2.4,0.7,3.7
	c0,1.4-0.2,2.7-0.7,3.9c-0.5,1.2-1.2,2.2-2,3.1c-0.9,0.9-1.9,1.5-3.1,2c-1.2,0.5-2.5,0.7-3.9,0.7l-1,0c-0.6,0-0.9,0.3-0.9,1l1,9
	c0,0.2-0.1,0.4-0.2,0.6c-0.1,0.2-0.3,0.4-0.5,0.5c-0.2,0.1-0.5,0.3-0.8,0.3c-0.3,0.1-0.6,0.1-0.9,0.1c-0.9,0-1.4-0.3-1.5-0.9
	c-0.3-2.4-0.6-4.6-0.9-6.8c-0.3-2.1-0.7-4.1-1-6c-0.3-1.8-0.7-3.5-1-5c-0.3-1.5-0.6-2.8-0.9-3.9c-0.2-1.1-0.4-2-0.6-2.7
	C518.8,300,518.7,299.6,518.7,299.4z M525.1,304.5c0,0.8,0,1.7,0.1,2.5c0.1,0.8,0.2,1.7,0.3,2.7c0.1,0.6,0.4,0.9,1,1
	c0.3,0.1,0.7,0.2,1.1,0.2c0.4,0.1,0.8,0.1,1.1,0.1c0.8,0,1.6-0.1,2.3-0.4c0.7-0.2,1.3-0.6,1.7-1.1c0.5-0.5,0.9-1,1.1-1.7
	c0.3-0.6,0.4-1.3,0.4-2.1c0-1-0.1-1.8-0.4-2.7c-0.3-0.8-0.6-1.6-1.1-2.2c-0.4-0.6-1-1.1-1.6-1.4c-0.6-0.4-1.2-0.5-2-0.5
	c-0.6,0-1.2,0.1-1.7,0.4c-0.5,0.3-0.9,0.6-1.3,1.1c-0.4,0.5-0.6,1-0.8,1.7C525.2,303,525.1,303.7,525.1,304.5z"/>
<path class="st28" d="M395.4,413.1c-1.3,0-2.2,0.2-2.8,0.7c-0.4,0.4-0.7,1-0.9,1.8l-7,24.6h-1c-1-3.4-1.9-6.7-2.9-10
	c-1-3.3-1.9-6.7-2.9-10.1c-1,3.4-2,6.8-3,10.1c-1,3.3-1.9,6.7-2.9,10h-1l-7.1-25.4c-0.2-0.6-0.4-1-0.8-1.2c-0.5-0.3-1.4-0.4-2.7-0.4
	v-1.3h10v1.3c-0.9,0-1.7,0-2.3,0.1c-0.6,0.1-0.9,0.2-1.1,0.3c-0.2,0.1-0.3,0.3-0.3,0.6c0,0.2,0,0.5,0.1,0.7l5.3,19.4
	c0.8-2.9,1.6-5.8,2.4-8.7c0.8-2.9,1.7-5.8,2.5-8.7l-0.5-2.1c-0.1-0.3-0.2-0.5-0.4-0.8s-0.3-0.4-0.5-0.5c-0.4-0.3-1.3-0.4-2.7-0.4
	v-1.3H383v1.3c-1,0-1.8,0-2.3,0.1c-0.6,0.1-0.9,0.2-1.1,0.3c-0.2,0.1-0.3,0.3-0.4,0.5c-0.1,0.2,0,0.5,0.1,0.8l5.4,19.5l5.3-19
	c0.1-0.3,0.1-0.6,0.2-0.9c0-0.3-0.1-0.6-0.3-0.8c-0.3-0.3-1.4-0.5-3.2-0.5v-1.3h8.7V413.1z M413.7,434.9c0.1,0.1,0.3,0.2,0.4,0.3
	c0.2,0.1,0.3,0.2,0.4,0.3c-0.6,1-1.3,1.8-2.1,2.4c-0.8,0.6-1.6,1.2-2.5,1.6c-1.2,0.6-2.5,0.9-3.9,0.9c-2.6,0-4.8-0.8-6.5-2.5
	c-1.8-1.8-2.7-4.2-2.7-7.2c0-2.9,0.9-5.3,2.6-7.1c1.7-1.8,3.8-2.8,6.4-2.8c2.6,0,4.6,0.7,6.1,2.2c1.6,1.5,2.4,3.7,2.4,6.6
	c-2.5,0.1-4.9,0.2-7.3,0.3c-2.4,0.1-4.9,0.2-7.4,0.2c0,0.1,0,0.2,0,0.3c0,0.1,0,0.2,0,0.3c0,1.1,0.1,2.1,0.4,3
	c0.3,0.9,0.8,1.7,1.4,2.4c1.2,1.6,2.9,2.4,5.2,2.4c1.2,0,2.4-0.3,3.7-0.9c0.6-0.3,1.2-0.7,1.7-1.2
	C412.6,436.1,413.2,435.5,413.7,434.9z M399.8,428.7c2-0.1,4-0.1,5.9-0.2c1.9-0.1,3.9-0.1,5.9-0.2c0-1.8-0.6-3.2-1.6-4.2
	c-1.1-1.2-2.5-1.8-4.1-1.8c-1.6,0-3,0.6-4.2,1.9C400.5,425.4,399.9,426.9,399.8,428.7z M424.6,439.7h-7.7v-1.3c1,0,1.7-0.1,2.1-0.4
	c0.3-0.3,0.5-0.8,0.5-1.7v-20.8c0-0.5-0.2-0.8-0.5-1c-0.3-0.2-1-0.3-2-0.3l-0.2-1c0.9-0.3,1.7-0.6,2.6-0.9c0.9-0.3,1.7-0.6,2.6-1v25
	c0,0.8,0.1,1.4,0.4,1.7c0.2,0.1,0.5,0.2,0.8,0.3c0.4,0.1,0.8,0.2,1.4,0.2V439.7z M442.7,434.9c0.1,0.1,0.3,0.2,0.4,0.3
	c0.1,0.1,0.3,0.2,0.4,0.3c-1.9,3.3-4.6,5-7.8,5c-2.3,0-4.3-0.8-6-2.5c-1.7-1.8-2.5-4.1-2.5-6.8c0-2.9,0.9-5.3,2.7-7.4
	c1.8-1.9,4-2.9,6.6-2.9c1.6,0,2.9,0.3,4.1,0.9c0.4,0.2,0.8,0.5,1.2,0.8c0.4,0.3,0.7,0.6,0.9,1c0.3,0.5,0.4,0.9,0.4,1.4
	c0,0.5-0.1,0.9-0.4,1.4c-0.3,0.4-0.7,0.6-1.2,0.6c-1,0-1.6-0.7-1.9-2.2c-0.1-0.4-0.2-0.7-0.5-1c-0.2-0.3-0.5-0.5-0.9-0.7
	c-0.7-0.4-1.5-0.6-2.6-0.6c-1.5,0-2.9,0.8-4,2.4c-1.2,1.7-1.8,3.6-1.8,5.8c0,1.2,0.1,2.3,0.4,3.3c0.3,1,0.8,1.8,1.4,2.6
	c1.3,1.5,2.8,2.2,4.7,2.2C438.7,438.6,440.8,437.4,442.7,434.9z M463.4,430.6c0,3-0.9,5.4-2.6,7.2c-1.6,1.8-3.7,2.7-6.2,2.7
	c-2.6,0-4.7-0.9-6.3-2.7c-1.7-1.8-2.6-4.2-2.6-7.2s0.9-5.4,2.6-7.2c1.6-1.8,3.7-2.7,6.3-2.7c2.5,0,4.6,0.9,6.2,2.7
	C462.5,425.3,463.4,427.7,463.4,430.6z M460.7,430.6c0-2.5-0.6-4.5-1.8-6c-1.1-1.6-2.5-2.4-4.3-2.4c-1.8,0-3.2,0.8-4.4,2.4
	c-1.1,1.6-1.7,3.6-1.7,6c0,2.4,0.6,4.4,1.7,6c1.1,1.5,2.6,2.3,4.4,2.3c1.7,0,3.2-0.8,4.3-2.3C460.1,435.1,460.7,433.1,460.7,430.6z
	 M496,439.7h-8v-1.3c1,0,1.7-0.1,2.2-0.4c0.3-0.3,0.5-0.8,0.5-1.5v-10.6c0-2-1.1-3-3.3-3c-1.7,0-3.5,0.8-5.4,2.4v11.2
	c0,0.7,0.2,1.2,0.5,1.5c0.3,0.1,0.6,0.2,0.9,0.3c0.3,0.1,0.7,0.2,1.2,0.2v1.3h-7.7v-1.3c1,0,1.7-0.1,2.1-0.4
	c0.3-0.3,0.5-0.8,0.5-1.5v-11c0-1.7-1.1-2.6-3.2-2.6c-1.9,0-3.8,0.8-5.6,2.5v11c0,0.8,0.2,1.3,0.5,1.5c0.5,0.3,1.3,0.4,2.3,0.4v1.3
	h-8.1v-1.3c1.2,0,2.1-0.2,2.5-0.7c0.2-0.3,0.3-0.6,0.3-1v-11.5c0-0.4-0.1-0.8-0.2-1c-0.1-0.2-0.4-0.4-0.8-0.6
	c-0.2-0.1-0.5-0.1-0.7-0.1c-0.3-0.1-0.6-0.1-1-0.1c0-0.1-0.1-0.3-0.1-0.4c0-0.2-0.1-0.3-0.1-0.4c0.9-0.3,1.8-0.6,2.6-0.9
	c0.9-0.3,1.7-0.6,2.6-0.9v2.8c2.3-1.9,4.6-2.8,6.9-2.8c2.2,0,3.7,1,4.3,3c2.3-2,4.6-3,6.9-3c1.8,0,3,0.5,3.7,1.6
	c0.5,0.7,0.8,1.7,0.8,3v11c0,0.7,0.2,1.2,0.5,1.5c0.2,0.1,0.5,0.2,0.9,0.3c0.4,0.1,0.9,0.2,1.4,0.2V439.7z M514.4,434.9
	c0.1,0.1,0.3,0.2,0.4,0.3c0.2,0.1,0.3,0.2,0.4,0.3c-0.6,1-1.3,1.8-2.1,2.4c-0.8,0.6-1.6,1.2-2.5,1.6c-1.2,0.6-2.5,0.9-3.9,0.9
	c-2.6,0-4.8-0.8-6.5-2.5c-1.8-1.8-2.7-4.2-2.7-7.2c0-2.9,0.9-5.3,2.6-7.1c1.7-1.8,3.8-2.8,6.4-2.8c2.6,0,4.6,0.7,6.1,2.2
	c1.6,1.5,2.4,3.7,2.4,6.6c-2.5,0.1-4.9,0.2-7.3,0.3c-2.4,0.1-4.9,0.2-7.4,0.2c0,0.1,0,0.2,0,0.3c0,0.1,0,0.2,0,0.3
	c0,1.1,0.1,2.1,0.4,3c0.3,0.9,0.8,1.7,1.4,2.4c1.2,1.6,2.9,2.4,5.2,2.4c1.2,0,2.4-0.3,3.7-0.9c0.6-0.3,1.2-0.7,1.7-1.2
	C513.3,436.1,513.9,435.5,514.4,434.9z M500.5,428.7c2-0.1,4-0.1,5.9-0.2c1.9-0.1,3.9-0.1,5.9-0.2c0-1.8-0.6-3.2-1.6-4.2
	c-1.1-1.2-2.5-1.8-4.1-1.8c-1.6,0-3,0.6-4.2,1.9C501.3,425.4,500.6,426.9,500.5,428.7z M539.7,435.8c0.1,0.1,0.3,0.2,0.4,0.3
	c0.1,0.1,0.3,0.2,0.4,0.2c-0.5,1.1-1.1,2.1-2,2.8c-0.9,0.9-1.9,1.3-3,1.3c-1.4,0-2.5-0.5-3.3-1.6c-0.2-0.4-0.4-0.8-0.5-1.3
	c-0.1-0.5-0.2-1-0.2-1.6v-13.2h-3.1v-1.3c1.4,0,2.5-0.5,3.2-1.6c0.8-1.3,1.2-3,1.2-5.4h1.2v6.7h5.2v1.6h-5.2v13.5
	c0,1.4,0.7,2.1,2.2,2.1C537.3,438.4,538.5,437.5,539.7,435.8z M559.9,430.6c0,3-0.9,5.4-2.6,7.2c-1.6,1.8-3.7,2.7-6.2,2.7
	c-2.6,0-4.7-0.9-6.3-2.7c-1.7-1.8-2.6-4.2-2.6-7.2s0.9-5.4,2.6-7.2c1.6-1.8,3.7-2.7,6.3-2.7c2.5,0,4.6,0.9,6.2,2.7
	C559.1,425.3,559.9,427.7,559.9,430.6z M557.2,430.6c0-2.5-0.6-4.5-1.8-6c-1.1-1.6-2.5-2.4-4.3-2.4c-1.8,0-3.2,0.8-4.4,2.4
	c-1.1,1.6-1.7,3.6-1.7,6c0,2.4,0.6,4.4,1.7,6c1.1,1.5,2.6,2.3,4.4,2.3c1.7,0,3.2-0.8,4.3-2.3C556.6,435.1,557.2,433.1,557.2,430.6z
	 M402.1,465.8c0,4.4-1.2,8-3.6,10.6c-2.3,2.6-5.1,4-8.5,4c-3.4,0-6.2-1.3-8.4-4c-2.4-2.7-3.6-6.2-3.6-10.6s1.2-8,3.6-10.6
	c2.3-2.6,5.1-4,8.4-4c3.4,0,6.2,1.3,8.5,4C400.9,457.8,402.1,461.4,402.1,465.8z M399.3,465.8c0-1.8-0.2-3.5-0.7-5.1
	c-0.5-1.5-1.1-3-2.1-4.2c-1.8-2.5-4-3.7-6.6-3.7c-2.5,0-4.7,1.2-6.5,3.7c-1.9,2.5-2.8,5.6-2.8,9.3c0,3.6,0.9,6.7,2.8,9.2
	c1.9,2.5,4,3.8,6.5,3.8c2.6,0,4.7-1.3,6.5-3.8C398.3,472.6,399.3,469.5,399.3,465.8z M423.3,479.5c-0.8,0-1.6,0-2.4,0.1
	c-0.8,0.1-1.6,0.2-2.4,0.3c0-0.3-0.1-0.7-0.1-1c0-0.3,0-0.6,0-1c-1.7,1.7-3.9,2.6-6.6,2.6c-1.4,0-2.5-0.3-3.3-0.9
	c-1.2-0.8-1.8-2.2-1.8-4.1v-10.6c0-0.6-0.1-0.9-0.4-1.1c-0.5-0.3-1.1-0.4-2-0.4c0-0.1,0-0.3,0-0.4c0-0.2,0-0.3,0-0.4
	c0.9-0.3,1.7-0.6,2.5-0.8c0.8-0.3,1.7-0.5,2.5-0.8v14.4c0,2.1,1.2,3.2,3.5,3.2c2.4,0,4.4-0.7,5.8-2v-11.6c0-0.3-0.1-0.6-0.4-0.8
	c-0.4-0.5-1.1-0.8-2-0.8c0-0.1,0-0.3,0-0.4c0-0.1,0-0.3,0-0.4c1.6-0.6,3.2-1.1,4.9-1.6v15.4c0,0.3,0,0.5,0.1,0.7
	c0.1,0.2,0.1,0.3,0.2,0.4c0.1,0.1,0.1,0.2,0.2,0.3c0.4,0.5,1.1,0.7,2.1,0.7V479.5z M439.8,462.6c0,1.4-0.6,2.1-1.8,2.1
	c-0.5,0-1.1-0.2-1.7-0.7c-0.5-0.4-0.9-0.6-1.5-0.6c-0.7,0-1.6,0.4-2.6,1.2c-0.8,0.6-1.6,1.4-2.4,2.2v9.7c0,0.7,0.1,1.2,0.4,1.5
	c0.3,0.3,1,0.4,2.2,0.4v1.3h-7.6v-1.3c0.7,0,1.2-0.1,1.6-0.2c0.4-0.1,0.6-0.3,0.8-0.5c0.1-0.2,0.2-0.5,0.2-1v-11.7
	c0-0.5-0.1-0.9-0.3-1.1c-0.1-0.1-0.3-0.2-0.7-0.4c-0.4-0.1-0.8-0.1-1.4-0.1c-0.1-0.1-0.1-0.3-0.1-0.4c0-0.1-0.1-0.3-0.1-0.4
	c0.9-0.3,1.7-0.7,2.5-1c0.8-0.3,1.7-0.7,2.5-1v4.1c0.6-0.6,1.3-1.2,1.9-1.7c0.6-0.5,1.3-0.9,1.9-1.3c1.3-0.8,2.6-1.2,3.9-1.2
	C439,460.7,439.8,461.4,439.8,462.6z M473.3,472.6c0,2.5-0.8,4.4-2.5,5.7c-1.6,1.4-3.7,2.1-6.4,2.1c-0.9,0-1.9-0.1-3-0.3
	c-1.1-0.2-2.1-0.5-3-0.9c-0.5,0.1-0.9,0.3-1.4,0.4c-0.4,0.2-0.8,0.3-1.2,0.6c-0.5-1.3-1-2.5-1.5-3.8c-0.5-1.2-1-2.5-1.4-3.8
	c0.2-0.1,0.4-0.2,0.5-0.3c0.2-0.1,0.3-0.2,0.5-0.3c1.3,2.1,2.6,3.6,3.8,4.5c0.4,0.3,0.9,0.6,1.4,0.9c0.6,0.3,1.1,0.5,1.7,0.7
	c0.6,0.2,1.2,0.4,1.8,0.5c0.6,0.1,1.1,0.2,1.6,0.2c1,0,1.9-0.1,2.7-0.4c0.8-0.3,1.5-0.6,2-1.1c1.1-1,1.7-2.4,1.7-4.1
	c0-0.6-0.1-1.3-0.4-1.9c-0.3-0.6-0.7-1.2-1.2-1.6c-1.1-0.9-3.2-1.8-6.3-2.9c-2.5-0.9-4.4-1.9-5.9-3.1c-1.9-1.5-2.9-3.3-2.9-5.4
	c0-2.2,0.8-3.9,2.3-5.2c1.5-1.3,3.4-2,5.8-2c1.1,0,2.3,0.2,3.4,0.5c0.3,0.1,0.6,0.2,0.8,0.3c0.3,0.1,0.6,0.2,0.8,0.3l2.4-0.8
	c0.5,1.2,1,2.4,1.4,3.6c0.5,1.2,1,2.4,1.4,3.6c-0.3,0.1-0.6,0.3-0.9,0.4c-1.1-1.9-2.4-3.4-3.8-4.6c-1.7-1.3-3.6-1.9-5.6-1.9
	c-0.7,0-1.3,0.1-1.9,0.3c-0.6,0.2-1.1,0.4-1.6,0.8c-0.7,0.5-1.2,1-1.6,1.7s-0.6,1.5-0.6,2.4c0,1.5,0.8,2.8,2.4,3.8
	c0.8,0.5,1.6,0.9,2.3,1.2c0.7,0.3,1.7,0.7,2.9,1c1.6,0.5,3,1.1,4.1,1.6s2,1.1,2.7,1.6C472.5,468.7,473.3,470.4,473.3,472.6z
	 M487,475.8c0.1,0.1,0.3,0.2,0.4,0.3c0.1,0.1,0.3,0.2,0.4,0.2c-0.5,1.1-1.1,2.1-2,2.8c-0.9,0.9-1.9,1.3-3,1.3
	c-1.4,0-2.5-0.5-3.3-1.6c-0.2-0.4-0.4-0.8-0.5-1.3c-0.1-0.5-0.2-1-0.2-1.6v-13.2h-3.1v-1.3c1.4,0,2.5-0.5,3.2-1.6
	c0.8-1.3,1.2-3,1.2-5.4h1.2v6.7h5.2v1.6h-5.2v13.5c0,1.4,0.7,2.1,2.2,2.1C484.7,478.4,485.9,477.5,487,475.8z M507.3,470.6
	c0,3-0.9,5.4-2.6,7.2c-1.6,1.8-3.7,2.7-6.2,2.7c-2.6,0-4.7-0.9-6.3-2.7c-1.7-1.8-2.6-4.2-2.6-7.2s0.9-5.4,2.6-7.2
	c1.6-1.8,3.7-2.7,6.3-2.7c2.5,0,4.6,0.9,6.2,2.7C506.4,465.3,507.3,467.7,507.3,470.6z M504.5,470.6c0-2.5-0.6-4.5-1.8-6
	c-1.1-1.6-2.5-2.4-4.3-2.4c-1.8,0-3.2,0.8-4.4,2.4c-1.1,1.6-1.7,3.6-1.7,6c0,2.4,0.6,4.4,1.7,6c1.1,1.5,2.6,2.3,4.4,2.3
	c1.7,0,3.2-0.8,4.3-2.3C504,475.1,504.5,473.1,504.5,470.6z M524.3,462.6c0,1.4-0.6,2.1-1.8,2.1c-0.5,0-1.1-0.2-1.7-0.7
	c-0.5-0.4-0.9-0.6-1.5-0.6c-0.7,0-1.6,0.4-2.6,1.2c-0.8,0.6-1.6,1.4-2.4,2.2v9.7c0,0.7,0.1,1.2,0.4,1.5c0.3,0.3,1,0.4,2.2,0.4v1.3
	h-7.6v-1.3c0.7,0,1.2-0.1,1.6-0.2c0.4-0.1,0.6-0.3,0.8-0.5c0.1-0.2,0.2-0.5,0.2-1v-11.7c0-0.5-0.1-0.9-0.3-1.1
	c-0.1-0.1-0.3-0.2-0.7-0.4c-0.4-0.1-0.8-0.1-1.4-0.1c-0.1-0.1-0.1-0.3-0.1-0.4c0-0.1-0.1-0.3-0.1-0.4c0.9-0.3,1.7-0.7,2.5-1
	c0.8-0.3,1.7-0.7,2.5-1v4.1c0.6-0.6,1.3-1.2,1.9-1.7c0.6-0.5,1.3-0.9,1.9-1.3c1.3-0.8,2.6-1.2,3.9-1.2
	C523.5,460.7,524.3,461.4,524.3,462.6z M542.8,474.9c0.1,0.1,0.3,0.2,0.4,0.3c0.2,0.1,0.3,0.2,0.4,0.3c-0.6,1-1.3,1.8-2.1,2.4
	c-0.8,0.6-1.6,1.2-2.5,1.6c-1.2,0.6-2.5,0.9-3.9,0.9c-2.6,0-4.8-0.8-6.5-2.5c-1.8-1.8-2.7-4.2-2.7-7.2c0-2.9,0.9-5.3,2.6-7.1
	c1.7-1.8,3.8-2.8,6.4-2.8c2.6,0,4.6,0.7,6.1,2.2c1.6,1.5,2.4,3.7,2.4,6.6c-2.5,0.1-4.9,0.2-7.3,0.3c-2.4,0.1-4.9,0.2-7.4,0.2
	c0,0.1,0,0.2,0,0.3c0,0.1,0,0.2,0,0.3c0,1.1,0.1,2.1,0.4,3c0.3,0.9,0.8,1.7,1.4,2.4c1.2,1.6,2.9,2.4,5.2,2.4c1.2,0,2.4-0.3,3.7-0.9
	c0.6-0.3,1.2-0.7,1.7-1.2C541.7,476.1,542.2,475.5,542.8,474.9z M528.8,468.7c2-0.1,4-0.1,5.9-0.2c1.9-0.1,3.9-0.1,5.9-0.2
	c0-1.8-0.6-3.2-1.6-4.2c-1.1-1.2-2.5-1.8-4.1-1.8c-1.6,0-3,0.6-4.2,1.9C529.6,465.4,529,466.9,528.8,468.7z"/>
</svg>
