<svg width="107" height="107" viewBox="0 0 107 107" fill="none" xmlns="http://www.w3.org/2000/svg">
<path d="M53.4815 26.6621C67.0326 26.7115 78.353 36.8711 79.8607 50.409C81.492 65.0586 70.6227 78.3371 55.947 79.6649C51.226 80.0911 46.7337 79.3129 42.4144 77.386C41.9571 77.1822 41.3269 77.1513 40.8263 77.2686C36.7913 78.1827 32.7686 79.1523 28.7397 80.0973C27.3926 80.4122 26.8674 79.9429 27.1331 78.5965C27.9735 74.403 28.8509 70.2156 29.6728 66.0221C29.7593 65.5897 29.6913 65.0524 29.5059 64.651C21.992 48.3833 31.8355 29.8675 49.5391 27.0388C50.8429 26.8289 52.1714 26.7918 53.4876 26.6683L53.4815 26.6621ZM34.1589 72.8836C36.1672 72.4143 38.0148 72.0931 39.7944 71.5373C41.5246 70.9938 42.9767 71.2038 44.6389 72.0005C58.3569 78.578 74.2067 68.5542 74.2376 53.3426C74.2685 38.1743 58.5608 28.1073 44.7934 34.481C34.2578 39.3601 29.7407 51.8727 34.8386 62.3288C35.5987 63.8913 35.8644 65.2871 35.3948 66.967C34.8695 68.8322 34.5915 70.7653 34.1589 72.8836Z" fill="white"/>
<path d="M61.2611 66.2505C58.085 66.164 55.947 65.5588 53.9572 64.5089C49.2796 62.0446 45.4669 58.5922 42.5009 54.2257C40.9067 51.8788 39.8871 49.2911 40.1219 46.3883C40.332 43.8129 41.9324 42.0774 43.9592 40.7311C44.8119 40.1691 45.918 40.6076 46.4 41.6204C47.191 43.2818 47.9819 44.9555 48.5998 46.6848C48.7976 47.2344 48.5319 48.0188 48.2971 48.6241C48.1055 49.1243 47.6297 49.5011 47.3084 49.9581C46.7955 50.6869 46.7461 51.4712 47.2713 52.1938C49.5576 55.3312 52.4001 57.8572 55.811 59.7224C56.6576 60.1856 57.5474 60.0621 58.0726 59.3148C59.5186 57.2705 61.3044 57.2829 63.3744 58.1228C64.3322 58.5119 65.3827 58.6848 66.3652 59.0307C67.6196 59.4754 68.1325 60.6735 67.4713 61.7976C65.8832 64.5027 63.7575 66.4049 61.2611 66.2381V66.2505Z" fill="white"/>
</svg>
