<svg width="32" height="34" viewBox="0 0 32 34" fill="none" xmlns="http://www.w3.org/2000/svg">
<g clip-path="url(#clip0_62_717)">
<path d="M21.3632 18.1486C20.7768 18.3865 20.2944 18.5337 19.8617 18.77C19.3273 19.062 19.0636 19.5492 19.0908 20.1661C19.0954 20.2804 19.1009 20.3948 19.0993 20.5092C19.09 21.0963 18.8542 21.4195 18.278 21.5484C17.8142 21.6521 17.3373 21.7009 16.8673 21.7787C16.1918 21.89 15.7358 22.2476 15.5721 22.92C15.5 23.2151 15.4255 23.5109 15.379 23.8098C15.3038 24.2932 15.4736 24.6981 15.7986 25.0663C16.0506 25.3515 16.2662 25.6702 16.4764 25.9874C16.7192 26.3541 16.6548 26.7117 16.3841 27.0426C16.1739 27.3003 15.9552 27.5512 15.7513 27.8135C15.4038 28.2587 15.1952 28.752 15.2254 29.3285C15.2712 30.2121 15.735 30.7992 16.5982 31.0531C16.9068 31.1438 17.2271 31.2102 17.518 31.3383C18.3501 31.705 18.4316 32.6245 17.6723 33.1194C16.9363 33.5997 16.0793 33.7408 15.2301 33.7423C12.0907 33.7469 8.95046 33.7263 5.81103 33.6607C4.52129 33.634 3.24163 33.448 2.03875 32.9204C0.521777 32.254 -0.114951 31.2224 0.0168929 29.6014C0.0355061 29.3734 0.033955 29.1439 0.0587726 28.9167C0.282131 26.8711 0.81571 24.9146 2.00928 23.2022C4.08776 20.221 6.93636 18.3903 10.614 17.9534C11.6447 17.8307 12.7049 17.9191 13.7496 17.9489C15.5062 17.9992 17.2613 18.0892 19.0171 18.1448C19.7647 18.1684 20.5147 18.1486 21.3632 18.1486Z" fill="black"/>
<path d="M15.2381 16.2936C10.6057 16.2943 6.95519 12.7017 6.95752 8.14298C6.95907 3.58657 10.6127 -0.00076233 15.2482 1.21516e-07C19.8844 0.000762573 23.5303 3.58962 23.5287 8.14984C23.5272 12.6186 19.7867 16.2921 15.2381 16.2928V16.2936Z" fill="black"/>
<path d="M20.1502 20.5687C20.1168 19.7589 20.237 19.5638 20.8784 19.3609C21.6625 19.1131 22.1418 19.2252 22.5319 19.8276C22.9817 20.5206 23.5835 20.8454 24.4211 20.7478C24.8694 20.6952 25.2393 20.5275 25.4828 20.1386C25.5232 20.0738 25.5565 20.0022 25.6062 19.945C25.8078 19.714 25.9978 19.3121 26.2219 19.2923C26.8269 19.2382 27.4597 19.3716 27.8638 19.8802C28.0274 20.086 28.046 20.4215 28.0802 20.7036C28.1135 20.9781 28.0546 21.2633 28.0856 21.5385C28.188 22.4626 28.9627 23.0207 29.8949 22.8545C30.161 22.8072 30.4231 22.7363 30.6876 22.6799C31.2281 22.5648 31.4685 22.6547 31.6826 23.1488C32.1371 24.1964 32.2185 24.3817 31.1482 25.045C30.5076 25.4423 30.0283 25.8891 30.1082 26.7171C30.1695 27.3537 30.5038 27.7632 31.0622 28.0476C31.7043 28.3739 31.7012 28.383 31.5903 29.0807C31.5663 29.2301 31.5306 29.3796 31.4864 29.5244C31.2576 30.2815 31.1102 30.3776 30.3184 30.3334C29.7011 30.2991 29.0868 30.232 28.5261 30.6201C28.0111 30.9769 27.7862 31.4039 27.8909 32.0192C27.9165 32.1686 27.9584 32.3165 27.9949 32.4637C28.167 33.1522 28.1554 33.1796 27.5287 33.5052C27.4264 33.5586 27.3217 33.6096 27.2162 33.6569C26.2437 34.0946 26.0281 34.0359 25.4379 33.1789C24.8391 32.3081 23.658 32.2052 22.9065 32.9715C22.6924 33.1895 22.5156 33.4442 22.3287 33.6874C22.1487 33.9215 21.9045 34.0648 21.6237 33.9749C21.0909 33.8033 20.562 33.6074 20.0563 33.3695C19.7601 33.2299 19.6631 32.9433 19.8043 32.6192C19.819 32.5849 19.8221 32.5445 19.8361 32.5094C20.4263 31.0013 19.1249 30.2213 17.9879 30.4424C16.9037 30.6536 16.5826 30.2663 16.3717 29.2736C16.2701 28.7948 16.3903 28.3754 16.8812 28.1101C17.3776 27.8417 17.7917 27.494 17.9235 26.9024C18.0546 26.316 17.929 25.8197 17.4683 25.4194C17.2364 25.2173 16.9882 25.0328 16.7563 24.8308C16.3306 24.4602 16.3081 24.0005 16.4756 23.5064C16.6478 22.9994 16.958 22.6319 17.5342 22.5823C17.7902 22.5602 18.0531 22.5663 18.3074 22.5991C19.4165 22.7417 19.9361 22.3734 20.1013 21.2915C20.1377 21.0543 20.1354 20.8111 20.1517 20.5702L20.1502 20.5687ZM20.4061 26.3176C20.4146 28.4448 22.0332 30.1306 24.0566 30.1229C26.0885 30.1146 27.7296 28.4379 27.7288 26.3702C27.7288 24.3314 26.2026 22.8507 24.114 22.8629C21.9378 22.8758 20.3976 24.3108 20.4053 26.3183L20.4061 26.3176Z" fill="black"/>
</g>
<defs>
<clipPath id="clip0_62_717">
<rect width="32" height="34" fill="white"/>
</clipPath>
</defs>
</svg>
