<svg width="99" height="86" viewBox="0 0 99 86" fill="none" xmlns="http://www.w3.org/2000/svg">
<g clip-path="url(#clip0_68_805)">
<path d="M55.76 67.329C47.5821 67.329 39.4041 67.3312 31.224 67.329C29.36 67.329 27.5884 67.0319 26.0325 65.8549C22.4365 63.1306 22.0756 57.5779 25.3656 54.4723C25.852 54.0135 25.907 53.6145 25.775 53.0204C23.1825 41.4161 20.6033 29.8097 18.024 18.2032C17.5442 16.0397 17.0887 13.8718 16.5891 11.715C15.8233 8.40998 13.693 6.69428 10.306 6.66103C7.96005 6.63665 5.61186 6.68098 3.26588 6.63222C1.75398 6.60118 0.653611 5.74333 0.195859 4.36678C-0.264095 2.98358 0.0924241 1.75555 1.17739 0.875534C1.73637 0.421117 2.54844 0.0642338 3.25488 0.0487171C6.18625 -0.0133496 9.12644 -0.0443829 12.0512 0.130734C16.7058 0.41225 21.0632 3.95005 22.4783 8.44102C22.8986 9.77545 23.2067 11.1476 23.5368 12.5108C23.9836 14.3551 23.7393 14.0691 25.5307 14.0713C48.4513 14.078 71.3742 14.0758 94.2948 14.0758C94.6976 14.0758 95.1025 14.0647 95.5052 14.0802C98.1263 14.1866 99.592 16.2282 98.7733 18.733C97.8688 21.5038 96.8785 24.2481 95.9234 27.0034C94.1364 32.1638 92.3054 37.3109 90.5712 42.4912C89.1143 46.8448 86.1609 49.292 81.6978 50.0744C64.8974 53.0182 48.1014 55.9929 31.3076 58.9832C30.72 59.0874 29.6659 58.8192 29.7627 59.9209C29.8617 61.0425 30.8653 60.6679 31.5233 60.6679C47.6965 60.6856 63.8697 60.6812 80.0429 60.6834C80.5556 60.6834 81.075 60.6657 81.579 60.7388C83.2824 60.9915 84.3915 62.3215 84.3761 64.0372C84.3607 65.7241 83.1855 67.063 81.502 67.2802C81.0684 67.3356 80.6239 67.3245 80.1837 67.3245C72.041 67.3268 63.9005 67.3245 55.7578 67.3245L55.76 67.329Z" fill="#329FD9" fill-opacity="0.933333"/>
<path d="M75.1307 86C71.1979 86 68.0025 82.7858 67.9937 78.818C67.9849 74.8081 71.2199 71.5673 75.2033 71.5961C79.1272 71.6249 82.305 74.8746 82.2874 78.8357C82.2698 82.7991 79.0722 85.9978 75.1307 85.9978V86Z" fill="#329FD9" fill-opacity="0.933333"/>
<path d="M31.0699 71.5983C35.018 71.6072 38.2069 74.8036 38.2245 78.7692C38.2399 82.7814 35.0158 86.0199 31.0259 86C27.0954 85.98 23.9175 82.7459 23.9307 78.7781C23.9439 74.8081 27.1438 71.5894 31.0721 71.5983H31.0699Z" fill="#329FD9" fill-opacity="0.933333"/>
</g>
<defs>
<clipPath id="clip0_68_805">
<rect width="99" height="86" fill="white"/>
</clipPath>
</defs>
</svg>
