<svg width="34" height="33" viewBox="0 0 34 33" fill="none" xmlns="http://www.w3.org/2000/svg">
<g clip-path="url(#clip0_63_805)">
<path d="M34 28.6129V28.4158C33.8836 28.355 33.8925 28.2345 33.865 28.1332C33.2928 26.0289 32.726 23.9228 32.1467 21.8202C32.0836 21.5896 32.1192 21.41 32.2275 21.2041C34.1164 17.6141 34.4886 13.863 33.2377 10.0196C31.0752 3.37291 24.6713 -0.691477 17.665 0.0979886C13.7283 0.541568 10.5219 2.35637 8.01202 5.38221C6.84638 6.78776 6.02367 8.38077 5.44974 10.104C5.42842 10.1894 5.41065 10.2748 5.38577 10.3593C4.75586 12.4997 4.60927 14.6727 5.01617 16.8642C5.87975 21.513 8.43314 24.9789 12.6266 27.21C15.682 28.8356 18.9515 29.2132 22.348 28.5645C24.204 28.1561 25.9347 27.4556 27.5063 26.3906C27.6512 26.2929 27.7667 26.3211 27.9061 26.3739C28.9305 26.7576 29.9531 27.1431 30.9811 27.5163C31.9868 27.8824 32.9747 28.2969 33.9991 28.6138L34 28.6129ZM19.8399 9.76608C22.3649 9.76608 24.8907 9.76344 27.4157 9.76784C28.0687 9.76872 28.544 10.2317 28.5574 10.8477C28.5707 11.4691 28.1229 11.9541 27.4841 12.006C27.374 12.0148 27.2629 12.0113 27.1518 12.0113C22.3 12.0113 17.4491 12.0113 12.5973 12.0113C12.4756 12.0113 12.353 12.0157 12.2321 12.0033C11.6484 11.9435 11.2149 11.5017 11.19 10.949C11.1598 10.2651 11.644 9.76872 12.3619 9.76696C14.854 9.76344 17.3461 9.7652 19.8381 9.7652L19.8399 9.76608ZM19.8737 19.134C17.9804 19.134 16.0871 19.1358 14.193 19.1332C13.6377 19.1332 13.2263 18.8533 13.0611 18.3842C12.7919 17.6176 13.3543 16.8924 14.2276 16.8915C17.4056 16.8889 20.5836 16.8906 23.7615 16.8906C24.3701 16.8906 24.9796 16.8853 25.5882 16.8924C26.1168 16.8986 26.5441 17.2163 26.6854 17.6907C26.9075 18.4344 26.37 19.1296 25.5535 19.1323C23.6602 19.1384 21.767 19.134 19.8728 19.134H19.8737Z" fill="black"/>
<path d="M5.44981 10.1028C5.25524 10.1143 5.13974 10.2639 5.00381 10.3678C0.076479 14.1109 -1.41078 20.8359 1.49 26.2636C1.60727 26.4836 1.63037 26.6746 1.56374 26.9157C1.05999 28.7437 0.569569 30.5753 0.076479 32.4059C0.0480499 32.5098 0.0249481 32.6145 7.24792e-05 32.7175C0.133339 32.8072 0.228403 32.7131 0.32169 32.6787C1.90668 32.0935 3.49256 31.5108 5.06955 30.9053C5.36807 30.7909 5.5813 30.8023 5.85672 30.9819C11.0079 34.3422 18.0755 33.4198 22.1882 28.8608C22.2628 28.7772 22.3978 28.7164 22.349 28.5642C18.9524 29.2128 15.6829 28.8344 12.6276 27.2097C8.4341 24.9786 5.88071 21.5127 5.01714 16.8639C4.61023 14.6733 4.75682 12.4994 5.38673 10.359C5.41161 10.2753 5.42937 10.1891 5.4507 10.1037L5.44981 10.1028Z" fill="black"/>
</g>
<defs>
<clipPath id="clip0_63_805">
<rect width="34" height="33" fill="white" transform="matrix(-1 0 0 1 34 0)"/>
</clipPath>
</defs>
</svg>
