<svg width="34" height="31" viewBox="0 0 34 31" fill="none" xmlns="http://www.w3.org/2000/svg">
<g clip-path="url(#clip0_62_797)">
<path d="M9.09524 17.7767C8.58476 16.2372 8.07817 14.713 7.57158 13.1889C6.51163 9.99124 5.4439 6.79359 4.39564 3.58828C4.29043 3.2666 4.14625 3.1632 3.81112 3.17469C3.0941 3.2015 2.37708 3.19001 1.66006 3.17852C0.658567 3.1632 0 2.56963 0 1.68501C0 0.811874 0.666361 0.187661 1.64837 0.176173C2.94212 0.164684 4.23587 0.172343 5.52963 0.176173C6.11805 0.176173 6.40252 0.382967 6.60516 0.942078C7.1663 2.46623 7.73135 3.99038 8.26521 5.52602C8.38212 5.85919 8.5341 5.96258 8.88871 5.96258C12.0374 5.94727 15.186 5.95493 18.3347 5.95493C18.5178 5.95493 18.701 5.95493 18.9153 5.95493C18.8452 9.37469 20.1662 12.0707 23.2018 13.7442C26.2219 15.4062 29.2381 15.119 32.2075 13.277C32.1295 13.5795 32.0789 13.8131 32.0126 14.0429C31.5411 15.6934 31.0696 17.3401 30.5981 18.9906C30.2668 20.1433 29.7213 20.5531 28.5171 20.5531C22.2198 20.5531 15.9225 20.5531 9.62911 20.5531C9.41089 20.5531 9.19267 20.5454 8.97444 20.5607C8.23014 20.6143 7.69628 21.116 7.60275 21.836C7.52092 22.4793 7.92229 23.1035 8.61983 23.295C9.01731 23.4061 9.44986 23.4367 9.86292 23.4367C16.1602 23.4444 22.4575 23.4444 28.7509 23.4444C29.6238 23.4444 30.2162 23.8848 30.3058 24.5894C30.411 25.3859 29.8849 26.0446 29.0705 26.1365C28.9146 26.1518 28.7587 26.1442 28.6029 26.1442C22.3056 26.1442 16.0083 26.1442 9.71484 26.1442C8.22625 26.1442 6.85456 25.8034 5.85696 24.6239C4.80092 23.3754 4.56321 21.9547 5.16722 20.4497C5.77903 18.9179 6.96756 18.0754 8.63152 17.8839C8.74063 17.8724 8.84974 17.8686 8.95496 17.8533C8.98223 17.8533 9.00562 17.8226 9.08745 17.7767H9.09524Z" fill="black"/>
<path d="M20.5752 6.57914C20.5791 2.93343 23.5875 -0.00764412 27.3051 1.49251e-05C30.9759 0.00767397 33.9998 2.98704 33.9998 6.59063C33.9998 10.2517 30.9759 13.1966 27.2271 13.1927C23.568 13.1927 20.5713 10.2134 20.5752 6.57914ZM28.2559 4.09761C28.2559 3.92911 28.2559 3.76061 28.2559 3.59211C28.2559 2.31305 28.2559 2.30922 26.9699 2.34368C26.4322 2.359 26.288 2.50069 26.2802 3.04066C26.2724 3.76061 26.2685 4.48056 26.2802 5.20051C26.2841 5.50687 26.1867 5.64473 25.8515 5.62942C25.306 5.60644 24.7604 5.62942 24.2149 5.62559C23.3679 5.62559 22.9523 6.0379 22.9679 6.86252C22.9796 7.44078 23.0848 7.56333 23.6771 7.57864C24.3629 7.59396 25.0488 7.61311 25.7346 7.57481C26.1828 7.55184 26.3036 7.72034 26.2802 8.12627C26.2568 8.60113 26.2802 9.07599 26.2802 9.55085C26.2802 10.4393 26.7283 10.8708 27.6246 10.8452C28.1234 10.8299 28.252 10.7074 28.2559 10.2057C28.2598 9.45511 28.2676 8.70452 28.2559 7.95394C28.252 7.67438 28.3494 7.57099 28.6339 7.57864C29.2262 7.59396 29.8185 7.5863 30.4108 7.5863C31.6033 7.5863 31.6306 7.55567 31.615 6.36851C31.6072 5.77494 31.4708 5.63325 30.8746 5.62942C30.142 5.62559 29.4094 5.61793 28.6767 5.63325C28.3494 5.6409 28.2325 5.52602 28.2559 5.20434C28.2793 4.8367 28.2598 4.46907 28.2637 4.10144L28.2559 4.09761Z" fill="black"/>
<path d="M12.0257 27.0594C13.1285 27.0671 14.017 27.9402 14.017 29.0163C14.017 30.1039 13.1012 31.0039 11.9906 31C10.8917 31 9.97985 30.0771 9.99933 28.9857C10.0188 27.9096 10.919 27.0556 12.0257 27.0633V27.0594Z" fill="black"/>
<path d="M25.3721 27.0594C26.4983 27.0594 27.3907 27.9326 27.3868 29.0355C27.3829 30.1001 26.4711 30.9962 25.3877 30.9962C24.2771 30.9962 23.3692 30.1001 23.3731 29.0048C23.377 27.9249 24.2693 27.0594 25.3721 27.0556V27.0594Z" fill="black"/>
</g>
<defs>
<clipPath id="clip0_62_797">
<rect width="34" height="31" fill="white"/>
</clipPath>
</defs>
</svg>
