<svg width="81" height="73" viewBox="0 0 81 73" fill="none" xmlns="http://www.w3.org/2000/svg">
<g clip-path="url(#clip0_68_844)">
<path d="M40.2879 73C30.3101 73 20.3442 73 10.3664 73C1.48421 73 -2.65061 65.9355 1.80227 58.2116C12.1216 40.3619 22.4764 22.524 32.8782 4.72145C36.5654 -1.60129 44.4462 -1.55419 48.1688 4.78032C54.1648 15.0121 60.0784 25.291 66.0274 35.5463C70.4214 43.1289 74.8036 50.7115 79.1976 58.294C80.5994 60.696 81.5182 63.1921 80.7172 66.0297C79.4332 70.551 76.1701 72.9411 70.9279 72.9647C60.7264 73.0118 50.513 72.9765 40.2997 72.9765V73H40.2879ZM44.5169 32.7794C44.5169 29.671 44.5405 26.5508 44.5169 23.4424C44.4934 21.17 42.6792 19.3568 40.4057 19.2861C38.2264 19.2155 36.1059 21.0758 36.0942 23.2776C36.047 29.5768 36.047 35.8877 36.0942 42.1869C36.1059 44.4594 38.0379 46.3079 40.2643 46.355C42.5614 46.4021 44.5169 44.5065 44.5405 42.1163C44.5758 39.0079 44.5405 35.8877 44.5405 32.7794H44.5169ZM36.0588 55.7979C36.0235 58.3411 37.8965 60.3781 40.2879 60.3898C42.5143 60.3898 44.6112 58.3411 44.6819 56.0805C44.7643 53.6786 42.7146 51.5356 40.3468 51.5356C37.9908 51.5356 36.0942 53.4313 36.0588 55.7979Z" fill="#329FD9" fill-opacity="0.933333"/>
</g>
<defs>
<clipPath id="clip0_68_844">
<rect width="81" height="73" fill="white"/>
</clipPath>
</defs>
</svg>
