<svg width="77" height="77" viewBox="0 0 77 77" fill="none" xmlns="http://www.w3.org/2000/svg">
<g clip-path="url(#clip0_68_824)">
<path d="M0 38.549C0.152515 16.1091 18.5287 0.0798525 38.2395 -0.000121074C60.2851 -0.0891825 77.1162 18.3429 77 38.578C76.8783 59.7692 59.7858 76.9181 38.3502 76.9999C17.5428 77.078 0.0145252 59.7619 0 38.549ZM41.9979 11.258H35.2182C35.2182 13.0992 35.1873 14.8804 35.2345 16.6598C35.2527 17.376 34.9368 17.605 34.3195 17.8467C32.5837 18.5265 30.7626 19.1154 29.2011 20.0987C23.0588 23.9738 21.5227 33.8142 29.1158 38.4145C31.3509 39.7686 33.8111 40.7519 36.1805 41.8806C37.6784 42.5931 39.2707 43.142 40.6833 43.9926C41.5149 44.4924 42.3156 45.3285 42.7205 46.2028C43.7808 48.4984 42.4554 50.6413 39.6974 51.3175C36.9267 51.9972 34.1506 51.7664 31.4362 51.0521C29.7204 50.6013 28.0754 49.8798 26.396 49.2872C26.0001 49.1473 25.5408 48.931 25.381 49.5798C24.8781 51.6355 24.3987 53.6967 23.8958 55.7542C23.6906 56.5939 24.0211 57.0974 24.8182 57.3264C26.7609 57.8844 28.6909 58.4933 30.6518 58.9713C32.0735 59.3185 33.5387 59.4911 35.0475 59.7529V65.8436H41.6492V59.0458C41.9906 58.9549 42.2194 58.8731 42.4572 58.8368C45.2134 58.4115 47.4484 57.001 49.5764 55.2689C54.9634 50.8812 54.9326 40.4465 47.5701 36.6878C45.3405 35.5481 43.0182 34.5884 40.7487 33.5252C39.2181 32.8072 37.6784 32.1002 36.195 31.295C35.309 30.8133 34.6027 30.0954 34.4066 29.0121C34.0489 27.0346 35.2582 25.3533 37.535 25.0062C41.1663 24.4518 44.7032 24.9698 48.1239 26.3021C48.5614 26.4729 48.9972 26.6456 49.5945 26.8801C50.1411 24.7662 50.6712 22.7905 51.1578 20.8021C51.501 19.3989 51.4973 19.2317 50.0848 18.8318C47.7952 18.1848 45.4657 17.645 43.1217 17.2415C42.1685 17.0761 41.9452 16.758 41.9815 15.8764C42.0451 14.3424 41.9997 12.8047 41.9997 11.2562L41.9979 11.258Z" fill="#329FD9" fill-opacity="0.933333"/>
<path d="M41.9978 11.2581C41.9978 12.8085 42.0432 14.3462 41.9796 15.8784C41.9433 16.7599 42.1666 17.078 43.1199 17.2434C45.4639 17.6487 47.7933 18.1885 50.0829 18.8338C51.4955 19.2318 51.4991 19.4009 51.1559 20.804C50.6693 22.7925 50.1392 24.7682 49.5927 26.882C48.9971 26.6476 48.5595 26.4749 48.122 26.304C44.7031 24.9717 41.1662 24.4519 37.5331 25.0081C35.2563 25.3553 34.047 27.0365 34.4047 29.014C34.6008 30.0973 35.3071 30.8153 36.1931 31.2969C37.6783 32.1021 39.2162 32.811 40.7468 33.5271C43.0164 34.5904 45.3386 35.5501 47.5682 36.6897C54.9307 40.4503 54.9615 50.8832 49.5745 55.2708C47.4466 57.003 45.2133 58.4134 42.4553 58.8387C42.2193 58.8751 41.9887 58.9587 41.6474 59.0477V65.8455H35.0456V59.7548C33.5368 59.4931 32.0716 59.3204 30.65 58.9732C28.689 58.4934 26.7572 57.8863 24.8163 57.3283C24.0192 57.0993 23.6887 56.5958 23.8939 55.7561C24.3968 53.7004 24.8762 51.6393 25.3791 49.5818C25.5371 48.9329 25.9982 49.1492 26.3941 49.2892C28.0735 49.8817 29.7185 50.6033 31.4343 51.054C34.1487 51.7665 36.9248 51.9992 39.6955 51.3194C42.4553 50.6433 43.7789 48.4985 42.7186 46.2047C42.3137 45.3305 41.513 44.4944 40.6814 43.9945C39.2689 43.1457 37.6765 42.5968 36.1786 41.8825C33.8092 40.7538 31.349 39.7705 29.1139 38.4164C21.5209 33.8161 23.0569 23.9739 29.1992 20.1006C30.7607 19.1155 32.58 18.5284 34.3176 17.8486C34.9349 17.6069 35.2508 17.3779 35.2327 16.6618C35.1855 14.8824 35.2163 13.1011 35.2163 11.2599H41.996L41.9978 11.2581Z" fill="white"/>
</g>
<defs>
<clipPath id="clip0_68_824">
<rect width="77" height="77" fill="white"/>
</clipPath>
</defs>
</svg>
