<svg width="33" height="31" viewBox="0 0 33 31" fill="none" xmlns="http://www.w3.org/2000/svg">
<g clip-path="url(#clip0_62_725)">
<path d="M20.2948 30.9095C19.6007 30.9095 18.9207 30.7867 18.3318 30.4427C17.0902 29.7163 15.9133 29.7822 14.6495 30.4378C13.2288 31.1749 11.7767 31.0638 10.4025 30.2333C9.7792 29.8569 9.30968 29.332 8.95551 28.7079C8.79766 28.4287 8.64992 28.1437 8.48093 27.8715C7.9426 27.0046 7.08046 26.7018 6.105 26.5613C4.23096 26.292 2.8305 25.1007 2.47127 23.3826C2.33973 22.7507 2.36603 22.0626 2.45609 21.4179C2.60484 20.3534 2.38121 19.4531 1.56866 18.7051C0.771284 17.9709 0.192479 17.1178 0.0427178 16.0287C-0.123233 14.8178 0.201586 13.7485 0.98783 12.8069C1.16997 12.5887 1.37235 12.3832 1.58181 12.1886C2.37919 11.4475 2.64532 10.5502 2.44193 9.50833C2.19806 8.26204 2.36199 7.08946 3.14115 6.04073C3.85858 5.07554 4.84215 4.49761 6.04732 4.35902C7.37088 4.20668 8.24718 3.5737 8.85331 2.41587C10.0585 0.116917 12.4152 -0.607464 14.8083 0.528744C15.55 0.880615 16.2887 1.18236 17.1256 0.949416C17.4858 0.849162 17.8329 0.692885 18.1719 0.533658C20.5852 -0.600584 22.9298 0.112003 24.1593 2.42963C24.732 3.50883 25.5223 4.19881 26.7862 4.32462C29.153 4.56051 31.1373 6.6167 30.5676 9.48965C30.3582 10.5472 30.6273 11.4495 31.4348 12.2014C32.2261 12.9396 32.809 13.7897 32.9587 14.8807C33.1257 16.0926 32.7968 17.161 32.0156 18.1046C31.8264 18.3326 31.6149 18.5459 31.3964 18.7503C30.6212 19.4747 30.3602 20.3544 30.5545 21.3658C30.7781 22.5285 30.6718 23.6343 30.0091 24.6565C29.2228 25.8683 28.0399 26.4463 26.6222 26.6242C25.5263 26.7618 24.7634 27.3191 24.2898 28.2764C23.8061 29.2534 23.1403 30.081 22.0849 30.5056C21.5233 30.7316 20.9111 30.8398 20.3222 31.0009C20.313 30.9705 20.3039 30.941 20.2948 30.9105V30.9095ZM29.1257 8.45959C29.0943 8.24926 29.0862 8.03696 29.0305 7.83841C28.6865 6.62161 27.8244 5.97684 26.5676 5.81762C24.8393 5.59942 23.5916 4.75512 22.8499 3.21495C22.7801 3.07145 22.6971 2.93287 22.6121 2.79723C21.8886 1.64235 20.4588 1.20005 19.1838 1.73965C18.8721 1.87136 18.5726 2.03157 18.2609 2.16425C17.074 2.66847 15.887 2.66651 14.7051 2.14656C14.3955 2.00994 14.0959 1.85072 13.7823 1.72294C12.4992 1.20103 11.0754 1.66593 10.3701 2.83261C10.2234 3.07538 10.0949 3.32897 9.95527 3.57567C9.27325 4.78068 8.23403 5.50211 6.84064 5.74488C6.52999 5.79894 6.2163 5.84022 5.91273 5.91787C4.46876 6.28645 3.66936 7.58483 3.96382 9.15449C4.27144 10.7949 3.84239 12.1847 2.59675 13.3347C2.52389 13.4025 2.45407 13.4733 2.38425 13.545C1.26104 14.695 1.26307 16.2116 2.38931 17.3674C2.55425 17.5365 2.72627 17.6996 2.88817 17.8716C3.80091 18.8408 4.18138 19.9711 4.02959 21.2852C3.96281 21.8651 3.87781 22.4705 3.979 23.0337C4.1834 24.1748 5.11131 24.9189 6.43589 25.0899C8.13183 25.3101 9.37241 26.1229 10.1212 27.6277C10.2032 27.7928 10.2902 27.957 10.3924 28.1113C10.9975 29.0293 11.8637 29.4981 12.9808 29.3635C13.4787 29.3035 13.9745 29.0981 14.4309 28.8789C15.8222 28.2115 17.1934 28.2047 18.5736 28.8858C18.776 28.986 18.9784 29.0853 19.1868 29.1728C20.4638 29.7075 21.8946 29.2652 22.6141 28.1083C22.7902 27.8253 22.9349 27.5245 23.1049 27.2385C23.7909 26.0846 24.8119 25.3966 26.1628 25.1676C26.4735 25.1145 26.7872 25.0702 27.0907 24.9926C28.5367 24.6201 29.3341 23.3247 29.0397 21.756C28.731 20.1156 29.1591 18.7258 30.4088 17.5778C30.5099 17.4854 30.6051 17.3871 30.6982 17.2868C31.702 16.2125 31.7111 14.7313 30.7164 13.6521C30.515 13.433 30.2924 13.2315 30.089 13.0133C29.1935 12.0481 28.8049 10.9247 28.98 9.62725C29.0326 9.23902 29.0771 8.84881 29.1257 8.46058V8.45959Z" fill="black"/>
<path d="M10.106 20.782C10.1869 20.665 10.3033 20.4203 10.4864 20.2404C12.4505 18.3169 14.4257 16.4042 16.3979 14.4886C18.0666 12.8679 19.7342 11.2461 21.4048 9.6273C21.5283 9.50739 21.6608 9.37667 21.8166 9.31278C22.1475 9.17714 22.4653 9.23218 22.7071 9.51034C22.9358 9.77277 22.951 10.0696 22.784 10.3654C22.7193 10.4804 22.615 10.5777 22.5179 10.6731C18.87 14.2193 15.2191 17.7636 11.5732 21.3118C11.304 21.5742 11.0157 21.7491 10.6321 21.6233C10.3023 21.5152 10.1272 21.2715 10.107 20.782H10.106Z" fill="black"/>
<path d="M10.0562 10.2642C10.0551 8.48519 11.5204 7.061 13.3519 7.06297C15.1764 7.06493 16.6527 8.50485 16.6446 10.274C16.6365 12.0226 15.1592 13.4576 13.361 13.4635C11.5406 13.4694 10.0582 12.0344 10.0562 10.2642ZM15.0802 10.2514C15.0772 9.31966 14.3112 8.56874 13.357 8.56087C12.4027 8.55301 11.5922 9.33735 11.5973 10.2642C11.6023 11.1891 12.3754 11.938 13.3327 11.9439C14.3173 11.9498 15.0833 11.2068 15.0802 10.2514Z" fill="black"/>
<path d="M19.6492 23.8496C17.8318 23.8476 16.3534 22.4096 16.3564 20.6454C16.3595 18.887 17.849 17.4441 19.6593 17.4461C21.4756 17.449 22.9459 18.885 22.9439 20.6552C22.9419 22.4273 21.4726 23.8515 19.6482 23.8486L19.6492 23.8496ZM19.6573 18.9646C18.6919 18.9617 17.9289 19.693 17.9188 20.6296C17.9087 21.5801 18.6798 22.3448 19.6512 22.3458C20.5973 22.3477 21.3836 21.5948 21.4008 20.6719C21.419 19.7401 20.6297 18.9666 19.6573 18.9637V18.9646Z" fill="black"/>
</g>
<defs>
<clipPath id="clip0_62_725">
<rect width="33" height="31" fill="white"/>
</clipPath>
</defs>
</svg>
