<svg width="34" height="34" viewBox="0 0 34 34" fill="none" xmlns="http://www.w3.org/2000/svg">
<g clip-path="url(#clip0_62_732)">
<path d="M0.0294118 7.64508C0.189542 7.70546 0.314815 7.74608 0.434641 7.79877C5.11002 9.8846 9.78323 11.9737 14.4597 14.0562C14.7015 14.1638 14.8464 14.267 14.8453 14.5854C14.8333 20.4872 14.8366 26.3889 14.8355 32.2907C14.8355 32.384 14.8268 32.4784 14.8203 32.6201C14.659 32.5575 14.5229 32.5114 14.3911 32.4521C10.0022 30.4925 5.61656 28.5275 1.2244 26.5756C0.3878 26.2045 0 25.5886 0 24.6797C0.0043573 19.1347 0.00217865 13.5897 0.00326797 8.04578C0.00326797 7.92831 0.0185185 7.80975 0.0294118 7.64508Z" fill="black"/>
<path d="M26.1915 18.1971C30.4987 18.1939 34.0118 21.7408 33.9998 26.0805C33.9878 30.4662 30.4867 34.011 26.1752 34.0011C21.82 33.9912 18.3266 30.4651 18.3135 26.0673C18.3004 21.7376 21.8407 18.2015 26.1915 18.1982V18.1971ZM25.2765 27.5076C24.7852 27.0004 24.3353 26.5251 23.8745 26.0607C23.405 25.5864 22.8963 25.5381 22.5129 25.918C22.1261 26.3011 22.1675 26.8193 22.6305 27.2902C23.2525 27.9226 23.8789 28.5516 24.5052 29.1806C25.0804 29.757 25.5031 29.7592 26.075 29.1839C27.4224 27.8282 28.7689 26.4713 30.1142 25.1144C30.2002 25.0277 30.2895 24.9398 30.3593 24.8399C30.6196 24.4656 30.5651 23.9848 30.2383 23.6851C29.9301 23.4029 29.4519 23.3854 29.1163 23.6554C28.9889 23.7575 28.8778 23.8794 28.7623 23.9957C27.6185 25.1484 26.4758 26.3011 25.2776 27.5098L25.2765 27.5076Z" fill="black"/>
<path d="M31.3639 7.64398V17.9501C28.3192 16.153 25.1863 15.8632 22.0186 17.4034C18.8661 18.9371 17.1253 21.5597 16.6046 25.0793C16.5916 24.975 16.5796 24.9102 16.5752 24.8443C16.5709 24.762 16.5731 24.6797 16.5731 24.5973C16.5731 21.2765 16.5774 17.9556 16.5654 14.6348C16.5654 14.3296 16.6515 14.1869 16.9347 14.0617C21.6134 11.9858 26.2866 9.89557 30.9609 7.80865C31.0807 7.75486 31.2049 7.70875 31.3639 7.64398Z" fill="black"/>
<path d="M9.08398 9.7386C10.0938 9.28741 11.0099 8.87902 11.9249 8.47064C15.6657 6.80089 19.4075 5.13333 23.1439 3.45259C23.4086 3.33403 23.6101 3.34501 23.8661 3.46137C25.9119 4.38682 27.9642 5.298 30.0807 6.2432C29.9337 6.32444 29.84 6.38592 29.7387 6.43202C25.1657 8.47503 20.5927 10.5169 16.0154 12.5523C15.8705 12.617 15.6602 12.6653 15.5295 12.6072C13.4119 11.6773 11.3018 10.7299 9.08398 9.7397V9.7386Z" fill="black"/>
<path d="M1.32921 6.24539C4.05144 5.02903 6.71157 3.84121 9.37061 2.65229C11.1974 1.83552 13.0253 1.02205 14.8499 0.200898C15.3891 -0.0417157 15.9196 -0.0779431 16.4665 0.166867C17.9948 0.851894 19.5242 1.53143 21.0525 2.21427C21.1233 2.2461 21.1876 2.29221 21.2998 2.35808C19.8913 2.98822 18.5275 3.59969 17.1636 4.20897C13.8695 5.68002 10.5776 7.15218 7.27802 8.61225C7.10263 8.6902 6.84229 8.72423 6.67562 8.65177C4.97736 7.91625 3.28891 7.15547 1.59937 6.39908C1.52747 6.36725 1.46102 6.32224 1.32812 6.24649L1.32921 6.24539Z" fill="black"/>
<path d="M16.5869 32.642V27.2793C16.771 27.9489 16.9355 28.7789 17.2329 29.5583C17.5281 30.3312 17.9573 31.0524 18.356 31.8527C17.8091 32.0964 17.2122 32.3621 16.5869 32.6409V32.642Z" fill="black"/>
</g>
<defs>
<clipPath id="clip0_62_732">
<rect width="34" height="34" fill="white"/>
</clipPath>
</defs>
</svg>
