<svg width="77" height="77" viewBox="0 0 77 77" fill="none" xmlns="http://www.w3.org/2000/svg">
<g clip-path="url(#clip0_66_786)">
<path d="M39.6063 77H37.3937C36.7277 76.7035 36.0395 76.4491 35.4001 76.1017C25.0626 70.4705 14.7517 64.7928 4.38767 59.217C2.30779 58.0974 0.692558 56.7344 0 54.431V16.5948C0.836379 13.8976 2.77908 12.5324 5.38557 11.6451C11.0433 9.71793 16.6324 7.58494 22.2481 5.53382C27.2952 3.69069 32.3444 1.84534 37.3937 0C38.1305 0 38.8695 0 39.6063 0C40.0046 0.154885 40.4007 0.314195 40.8034 0.46023C51.0944 4.20845 61.3677 8.00756 71.6919 11.6673C74.2652 12.5789 76.188 13.9197 77.0022 16.5948V54.431C76.3251 56.6946 74.7719 58.0686 72.7097 59.1617C66.2753 62.5736 59.925 66.1426 53.5194 69.6076C48.9016 72.1056 44.2462 74.5373 39.6063 77ZM41.4517 69.3199C41.757 69.2469 41.8367 69.2425 41.8986 69.2093C51.3909 64.0383 60.8787 58.8607 70.382 53.7097C71.0347 53.3557 71.0723 52.8778 71.0723 52.2626C71.0613 43.162 71.0657 34.0592 71.0635 24.9586C71.0635 24.64 71.0325 24.3214 71.0126 23.9297C70.663 24.0514 70.3886 24.1422 70.1187 24.2395C60.9362 27.5784 51.7626 30.935 42.5646 34.2318C41.6663 34.5549 41.434 34.9797 41.4362 35.878C41.4649 46.6005 41.4539 57.323 41.4539 68.0476V69.3221L41.4517 69.3199ZM70.6232 17.741C70.4439 17.5905 70.3997 17.5286 70.3422 17.5086C59.9848 13.7383 49.6274 9.96353 39.2567 6.2308C38.7677 6.05379 38.0951 6.11132 37.5928 6.29276C29.8486 9.07626 22.1154 11.8974 14.3822 14.7119C11.7558 15.6677 9.13158 16.628 6.3171 17.6547C6.68218 17.8118 6.83928 17.8892 7.00302 17.949C17.0484 21.6109 27.1005 25.2573 37.1348 28.9547C38.1349 29.322 38.9868 29.2998 39.9648 28.937C45.1999 26.9943 50.4549 25.1024 55.7033 23.1907C60.6353 21.3941 65.5651 19.5907 70.6254 17.741H70.6232Z" fill="#329FD9" fill-opacity="0.933333"/>
</g>
<defs>
<clipPath id="clip0_66_786">
<rect width="77" height="77" fill="white"/>
</clipPath>
</defs>
</svg>
