<svg width="34" height="41" viewBox="0 0 34 41" fill="none" xmlns="http://www.w3.org/2000/svg">
<g clip-path="url(#clip0_62_742)">
<path d="M18.1289 12.1848C19.1155 11.9981 20.0219 11.9186 20.877 12.3743C21.8902 12.9145 22.3073 13.876 22.5801 14.9836C23.0556 16.9179 22.9941 18.8911 22.832 20.8928C22.8101 21.1645 22.7882 21.4391 22.7715 21.7141C22.7659 21.7959 22.7933 21.8644 22.8037 21.8909C22.8187 21.929 22.8272 21.9465 22.8398 21.9836L22.8975 22.1536H23.5615C25.9468 22.1472 28.3357 22.152 30.7227 22.1292C31.3012 22.1239 31.8097 22.2115 32.2236 22.4221C32.6316 22.6297 32.9625 22.9643 33.1816 23.4856C33.4122 24.0338 33.494 24.5601 33.417 25.053C33.3499 25.4827 33.1601 25.9008 32.8232 26.2971L32.6699 26.4661C32.6314 26.5055 32.6061 26.5484 32.5908 26.5745C32.5732 26.6045 32.5593 26.6301 32.5352 26.6682L32.4082 26.8665L32.5996 27.0051C33.2373 27.4648 33.5893 28.0587 33.6475 28.8381L33.6553 28.9973C33.6748 29.8614 33.4297 30.5566 32.7148 31.1497L32.4658 31.3567L32.7285 31.5452C33.1954 31.8817 33.476 32.276 33.6221 32.7092C33.7692 33.1458 33.7849 33.6383 33.6963 34.176C33.6047 34.7326 33.3861 35.1522 33.0576 35.4622C32.7268 35.7742 32.2663 35.9926 31.6641 36.1125L31.2676 36.1917L31.5156 36.511C31.9878 37.1176 32.0903 37.7944 32.0205 38.5403C31.9162 39.6504 31.0688 40.4928 29.9502 40.5911H29.9492C29.7776 40.6065 29.6027 40.6106 29.4219 40.6106C25.5043 40.6115 21.5883 40.6257 17.6729 40.6047C15.8128 40.5948 14.0298 40.2741 12.4062 39.3596H12.4072C12.364 39.3351 12.321 39.3188 12.2871 39.3059C12.2493 39.2916 12.2216 39.2815 12.1836 39.2659L11.9688 39.178L11.8643 39.387L11.8555 39.4026L11.8506 39.4202C11.6624 39.987 11.4683 40.2999 11.2148 40.4827C10.9614 40.6653 10.6049 40.7493 10.0127 40.7493C7.33557 40.7502 4.65743 40.7511 1.98047 40.7493C1.31978 40.7488 0.909336 40.608 0.65918 40.3606C0.409704 40.1139 0.268555 39.71 0.268555 39.0598C0.268556 33.9528 0.295916 28.8401 0.25 23.7297C0.244215 23.0962 0.451092 22.6795 0.75 22.4192C1.05495 22.1537 1.48764 22.0233 1.97559 22.0295C3.30727 22.0473 4.63975 22.0507 5.97168 22.0491L9.96484 22.0413C10.6427 22.0413 11.0316 22.1419 11.2891 22.3635C11.5494 22.5877 11.7276 22.9801 11.8643 23.7024L11.9316 24.0627L12.2432 23.8674C12.4323 23.7484 12.6092 23.6503 12.7998 23.5364C12.984 23.4263 13.1691 23.3074 13.3389 23.1643C14.8149 21.9215 15.6734 20.2721 16.3955 18.5911C17.2403 16.6248 17.7906 14.5752 17.9082 12.4211C17.9151 12.2965 17.9402 12.262 17.9502 12.2512C17.9631 12.2374 18.0007 12.2083 18.1279 12.1838L18.1289 12.1848Z" fill="black" stroke="#E7EBF3" stroke-width="0.5"/>
<path d="M6.85938 4.61865C6.88239 4.62882 6.91069 4.64609 6.94141 4.66943C6.9735 4.69384 7.00245 4.721 7.02637 4.74756L7.08105 4.82178C7.43009 5.45507 7.75286 6.10468 8.05859 6.76318C8.13408 6.92593 8.23304 7.06196 8.37402 7.15967C8.51371 7.25645 8.67395 7.30105 8.84473 7.3208C9.5549 7.40246 10.2613 7.50124 10.9609 7.63037H10.9619C11.0209 7.64111 11.1059 7.67357 11.1777 7.71729C11.2127 7.73857 11.2377 7.75834 11.252 7.77295C11.2535 7.79638 11.2513 7.8459 11.2246 7.91748C11.1946 7.9979 11.1487 8.07114 11.1074 8.11475L11.1064 8.11572C10.8604 8.3764 10.6007 8.62567 10.3359 8.88037C10.2043 9.007 10.0712 9.13467 9.93945 9.26514L9.5498 9.66553C9.44876 9.77419 9.37793 9.91749 9.33496 10.0552C9.30267 10.1587 9.28171 10.2726 9.28125 10.3843L9.28809 10.4946C9.33363 10.8567 9.39831 11.2152 9.46289 11.5659C9.49537 11.7423 9.52768 11.9167 9.55762 12.0903L9.63867 12.6108C9.64735 12.6751 9.64282 12.7683 9.62207 12.854C9.61192 12.8958 9.60006 12.9302 9.58789 12.9536C9.58218 12.9646 9.57787 12.9715 9.5752 12.9751C9.58254 12.9697 9.57803 12.9757 9.5498 12.981C9.52351 12.9859 9.48745 12.9882 9.44434 12.9858C9.35549 12.9809 9.26605 12.9577 9.20996 12.9312H9.20898C8.88389 12.7776 8.56593 12.6076 8.24121 12.4351C7.91825 12.2635 7.58843 12.0888 7.25 11.9302C7.12076 11.8698 6.96931 11.8476 6.83203 11.8491C6.72856 11.8503 6.6186 11.8654 6.5166 11.8979L6.41797 11.936C5.7329 12.2593 5.03302 12.6574 4.375 12.9849C4.21876 13.0625 4.13121 13.0408 4.09473 13.019C4.05934 12.9978 3.99877 12.9324 3.99414 12.7563C4.11357 12.047 4.22655 11.3039 4.37402 10.564C4.40942 10.3863 4.41359 10.2138 4.36133 10.0454C4.30873 9.87613 4.20637 9.73548 4.07031 9.60889C3.67087 9.23772 3.27921 8.85729 2.89746 8.46826L2.51953 8.07666C2.48259 8.03765 2.43733 7.96986 2.4082 7.90088C2.3951 7.86986 2.38867 7.84511 2.38574 7.82861C2.40045 7.80455 2.43116 7.76535 2.48535 7.7251C2.54986 7.67719 2.61656 7.64841 2.66016 7.64014C3.37377 7.50642 4.09598 7.40349 4.82031 7.32471C5.01129 7.30385 5.17886 7.24895 5.32129 7.14111C5.46205 7.0345 5.55797 6.89169 5.63281 6.73193V6.73096C5.9345 6.08585 6.24827 5.44788 6.58887 4.82861C6.61438 4.78218 6.66643 4.71945 6.72949 4.66943C6.75975 4.64544 6.78757 4.62887 6.80957 4.61865C6.83313 4.60776 6.83966 4.60884 6.83203 4.60889C6.83593 4.60973 6.84518 4.61241 6.85938 4.61865Z" fill="black" stroke="#E7EBF3" stroke-width="0.5"/>
<path d="M17.0376 0.267456C17.0683 0.286431 17.1056 0.317801 17.1479 0.361206C17.2329 0.448353 17.3154 0.562986 17.3726 0.662964C17.53 0.938628 17.6698 1.22616 17.814 1.52136C17.8855 1.66783 17.9584 1.81622 18.0337 1.96472L18.27 2.4071C18.3391 2.52895 18.4448 2.6366 18.5562 2.71765C18.6672 2.79845 18.8029 2.86628 18.9419 2.89343V2.89441C19.3082 2.96694 19.6771 3.02181 20.0396 3.07507C20.4038 3.12861 20.7615 3.17987 21.1147 3.24792C21.1774 3.26003 21.2651 3.29467 21.3394 3.34167C21.3752 3.36442 21.4022 3.38612 21.4194 3.40417C21.4382 3.42382 21.4358 3.42917 21.4321 3.41687V3.41785C21.4322 3.42199 21.4312 3.42987 21.4292 3.44226C21.4251 3.46768 21.4156 3.50168 21.3989 3.54089C21.3646 3.62133 21.3116 3.70056 21.2642 3.75085C21.0209 4.00798 20.771 4.25982 20.5161 4.50769L19.7397 5.24207C19.6168 5.35595 19.5211 5.48402 19.4712 5.63953C19.4338 5.75608 19.4259 5.87476 19.438 5.995L19.4565 6.11609C19.5875 6.78618 19.7101 7.45186 19.7915 8.12097V8.12195C19.8028 8.21355 19.8023 8.34284 19.7847 8.45203C19.7774 8.49727 19.7658 8.5311 19.7573 8.55457C19.7201 8.56311 19.6606 8.57 19.5757 8.55847C19.4672 8.5437 19.3511 8.50858 19.2593 8.46667C18.6586 8.19194 18.0737 7.87512 17.4907 7.54675C17.3422 7.46308 17.1872 7.40544 17.0171 7.40222C16.8883 7.3998 16.7662 7.42812 16.647 7.48035L16.5288 7.53992C15.8834 7.90453 15.2216 8.24589 14.5542 8.578C14.3682 8.67062 14.2768 8.64041 14.2476 8.62097C14.2181 8.60122 14.1555 8.52844 14.1675 8.32019C14.2585 7.78505 14.3649 7.22244 14.4536 6.65222L14.5356 6.07214C14.5533 5.93263 14.5315 5.78214 14.4897 5.65125C14.4481 5.52089 14.3794 5.38529 14.2827 5.2821C14.0329 5.01523 13.7696 4.76226 13.5122 4.51453C13.3827 4.38988 13.2541 4.26653 13.1284 4.14246L12.7603 3.7655C12.71 3.71177 12.6568 3.63035 12.6216 3.5448C12.5921 3.47308 12.5864 3.42108 12.5864 3.39246C12.6021 3.37812 12.6276 3.35925 12.6636 3.33875C12.7034 3.31606 12.7476 3.29524 12.7905 3.27917L12.9106 3.245C13.2566 3.17873 13.6069 3.12819 13.9644 3.07605C14.3196 3.02422 14.6821 2.97055 15.0415 2.89734C15.1846 2.86805 15.3257 2.7978 15.4429 2.71375C15.5309 2.65057 15.6162 2.57182 15.6841 2.48328L15.7456 2.39148C15.9136 2.09944 16.0609 1.79669 16.2036 1.50378C16.3475 1.2084 16.4868 0.921731 16.645 0.647339H16.646C16.7008 0.551998 16.7846 0.438688 16.8716 0.353394C16.9149 0.310926 16.953 0.280938 16.9829 0.26355C16.9944 0.256888 17.0025 0.25273 17.0073 0.250854C17.0132 0.253083 17.023 0.25844 17.0376 0.267456Z" fill="black" stroke="#E7EBF3" stroke-width="0.5"/>
<path d="M27.6475 1.64148C27.6679 1.6517 27.6967 1.6708 27.7305 1.70007C27.7995 1.75989 27.8623 1.83859 27.8955 1.89832V1.89734C28.0647 2.20373 28.2196 2.51979 28.3779 2.84167C28.5353 3.16144 28.6956 3.48763 28.873 3.80554C28.9417 3.92854 29.0497 4.03563 29.1611 4.11609C29.2725 4.19648 29.4081 4.26543 29.5469 4.29187H29.5479C29.9148 4.36117 30.2841 4.41208 30.6465 4.46179C30.8288 4.4868 31.0094 4.51135 31.1885 4.53796L31.7217 4.62585C31.7863 4.63774 31.8738 4.67142 31.9492 4.71863C31.986 4.74163 32.0142 4.76451 32.0332 4.78406C32.0451 4.79625 32.0507 4.80417 32.0527 4.8075C32.0483 4.79451 32.0528 4.79648 32.0488 4.82312C32.0451 4.84764 32.036 4.88118 32.0195 4.92078C31.9857 5.00216 31.9334 5.08132 31.8877 5.12976C31.4022 5.64381 30.8884 6.13534 30.3643 6.61902C30.2388 6.73469 30.1367 6.86502 30.0811 7.02527C30.0249 7.1871 30.0249 7.35498 30.0605 7.53113C30.2011 8.22692 30.3241 8.9248 30.4121 9.6239C30.4201 9.68728 30.4143 9.78095 30.3926 9.86609C30.382 9.90725 30.3694 9.93956 30.3574 9.96179L30.3486 9.97937C30.355 9.97498 30.3496 9.98074 30.3213 9.98523C30.2948 9.98939 30.2589 9.99068 30.2158 9.98718C30.1271 9.97995 30.0355 9.95463 29.9746 9.92566C29.3347 9.62074 28.7078 9.28239 28.0859 8.93152L27.9727 8.87488C27.8587 8.82587 27.7414 8.79918 27.6182 8.80164C27.4963 8.80411 27.3824 8.83542 27.2734 8.88367L27.166 8.93738C26.5155 9.29786 25.8552 9.64409 25.1895 9.97449C25.0136 10.0619 24.9127 10.037 24.8721 10.0116C24.8362 9.98905 24.7786 9.92219 24.7881 9.75281C24.8816 9.20543 24.969 8.65439 25.0684 8.10339L25.1738 7.54773C25.21 7.36515 25.2098 7.19052 25.1523 7.02234C25.0952 6.855 24.9897 6.71778 24.8555 6.59558H24.8545C24.3388 6.12751 23.8358 5.64695 23.3584 5.14539C23.3093 5.09352 23.2516 5.00837 23.2139 4.92468C23.1954 4.88383 23.1855 4.85153 23.1816 4.82996C23.1979 4.80619 23.2342 4.76588 23.3027 4.72253C23.3425 4.69736 23.3853 4.67597 23.4268 4.65906L23.5439 4.62292C23.8883 4.55733 24.2376 4.51044 24.5947 4.46179C24.9496 4.41345 25.3122 4.36285 25.6719 4.29285C25.8166 4.26448 25.9583 4.19286 26.0752 4.10828C26.1922 4.02361 26.3036 3.91225 26.376 3.78601L26.377 3.78503C26.5532 3.47387 26.7113 3.15373 26.8652 2.8407C26.9427 2.68323 27.0187 2.52739 27.0967 2.3739L27.3379 1.9198C27.3732 1.85651 27.4356 1.78035 27.5068 1.72058C27.5705 1.66725 27.6197 1.64729 27.6445 1.6405C27.6454 1.64092 27.6465 1.641 27.6475 1.64148Z" fill="black" stroke="#E7EBF3" stroke-width="0.5"/>
</g>
<defs>
<clipPath id="clip0_62_742">
<rect width="34" height="41" fill="white"/>
</clipPath>
</defs>
</svg>
