<svg width="35" height="37" viewBox="0 0 35 37" fill="none" xmlns="http://www.w3.org/2000/svg">
<g clip-path="url(#clip0_64_665)">
<path d="M34.9999 12.1407C34.8634 11.7698 34.7734 11.3748 34.5837 11.0337C33.9206 9.84105 33.2284 8.66475 32.5372 7.48748C31.9012 6.40367 30.9157 6.07708 29.7269 6.54818C28.5604 7.01061 27.3997 7.49038 26.2265 7.93546C26.0561 8.00001 25.7937 7.974 25.6321 7.88537C24.6205 7.32756 23.6205 6.74856 22.6292 6.15511C22.4801 6.06648 22.3223 5.87958 22.2962 5.71773C22.09 4.45184 21.9099 3.18113 21.7318 1.91041C21.5672 0.732186 20.7599 0.00964248 19.5672 0.00482553C18.1635 -0.000954817 16.7599 -0.00191821 15.3572 0.00482553C14.1684 0.0106059 13.3668 0.735076 13.2013 1.91908C13.0232 3.1898 12.8431 4.46051 12.6359 5.72641C12.6098 5.88729 12.4481 6.0713 12.2991 6.16089C11.3213 6.74567 10.3213 7.29384 9.3494 7.88729C9.12869 8.02217 8.9767 8.05107 8.7405 7.95473C7.56431 7.47303 6.38135 7.00675 5.19839 6.5424C4.01252 6.07612 3.02511 6.41041 2.392 7.49423C1.71146 8.65897 1.03479 9.82563 0.362956 10.9952C-0.275959 12.105 -0.0639556 13.1301 0.95831 13.9239C1.9496 14.6946 2.94766 15.4557 3.92346 16.2466C4.05899 16.3565 4.13934 16.6079 4.14224 16.7958C4.15773 17.9008 4.10933 19.0068 4.15676 20.1089C4.17128 20.4489 4.10158 20.632 3.84795 20.8256C2.86344 21.578 1.88958 22.3459 0.914747 23.1108C-0.0552431 23.8719 -0.264343 24.9046 0.345532 25.9692C1.02317 27.1532 1.70855 28.3343 2.39781 29.5125C3.0193 30.5761 4.01639 30.9239 5.16257 30.474C6.33101 30.0154 7.49849 29.5549 8.65821 29.0742C8.94089 28.9567 9.12385 28.9846 9.39297 29.1532C10.331 29.7399 11.2971 30.2861 12.272 30.8093C12.514 30.9393 12.6301 31.0559 12.666 31.3276C12.8325 32.5838 13.028 33.8353 13.2042 35.0906C13.3697 36.2688 14.1781 36.9923 15.3678 36.9962C16.7715 37.001 18.1752 37.0019 19.5779 36.9962C20.7628 36.9913 21.5692 36.2659 21.7357 35.0838C21.9138 33.8131 22.0938 32.5424 22.301 31.2765C22.3271 31.1156 22.4898 30.9316 22.6398 30.843C23.605 30.2678 24.5934 29.7312 25.5508 29.1445C25.7986 28.9923 25.9738 28.948 26.2458 29.0607C27.3901 29.5366 28.543 29.9904 29.695 30.4461C30.937 30.9374 31.9041 30.6069 32.5692 29.4663C33.2323 28.3285 33.8925 27.1898 34.5498 26.0491C35.2207 24.8854 35.0145 23.8738 33.9448 23.0453C32.9651 22.2861 31.9796 21.5337 31.0164 20.7543C30.8799 20.6436 30.7966 20.394 30.7947 20.2071C30.7812 19.1185 30.8392 18.0279 30.785 16.9412C30.7657 16.5626 30.8489 16.3632 31.1316 16.1493C32.1064 15.4104 33.0619 14.6464 34.029 13.8969C34.5972 13.4567 34.9283 12.9008 35.0009 12.1416L34.9999 12.1407Z" fill="black"/>
<path d="M35 12.1407C34.9284 12.8998 34.5973 13.4557 34.0281 13.896C33.061 14.6445 32.1055 15.4094 31.1307 16.1484C30.848 16.3632 30.7648 16.5617 30.7841 16.9403C30.8383 18.026 30.7802 19.1175 30.7938 20.2062C30.7957 20.3931 30.879 20.6436 31.0155 20.7534C31.9777 21.5337 32.9642 22.2852 33.9438 23.0443C35.0126 23.8728 35.2197 24.8844 34.5489 26.0482C33.8916 27.1888 33.2314 28.3285 32.5682 29.4653C31.9032 30.606 30.9361 30.9364 29.6941 30.4451C28.5421 29.9894 27.3882 29.5357 26.2449 29.0597C25.9729 28.9461 25.7977 28.9913 25.5498 29.1436C24.5924 29.7303 23.6041 30.2669 22.6389 30.842C22.4889 30.9316 22.3272 31.1147 22.3001 31.2755C22.0929 32.5414 21.9138 33.8121 21.7347 35.0829C21.5682 36.2649 20.7628 36.9913 19.577 36.9952C18.1733 37.001 16.7696 37 15.3669 36.9952C14.1771 36.9913 13.3688 36.2678 13.2033 35.0896C13.0271 33.8353 12.8316 32.5829 12.665 31.3266C12.6292 31.0549 12.5121 30.9384 12.271 30.8083C11.2952 30.2852 10.3301 29.738 9.39205 29.1522C9.12293 28.9836 8.93997 28.9557 8.6573 29.0732C7.49757 29.554 6.3301 30.0145 5.16166 30.473C4.01645 30.9229 3.01838 30.5752 2.39689 29.5116C1.70861 28.3333 1.02322 27.1532 0.344619 25.9682C-0.264287 24.9037 -0.0561558 23.8709 0.913835 23.1098C1.88867 22.3449 2.86253 21.5771 3.84704 20.8247C4.10067 20.631 4.17037 20.448 4.15585 20.1079C4.10841 19.0058 4.15585 17.8989 4.14133 16.7948C4.13842 16.6069 4.05807 16.3565 3.92255 16.2457C2.94772 15.4557 1.94965 14.6937 0.957397 13.9229C-0.0648682 13.1291 -0.275904 12.1041 0.362044 10.9942C1.03484 9.82563 1.71054 8.658 2.39109 7.49327C3.02516 6.40945 4.01258 6.07515 5.19747 6.54143C6.38044 7.00675 7.5634 7.47207 8.73958 7.95377C8.97482 8.05011 9.12777 8.0212 9.34849 7.88633C10.3214 7.29288 11.3204 6.74471 12.2982 6.15993C12.4472 6.07034 12.6089 5.88633 12.635 5.72544C12.8412 4.45955 13.0223 3.18883 13.2004 1.91812C13.3669 0.735076 14.1684 0.0106059 15.3572 0.00482553C16.7609 -0.00191821 18.1646 -0.000954817 19.5673 0.00482553C20.7599 0.00964248 21.5673 0.732186 21.7328 1.90945C21.9109 3.18016 22.091 4.45088 22.2972 5.71677C22.3233 5.87862 22.4811 6.06552 22.6302 6.15415C23.6215 6.7476 24.6215 7.3266 25.6331 7.8844C25.7948 7.97303 26.0571 7.99905 26.2275 7.9345C27.4008 7.48941 28.5615 7.00964 29.728 6.54721C30.9167 6.07612 31.9013 6.40367 32.5382 7.48652C33.2294 8.66378 33.9216 9.84009 34.5847 11.0328C34.7744 11.3738 34.8654 11.7698 35.001 12.1397L35 12.1407ZM17.4811 11.3006C13.5073 11.289 10.2439 14.5251 10.2333 18.4856C10.2226 22.4403 13.4734 25.6879 17.453 25.7004C21.424 25.712 24.6883 22.4759 24.7018 18.5135C24.7144 14.5607 21.4627 11.3112 17.4821 11.2996L17.4811 11.3006Z" fill="black"/>
<path d="M17.4812 11.2996C21.4619 11.3112 24.7145 14.5597 24.701 18.5135C24.6884 22.475 21.4232 25.712 17.4522 25.7004C13.4725 25.6879 10.2218 22.4393 10.2324 18.4856C10.2431 14.5241 13.5064 11.289 17.4803 11.3006L17.4812 11.2996Z" fill="#E7EBF3"/>
</g>
<defs>
<clipPath id="clip0_64_665">
<rect width="35" height="37" fill="white"/>
</clipPath>
</defs>
</svg>
