<svg width="34" height="34" viewBox="0 0 34 34" fill="none" xmlns="http://www.w3.org/2000/svg">
<g clip-path="url(#clip0_62_792)">
<path d="M0.0267497 24.0081C0.0267497 22.5714 0.0889915 21.1312 0.00540972 19.698C-0.051497 18.7138 0.339737 18.2226 1.21823 17.8335C3.51051 16.8194 5.75477 15.7013 8.0346 14.659C8.53253 14.4319 8.72459 14.1625 8.71925 13.6062C8.68902 10.7328 8.72637 7.85763 8.69258 4.98424C8.68369 4.24476 8.9042 3.80284 9.60842 3.4824C12.0252 2.38375 14.4046 1.20764 16.8214 0.112508C17.161 -0.0406686 17.7034 -0.0406686 18.0377 0.121312C20.3496 1.23228 22.6241 2.41897 24.927 3.54578C25.489 3.82045 25.6828 4.19194 25.6792 4.78881C25.6597 7.72206 25.6792 10.6535 25.6615 13.5868C25.6579 14.0815 25.7859 14.3439 26.2768 14.5798C28.5904 15.689 30.8666 16.8739 33.1696 18.0008C33.7458 18.2825 34.0036 18.6522 33.9983 19.2984C33.9787 22.4358 33.977 25.5751 33.9983 28.7126C34.0036 29.3235 33.7653 29.6827 33.2372 29.9644C30.8951 31.2145 28.5619 32.4786 26.2394 33.7621C25.7237 34.0474 25.2898 34.0931 24.7545 33.7956C22.2577 32.3994 19.7467 31.0314 17.2321 29.6686C17.1094 29.6017 16.8818 29.6088 16.7556 29.6774C14.241 31.0402 11.746 32.4399 9.21185 33.7639C8.84729 33.954 8.20887 33.9452 7.84076 33.7551C5.45601 32.5262 3.11394 31.2127 0.746976 29.9468C0.211697 29.6598 0.00718805 29.2672 0.0178581 28.6703C0.0463114 27.1157 0.0267497 25.561 0.0267497 24.0081ZM32.3516 20.4657C30.3331 21.5661 28.4552 22.582 26.5898 23.6208C26.4742 23.6859 26.387 23.9078 26.387 24.0574C26.3746 26.5928 26.3781 29.1299 26.3781 31.8342C28.3912 30.7444 30.2709 29.7338 32.1382 28.7003C32.2555 28.6351 32.3409 28.4062 32.3427 28.253C32.3551 25.7177 32.3516 23.1806 32.3516 20.4639V20.4657ZM15.4254 20.4657C13.4176 21.552 11.6055 22.5274 9.80226 23.5222C9.6511 23.6049 9.48038 23.8215 9.48038 23.9764C9.46082 26.5417 9.46616 29.107 9.46616 31.8149C11.0418 30.9662 12.4449 30.1 13.9422 29.4397C15.1479 28.9098 15.5321 28.1773 15.4574 26.8921C15.3382 24.8268 15.4254 22.7492 15.4254 20.4639V20.4657ZM18.1587 17.3106C19.969 16.3299 21.6318 15.3985 23.3265 14.5323C23.8725 14.2541 24.0894 13.946 24.0787 13.3262C24.0378 11.1624 24.0645 8.99677 24.061 6.83117C24.061 6.58996 24.0201 6.34875 23.9916 6.02655C22.1101 7.04421 20.3211 7.99672 18.5552 8.98797C18.3578 9.09889 18.1782 9.43517 18.1747 9.66758C18.148 12.1536 18.1587 14.6397 18.1587 17.3106ZM16.3465 17.4884C16.3465 14.8016 16.3501 12.3121 16.3394 9.82252C16.3394 9.63765 16.2807 9.35947 16.1527 9.282C15.4414 8.85416 14.7016 8.47562 13.8249 8.002V9.68343C11.9292 9.12002 11.8989 9.09889 11.8082 7.38929C11.7584 6.45791 10.9333 6.58115 10.3589 6.13219C10.3589 8.80486 10.3535 11.2944 10.3696 13.7858C10.3696 13.9865 10.4691 14.2875 10.6185 14.3703C12.4644 15.4003 14.3281 16.3968 16.3448 17.4884H16.3465ZM1.73395 20.5203C1.73395 22.5802 1.85132 24.5803 1.69483 26.5611C1.57568 28.0647 2.0416 28.9115 3.4536 29.4978C4.87983 30.0912 6.19757 30.9363 7.6647 31.7251C7.6647 29.0524 7.66826 26.5347 7.65581 24.0169C7.65581 23.8391 7.56867 23.5785 7.4353 23.501C6.73463 23.089 6.00551 22.7228 5.15191 22.2686V24.031C4.64509 23.8039 4.25741 23.5908 3.84484 23.4553C3.29533 23.2757 3.09438 22.9218 3.19397 22.3883C3.3967 21.3073 2.8383 20.7826 1.73395 20.5238V20.5203ZM22.103 24.0433C21.6175 23.8232 21.2868 23.6225 20.9258 23.5204C20.2411 23.3232 20.0401 22.9183 20.0757 22.2228C20.1362 21.0009 20.0152 20.9094 18.6584 20.5678C18.6584 22.5978 18.7722 24.6261 18.621 26.635C18.5108 28.1069 18.9891 28.9133 20.3531 29.4855C21.7776 30.0841 23.0971 30.9275 24.5731 31.7251C24.5731 29.0277 24.5767 26.4836 24.5642 23.9412C24.5642 23.7915 24.4753 23.5732 24.3579 23.5046C23.6555 23.0926 22.9335 22.7176 22.103 22.2668V24.0433ZM14.8385 6.35579C15.4574 6.69912 15.9855 6.94561 16.4621 7.26781C16.9654 7.60938 17.3886 7.57768 17.8972 7.26429C18.7989 6.71144 19.7432 6.2255 20.6697 5.71139C21.4006 5.30644 22.1315 4.90149 22.978 4.43139C22.2542 4.06694 21.7171 3.76235 21.1498 3.52642C20.9115 3.42782 20.5541 3.36796 20.346 3.4736C18.5428 4.38738 16.7609 5.34165 14.8385 6.35579ZM14.3175 18.9797C13.6719 18.6522 13.1331 18.3599 12.5747 18.1046C12.3542 18.0043 12.0323 17.8705 11.8598 17.9567C9.99966 18.8793 8.16086 19.8424 6.20469 20.8513C6.94448 21.2544 7.54555 21.6066 8.16975 21.9112C8.35292 22.001 8.64812 22.0485 8.81173 21.9622C10.6256 21.0027 12.4253 20.0114 14.3192 18.9814L14.3175 18.9797ZM31.2525 18.9832C30.5021 18.6064 29.9046 18.2895 29.291 18.0096C29.131 17.9356 28.8767 17.9057 28.7309 17.9796C26.8974 18.9075 25.0764 19.8582 23.1362 20.8636C23.8725 21.265 24.4735 21.6242 25.1048 21.9165C25.304 22.008 25.633 22.008 25.8251 21.9076C27.5963 20.9763 29.3515 20.0132 31.2525 18.9832ZM11.6233 4.47893C11.6197 4.57929 11.6162 4.67965 11.6126 4.77824C12.2297 4.9279 12.9819 5.37863 13.439 5.17615C15.2564 4.37329 16.9814 3.36444 18.7402 2.43305C18.7473 2.34326 18.7544 2.2517 18.7615 2.16191C18.2067 2.04571 17.5451 1.67773 17.1183 1.85732C15.2493 2.64433 13.4478 3.5898 11.6233 4.47893ZM2.68536 19.0642C3.35579 19.286 3.92486 19.6857 4.23785 19.5431C6.10154 18.6874 7.90478 17.7067 9.72935 16.7683C9.72401 16.6944 9.7169 16.6204 9.71157 16.5447C9.30433 16.4707 8.81884 16.219 8.50408 16.3545C6.62438 17.1697 4.7838 18.0747 2.68714 19.0642H2.68536ZM19.8178 18.948C20.515 19.6223 21.1534 19.7579 21.9252 19.2262C22.4533 18.8617 23.0669 18.617 23.643 18.3177C24.646 17.7965 25.6472 17.2736 26.6502 16.7507C26.6378 16.6644 26.6253 16.5781 26.6129 16.4901C26.179 16.4479 25.6721 16.2419 25.3236 16.3915C23.4848 17.1838 21.6869 18.0677 19.8161 18.9462L19.8178 18.948Z" fill="black"/>
</g>
<defs>
<clipPath id="clip0_62_792">
<rect width="34" height="34" fill="white"/>
</clipPath>
</defs>
</svg>
