<svg width="69" height="77" viewBox="0 0 69 77" fill="none" xmlns="http://www.w3.org/2000/svg">
<g clip-path="url(#clip0_65_772)">
<path d="M34.308 76.9705C26.1795 76.9705 18.051 76.9852 9.92987 76.9557C8.7117 76.9557 7.42709 76.9557 6.27536 76.6237C1.60203 75.2733 -0.694036 72.6095 0.184521 67.4147C2.05238 56.3166 12.8904 45.8975 24.9318 45.071C32.1596 44.5766 39.3948 44.2667 46.5561 45.5506C57.874 47.5725 66.7851 56.5675 68.8228 67.7836C69.753 72.8973 66.9771 75.4652 62.5473 76.6458C61.3809 76.9557 60.111 76.9779 58.8928 76.9779C50.6979 77.0074 42.5029 76.9926 34.308 76.9926V76.9631V76.9705Z" fill="#329FD9" fill-opacity="0.933333"/>
<path d="M34.3007 39.0276C23.4184 39.1014 14.7952 30.4975 14.7361 19.5027C14.6771 8.84744 23.2116 0.309921 33.7248 1.93808e-06C43.8098 -0.295159 53.6289 8.30139 53.7397 19.0379C53.8504 30.4753 45.5669 38.9464 34.3081 39.0276H34.3007Z" fill="#329FD9" fill-opacity="0.933333"/>
</g>
<defs>
<clipPath id="clip0_65_772">
<rect width="69" height="77" fill="white"/>
</clipPath>
</defs>
</svg>
